<svg preserveAspectRatio="none" width="100%" height="100%" overflow="visible" style="display: block;" viewBox="0 0 30 30" fill="none" xmlns="http://www.w3.org/2000/svg">
<g id="Capterra Icon">
<rect width="30" height="30" rx="15" fill="url(#paint0_linear_0_276)"/>
<path id="Vector" d="M14.7554 6.77377L15.2865 5.85582C15.6143 5.2821 16.3454 5.08868 16.9191 5.41652C17.4928 5.74435 17.6863 6.47544 17.3584 7.04916L12.2409 15.9074H15.9422C17.1421 15.9074 17.8141 17.3171 17.2929 18.294H6.44138C5.77915 18.294 5.24805 17.7629 5.24805 17.1007C5.24805 16.4385 5.77915 15.9074 6.44138 15.9074H9.48373L13.3785 9.15716L12.1622 7.04588C11.8343 6.47216 12.0278 5.74763 12.6015 5.41324C13.1752 5.0854 13.8997 5.27882 14.2341 5.85254L14.7554 6.77377ZM10.1525 19.5234L9.00509 21.5134C8.67725 22.0871 7.94616 22.2806 7.37245 21.9527C6.79873 21.6249 6.6053 20.8938 6.93314 20.3201L7.78552 18.8448C8.74937 18.5465 9.53291 18.776 10.1525 19.5234ZM20.0336 15.9139H23.1382C23.8005 15.9139 24.3316 16.445 24.3316 17.1073C24.3316 17.7695 23.8005 18.3006 23.1382 18.3006H21.4138L22.5776 20.3201C22.9055 20.8938 22.712 21.6183 22.1383 21.9527C21.5646 22.2806 20.8401 22.0871 20.5057 21.5134C18.5452 18.1137 17.0732 15.5697 16.0963 13.8748C15.0963 12.1503 15.811 10.4193 16.5159 9.83251C17.2994 11.1767 18.4698 13.206 20.0336 15.9139Z" fill="var(--fill-0, white)"/>
</g>
<defs>
<linearGradient id="paint0_linear_0_276" x1="15" y1="0" x2="15" y2="30" gradientUnits="userSpaceOnUse">
<stop stop-color="#18BFFB"/>
<stop offset="1" stop-color="#2072F3"/>
</linearGradient>
</defs>
</svg>
