<svg preserveAspectRatio="none" width="100%" height="100%" overflow="visible" style="display: block;" viewBox="0 0 32.2415 32.2415" fill="none" xmlns="http://www.w3.org/2000/svg">
<g id="G2 svg" clip-path="url(#clip0_0_183)">
<path id="Vector" d="M16.1207 32.2415C25.024 32.2415 32.2415 25.024 32.2415 16.1207C32.2415 7.2175 25.024 0 16.1207 0C7.2175 0 0 7.2175 0 16.1207C0 25.024 7.2175 32.2415 16.1207 32.2415Z" fill="var(--fill-0, #FF492C)"/>
<path id="Vector_2" d="M23.0972 12.3519H20.3438C20.418 11.9198 20.6856 11.678 21.2272 11.404L21.7334 11.1461C22.6394 10.6818 23.123 10.1562 23.123 9.29861C23.123 8.76018 22.9135 8.33459 22.4975 8.0283C22.0816 7.72201 21.5916 7.57047 21.0177 7.57047C20.5737 7.56525 20.1378 7.68962 19.7635 7.92835C19.3862 8.16049 19.1057 8.46034 18.9316 8.83434L19.728 9.63393C20.0375 9.00844 20.4857 8.70215 21.0757 8.70215C21.5754 8.70215 21.8817 8.96008 21.8817 9.31796C21.8817 9.6178 21.7334 9.86606 21.1595 10.1562L20.8339 10.3142C20.1278 10.6721 19.6377 11.0816 19.354 11.5458C19.0703 12.0101 18.9316 12.5937 18.9316 13.2998V13.4932H23.0972V12.3519Z" fill="var(--fill-0, white)"/>
<path id="Vector_3" d="M22.729 14.8047H18.1701L15.8906 18.751H20.4496L22.729 22.7006L25.0085 18.751L22.729 14.8047Z" fill="var(--fill-0, white)"/>
<path id="Vector_4" d="M16.2837 21.3866C13.3819 21.3866 11.0186 19.0233 11.0186 16.1215C11.0186 13.2198 13.3819 10.8565 16.2837 10.8565L18.086 7.08748C17.4925 6.96946 16.8888 6.91007 16.2837 6.91016C11.196 6.91016 7.07227 11.0338 7.07227 16.1215C7.07227 21.2093 11.196 25.3329 16.2837 25.3329C18.2334 25.3366 20.1333 24.7176 21.7067 23.5661L19.7141 20.1098C18.7609 20.9333 17.5433 21.3864 16.2837 21.3866Z" fill="var(--fill-0, white)"/>
</g>
<defs>
<clipPath id="clip0_0_183">
<rect width="32.2415" height="32.2415" fill="white"/>
</clipPath>
</defs>
</svg>
