<svg preserveAspectRatio="none" width="100%" height="100%" overflow="visible" style="display: block;" viewBox="0 0 15.5379 16.6047" fill="none" xmlns="http://www.w3.org/2000/svg">
<g id="Google_Play_Arrow_logo 1" clip-path="url(#clip0_0_283)">
<path id="path16" d="M11.466 10.859C13.4324 9.77945 14.9361 8.95692 15.0646 8.89266C15.4758 8.67418 15.8999 8.09585 15.0646 7.64603C14.7947 7.50466 13.3424 6.70784 11.466 5.67969L8.88281 8.27577L11.466 10.859Z" fill="var(--fill-0, #FFD400)"/>
<path id="path23" d="M8.88178 8.27734L0.630859 16.5925C0.823638 16.6182 1.04212 16.5668 1.29916 16.4254C1.83894 16.1299 7.57088 12.994 11.465 10.8606L8.88178 8.27734Z" fill="var(--fill-0, #FF3333)"/>
<path id="path30" d="M8.88096 8.27804L11.4642 5.68195C11.4642 5.68195 1.87667 0.451228 1.29834 0.142783C1.07986 0.0142636 0.83567 -0.0242921 0.617188 0.0142636L8.88096 8.27804Z" fill="var(--fill-0, #48FF48)"/>
<path id="path37" d="M8.88066 8.2794L0.616891 0.015625C0.282742 0.0927364 0 0.388331 0 0.99237C0 1.95626 0 14.8082 0 15.6178C0 16.1705 0.218482 16.5689 0.629743 16.6074L8.88066 8.2794Z" fill="var(--fill-0, #3BCCFF)"/>
</g>
<defs>
<clipPath id="clip0_0_283">
<rect width="15.5379" height="16.6047" fill="white"/>
</clipPath>
</defs>
</svg>
