<svg preserveAspectRatio="none" width="100%" height="100%" overflow="visible" style="display: block;" viewBox="0 0 100 28.6836" fill="none" xmlns="http://www.w3.org/2000/svg">
<g id="Container">
<g id="Overlay">
<g id="Circle.">
<path d="M13.2792 28.6836C11.4348 28.6836 9.70116 28.3392 8.07815 27.6504C6.45515 26.9369 5.04116 25.9528 3.8362 24.6982C2.63124 23.4189 1.68449 21.9427 0.995937 20.2698C0.331979 18.5969 0 16.7887 0 14.8451C0 12.9016 0.331979 11.1056 0.995937 9.45731C1.68449 7.78439 2.63124 6.32058 3.8362 5.06588C5.04116 3.81119 6.45515 2.83941 8.07815 2.15056C9.70116 1.43711 11.4348 1.08038 13.2792 1.08038C15.6153 1.08038 17.7301 1.56012 19.6236 2.51959C21.5417 3.47906 23.1156 4.81986 24.3451 6.54199C25.5747 8.26412 26.337 10.2569 26.6321 12.5202H20.6934C20.4966 11.2409 20.0417 10.1216 19.3286 9.16209C18.64 8.20262 17.7793 7.45226 16.7465 6.91102C15.7383 6.36978 14.6071 6.09916 13.3529 6.09916C12.1972 6.09916 11.152 6.30828 10.2176 6.72651C9.30771 7.14474 8.5085 7.74748 7.81995 8.53474C7.15599 9.322 6.63958 10.2569 6.27071 11.3394C5.92644 12.3972 5.7543 13.5658 5.7543 14.8451C5.7543 16.149 5.92644 17.3422 6.27071 18.4247C6.63958 19.4826 7.15599 20.4051 7.81995 21.1924C8.5085 21.9796 9.30771 22.5947 10.2176 23.0375C11.152 23.4558 12.1972 23.6649 13.3529 23.6649C14.6071 23.6649 15.7506 23.3943 16.7834 22.853C17.8162 22.2872 18.6646 21.5245 19.3286 20.565C20.0171 19.581 20.472 18.4616 20.6934 17.2069H26.6321C26.3124 19.4949 25.5378 21.4999 24.3082 23.222C23.0787 24.9442 21.5172 26.285 19.6236 27.2444C17.7301 28.2039 15.6153 28.6836 13.2792 28.6836Z" fill="white"/>
<path d="M34.4938 28.1301H29.3666V8.42403H34.4938V28.1301Z" fill="white"/>
<path d="M43.446 18.5723V28.1301H38.3188V8.42403H43.0403V12.225C43.778 10.9703 44.8477 9.98625 46.2494 9.2728C47.6511 8.55934 49.1388 8.20262 50.7127 8.20262V13.5166C49.2864 13.4182 48.0199 13.492 46.9133 13.738C45.8313 13.9594 44.983 14.4638 44.3682 15.251C43.7534 16.0137 43.446 17.1208 43.446 18.5723Z" fill="white"/>
<path d="M60.7936 28.4991C58.9001 28.4991 57.2279 28.0686 55.7771 27.2075C54.3508 26.3465 53.2319 25.141 52.4204 23.5911C51.6089 22.0412 51.2031 20.2698 51.2031 18.2771C51.2031 16.3089 51.6089 14.5622 52.4204 13.0369C53.2565 11.487 54.4 10.2692 55.8508 9.38351C57.3017 8.49784 58.9493 8.05501 60.7936 8.05501C62.4904 8.05501 64.0274 8.42403 65.4045 9.16209C66.7816 9.87554 67.9004 10.8965 68.7611 12.225C69.6218 13.5289 70.1505 15.0665 70.3473 16.8379H64.9618C64.8389 15.534 64.3962 14.5007 63.6339 13.738C62.8962 12.9754 61.9494 12.594 60.7936 12.594C59.9084 12.594 59.1337 12.8278 58.4698 13.2952C57.8304 13.7626 57.3263 14.4146 56.9574 15.251C56.6132 16.0875 56.441 17.0962 56.441 18.2771C56.441 19.4334 56.6132 20.442 56.9574 21.3031C57.3263 22.1642 57.8304 22.8284 58.4698 23.2958C59.1337 23.7387 59.9084 23.9601 60.7936 23.9601C61.974 23.9601 62.9208 23.5911 63.6339 22.853C64.3716 22.0904 64.8143 21.0448 64.9618 19.7163H70.3473C70.1751 21.5122 69.6587 23.0744 68.798 24.4029C67.9373 25.7068 66.8307 26.7155 65.4782 27.429C64.1257 28.1424 62.5642 28.4991 60.7936 28.4991Z" fill="white"/>
<path d="M78.0655 28.1301H72.9014V1.63392L78.0655 1.63392V28.1301Z" fill="white"/>
<path d="M90.4833 28.4622C88.516 28.4622 86.7823 28.044 85.2823 27.2075C83.8068 26.3465 82.6633 25.141 81.8518 23.5911C81.0403 22.0412 80.6346 20.2452 80.6346 18.2033C80.6346 16.2351 81.0526 14.4884 81.8887 12.9631C82.7248 11.4378 83.8806 10.2446 85.356 9.38351C86.8315 8.49784 88.516 8.05501 90.4095 8.05501C91.9587 8.05501 93.3604 8.35023 94.6146 8.94067C95.8933 9.50651 96.963 10.3184 97.8237 11.3763C98.6844 12.4341 99.2992 13.6642 99.668 15.0665C100.037 16.4442 100.098 17.9326 99.8525 19.5318H83.6593V16.2843H94.4301C94.3809 14.9066 93.9752 13.8241 93.2129 13.0369C92.4752 12.225 91.5038 11.8191 90.2988 11.8191C89.3398 11.8191 88.5283 12.0651 87.8643 12.5571C87.2004 13.0492 86.684 13.7749 86.3151 14.7344C85.9708 15.6693 85.7987 16.8256 85.7987 18.2033C85.7987 19.5564 85.9708 20.7004 86.3151 21.6352C86.6594 22.5701 87.1758 23.2835 87.8643 23.7756C88.5529 24.2676 89.389 24.5136 90.3726 24.5136C91.5038 24.5136 92.4383 24.243 93.176 23.7018C93.9137 23.1605 94.4301 22.4102 94.7252 21.4507H99.8156C99.25 23.6649 98.1557 25.387 96.5327 26.6171C94.9097 27.8472 92.8932 28.4622 90.4833 28.4622Z" fill="white"/>
</g>
</g>
<path id="Circle._2" d="M35.2689 3.50576C35.2689 4.51444 34.9492 5.3509 34.3098 6.01515C33.6705 6.6548 32.8467 6.97462 31.8384 6.97462C30.8302 6.97462 29.9941 6.6548 29.3301 6.01515C28.6908 5.3509 28.3711 4.51444 28.3711 3.50576C28.3711 2.47248 28.6908 1.63602 29.3301 0.996376C29.9941 0.332126 30.8302 0 31.8384 0C32.8467 0 33.6705 0.332126 34.3098 0.996376C34.9492 1.63602 35.2689 2.47248 35.2689 3.50576Z" fill="var(--fill-0, white)"/>
</g>
</svg>
