<svg preserveAspectRatio="none" width="100%" height="100%" overflow="visible" style="display: block;" viewBox="0 0 181.288 51.9984" fill="none" xmlns="http://www.w3.org/2000/svg">
<g id="Circle Logo">
<g id="Logo">
<g id="Circle.">
<path d="M24.0735 51.9984C20.73 51.9984 17.587 51.374 14.6447 50.1252C11.7024 48.8318 9.13902 47.0478 6.95457 44.7732C4.77012 42.454 3.05377 39.778 1.80551 36.7452C0.601838 33.7123 0 30.4342 0 26.9108C0 23.3874 0.601838 20.1316 1.80551 17.1434C3.05377 14.1106 4.77012 11.4569 6.95457 9.18226C9.13902 6.90765 11.7024 5.14594 14.6447 3.89714C17.587 2.60373 20.73 1.95703 24.0735 1.95703C28.3087 1.95703 32.1426 2.82674 35.5753 4.56614C39.0526 6.30555 41.9057 8.73626 44.1348 11.8583C46.3638 14.9803 47.7458 18.5929 48.2808 22.6961H37.5146C37.1579 20.3769 36.3332 18.3476 35.0403 16.6082C33.7921 14.8688 32.2318 13.5085 30.3594 12.5273C28.5316 11.5461 26.4809 11.0555 24.2073 11.0555C22.112 11.0555 20.2173 11.4346 18.5232 12.1928C16.8737 12.951 15.4249 14.0437 14.1766 15.4709C12.9729 16.8981 12.0368 18.5929 11.368 20.5553C10.7439 22.4731 10.4319 24.5916 10.4319 26.9108C10.4319 29.2746 10.7439 31.4377 11.368 33.4001C12.0368 35.318 12.9729 36.9905 14.1766 38.4177C15.4249 39.8449 16.8737 40.9599 18.5232 41.7627C20.2173 42.5209 22.112 42.9 24.2073 42.9C26.4809 42.9 28.5539 42.4094 30.4262 41.4282C32.2986 40.4024 33.8367 39.0198 35.0403 37.2804C36.2886 35.4964 37.1133 33.4671 37.5146 31.1924H48.2808C47.7012 35.3403 46.2969 38.9752 44.0679 42.0972C41.8389 45.2192 39.008 47.6499 35.5753 49.3893C32.1426 51.1287 28.3087 51.9984 24.0735 51.9984Z" fill="var(--fill-0, #FAFAFA)"/>
<path d="M62.5331 50.9949H53.2381V15.2702H62.5331V50.9949Z" fill="var(--fill-0, #FAFAFA)"/>
<path d="M78.7624 33.6678V50.9949H69.4673V15.2702H78.0268V22.1609C79.3642 19.8863 81.3035 18.1023 83.8446 16.8089C86.3857 15.5155 89.0828 14.8688 91.9359 14.8688V24.5024C89.3503 24.324 87.0544 24.4578 85.0482 24.9038C83.0867 25.3052 81.5487 26.2195 80.4341 27.6467C79.3196 29.0293 78.7624 31.0363 78.7624 33.6678Z" fill="var(--fill-0, #FAFAFA)"/>
<path d="M110.212 51.6639C106.779 51.6639 103.747 50.8834 101.117 49.3224C98.5314 47.7614 96.503 45.576 95.0318 42.7662C93.5607 39.9564 92.8251 36.7452 92.8251 33.1325C92.8251 29.5645 93.5607 26.3979 95.0318 23.6327C96.5476 20.8229 98.6206 18.6152 101.251 17.0096C103.881 15.404 106.868 14.6012 110.212 14.6012C113.288 14.6012 116.074 15.2702 118.57 16.6082C121.067 17.9016 123.095 19.7525 124.656 22.1609C126.216 24.5247 127.174 27.3122 127.531 30.5234H117.768C117.545 28.1596 116.743 26.2864 115.361 24.9038C114.023 23.5212 112.307 22.8299 110.212 22.8299C108.607 22.8299 107.202 23.2536 105.999 24.101C104.84 24.9484 103.926 26.1303 103.257 27.6467C102.633 29.1631 102.321 30.9917 102.321 33.1325C102.321 35.2288 102.633 37.0574 103.257 38.6184C103.926 40.1794 104.84 41.3836 105.999 42.231C107.202 43.0338 108.607 43.4352 110.212 43.4352C112.351 43.4352 114.068 42.7662 115.361 41.4282C116.698 40.0456 117.5 38.1501 117.768 35.7417H127.531C127.219 38.9975 126.283 41.8296 124.723 44.238C123.162 46.6018 121.156 48.4304 118.704 49.7238C116.252 51.0172 113.421 51.6639 110.212 51.6639Z" fill="var(--fill-0, #FAFAFA)"/>
<path d="M141.523 50.9949H132.161V2.96053L141.523 2.96053V50.9949Z" fill="var(--fill-0, #FAFAFA)"/>
<path d="M164.035 51.597C160.469 51.597 157.326 50.8388 154.606 49.3224C151.932 47.7614 149.859 45.576 148.387 42.7662C146.916 39.9564 146.181 36.7006 146.181 32.9987C146.181 29.4307 146.939 26.2641 148.454 23.4989C149.97 20.7337 152.065 18.5706 154.74 17.0096C157.415 15.404 160.469 14.6012 163.902 14.6012C166.71 14.6012 169.251 15.1364 171.525 16.2068C173.843 17.2326 175.782 18.7044 177.343 20.6222C178.903 22.54 180.017 24.77 180.686 27.3122C181.355 29.8098 181.466 32.5081 181.02 35.4072H151.664V29.5199H171.19C171.101 27.0223 170.366 25.0599 168.984 23.6327C167.646 22.1609 165.885 21.425 163.701 21.425C161.962 21.425 160.491 21.871 159.287 22.763C158.084 23.655 157.148 24.9707 156.479 26.7101C155.855 28.4049 155.543 30.5011 155.543 32.9987C155.543 35.4518 155.855 37.5257 156.479 39.2205C157.103 40.9153 158.039 42.2087 159.287 43.1007C160.536 43.9927 162.051 44.4387 163.835 44.4387C165.885 44.4387 167.579 43.9481 168.917 42.9669C170.254 41.9857 171.19 40.6254 171.725 38.886H180.954C179.928 42.9 177.944 46.022 175.002 48.252C172.06 50.482 168.404 51.597 164.035 51.597Z" fill="var(--fill-0, #FAFAFA)"/>
</g>
</g>
<path id="Circle._2" d="M63.9424 6.35552C63.9424 8.18413 63.3628 9.70054 62.2037 10.9047C61.0446 12.0643 59.5512 12.6441 57.7234 12.6441C55.8956 12.6441 54.3798 12.0643 53.1761 10.9047C52.017 9.70054 51.4375 8.18413 51.4375 6.35552C51.4375 4.48232 52.017 2.96591 53.1761 1.80631C54.3798 0.602104 55.8956 0 57.7234 0C59.5512 0 61.0446 0.602104 62.2037 1.80631C63.3628 2.96591 63.9424 4.48232 63.9424 6.35552Z" fill="var(--fill-0, white)"/>
</g>
</svg>
