<svg preserveAspectRatio="none" width="100%" height="100%" overflow="visible" style="display: block;" viewBox="0 0 32 32" fill="none" xmlns="http://www.w3.org/2000/svg">
<g id="Instagram icon">
<path id="vector" d="M16 5.61564C19.382 5.61564 19.7827 5.6283 21.1185 5.68933C21.9215 5.69903 22.7169 5.84665 23.4699 6.12576C24.0202 6.32883 24.5179 6.65267 24.9265 7.07346C25.3473 7.48209 25.6712 7.97984 25.8742 8.53012C26.1533 9.28313 26.301 10.0785 26.3107 10.8815C26.3717 12.2173 26.3844 12.618 26.3844 16C26.3844 19.382 26.3717 19.7827 26.3107 21.1185C26.301 21.9215 26.1533 22.7169 25.8742 23.4699C25.6635 24.0163 25.3407 24.5125 24.9266 24.9266C24.5125 25.3407 24.0163 25.6635 23.4699 25.8742C22.7169 26.1533 21.9215 26.301 21.1185 26.3107C19.7827 26.3717 19.382 26.3844 16 26.3844C12.618 26.3844 12.2173 26.3717 10.8815 26.3107C10.0781 26.3011 9.28234 26.1535 8.52897 25.8742C7.97911 25.671 7.48175 25.3472 7.07346 24.9265C6.65267 24.5179 6.32883 24.0202 6.12576 23.4699C5.84665 22.7169 5.69903 21.9215 5.68933 21.1185C5.6283 19.7827 5.61564 19.382 5.61564 16C5.61564 12.618 5.6283 12.2173 5.68933 10.8815C5.69903 10.0785 5.84665 9.28313 6.12576 8.53012C6.32883 7.97984 6.65267 7.48209 7.07346 7.07346C7.48209 6.65267 7.97984 6.32883 8.53012 6.12576C9.28313 5.84665 10.0785 5.69903 10.8815 5.68933C12.2173 5.6283 12.618 5.61564 16 5.61564ZM16 3.33333C12.5604 3.33333 12.1286 3.3483 10.7779 3.40933C9.72714 3.4303 8.68756 3.62926 7.70333 3.99776C6.85774 4.31613 6.09181 4.81522 5.45903 5.46018C4.81462 6.09274 4.31594 6.85825 3.99776 7.70333C3.62965 8.68763 3.43108 9.72721 3.41049 10.7779C3.34715 12.1286 3.33333 12.5604 3.33333 16C3.33333 19.4396 3.3483 19.8714 3.40933 21.2221C3.4303 22.2729 3.62926 23.3124 3.99776 24.2967C4.31613 25.1423 4.81522 25.9082 5.46018 26.541C6.09274 27.1854 6.85825 27.6841 7.70333 28.0022C8.68763 28.3704 9.72721 28.5689 10.7779 28.5895C12.1286 28.6528 12.5604 28.6667 16 28.6667C19.4396 28.6667 19.8714 28.6517 21.2221 28.5907C22.2729 28.5697 23.3124 28.3707 24.2967 28.0022C25.1384 27.6768 25.9028 27.1791 26.5409 26.5409C27.1791 25.9028 27.6768 25.1384 28.0022 24.2967C28.3704 23.3124 28.5689 22.2728 28.5895 21.2221C28.6528 19.8714 28.6667 19.4396 28.6667 16C28.6667 12.5604 28.6517 12.1286 28.5907 10.7779C28.5697 9.72714 28.3707 8.68756 28.0022 7.70333C27.6839 6.85774 27.1848 6.09181 26.5398 5.45903C25.9073 4.81462 25.1417 4.31594 24.2967 3.99776C23.3124 3.62965 22.2728 3.43108 21.2221 3.41049C19.8714 3.34715 19.4396 3.33333 16 3.33333ZM16 9.49509C14.7135 9.49509 13.4558 9.8766 12.3861 10.5914C11.3163 11.3061 10.4826 12.3221 9.99025 13.5107C9.49791 14.6993 9.36909 16.0072 9.62008 17.269C9.87107 18.5309 10.4906 19.6899 11.4003 20.5997C12.3101 21.5094 13.4691 22.1289 14.731 22.3799C15.9928 22.6309 17.3007 22.5021 18.4893 22.0098C19.6779 21.5174 20.6939 20.6837 21.4086 19.6139C22.1234 18.5442 22.5049 17.2866 22.5049 16C22.5049 14.2748 21.8196 12.6202 20.5997 11.4003C19.3798 10.1804 17.7252 9.49509 16 9.49509ZM16 20.2226C15.1648 20.2226 14.3485 19.975 13.654 19.511C12.9596 19.047 12.4184 18.3875 12.0988 17.6159C11.7792 16.8443 11.6956 15.9953 11.8585 15.1762C12.0215 14.3571 12.4236 13.6047 13.0142 13.0142C13.6047 12.4236 14.3571 12.0215 15.1762 11.8585C15.9953 11.6956 16.8443 11.7792 17.6159 12.0988C18.3875 12.4184 19.047 12.9596 19.511 13.654C19.975 14.3485 20.2226 15.1648 20.2226 16C20.2226 17.1199 19.7777 18.1939 18.9858 18.9858C18.1939 19.7777 17.1199 20.2226 16 20.2226ZM22.7617 7.7183C22.4611 7.7183 22.1672 7.80745 21.9172 7.97447C21.6673 8.14149 21.4724 8.37888 21.3574 8.65662C21.2424 8.93437 21.2123 9.23999 21.2709 9.53484C21.3296 9.82969 21.4743 10.1005 21.6869 10.3131C21.8995 10.5257 22.1703 10.6704 22.4652 10.7291C22.76 10.7877 23.0656 10.7576 23.3434 10.6426C23.6211 10.5276 23.8585 10.3327 24.0255 10.0828C24.1926 9.83281 24.2817 9.53893 24.2817 9.2383C24.2817 8.83517 24.1216 8.44856 23.8365 8.1635C23.5514 7.87845 23.1648 7.7183 22.7617 7.7183Z" fill="var(--fill-0, white)"/>
</g>
</svg>
