<svg preserveAspectRatio="none" width="100%" height="100%" overflow="visible" style="display: block;" viewBox="0 0 16.001 16.001" fill="none" xmlns="http://www.w3.org/2000/svg">
<g id="united states" clip-path="url(#clip0_0_78)">
<path id="Vector" d="M8.00049 16.001C12.419 16.001 16.001 12.419 16.001 8.00049C16.001 3.58194 12.419 0 8.00049 0C3.58194 0 0 3.58194 0 8.00049C0 12.419 3.58194 16.001 8.00049 16.001Z" fill="var(--fill-0, #F0F0F0)"/>
<g id="Group">
<path id="Vector_2" d="M7.65261 8.00054H16.0009C16.0009 7.27843 15.9047 6.57889 15.7253 5.91344H7.65261V8.00054Z" fill="var(--fill-0, #D80027)"/>
<path id="Vector_3" d="M7.65261 3.8264H14.8267C14.3369 3.02723 13.7107 2.32084 12.9806 1.73931H7.65261V3.8264Z" fill="var(--fill-0, #D80027)"/>
<path id="Vector_4" d="M8.00045 16.001C9.88335 16.001 11.614 15.3502 12.9806 14.2617H3.02027C4.38692 15.3502 6.11756 16.001 8.00045 16.001Z" fill="var(--fill-0, #D80027)"/>
<path id="Vector_5" d="M1.17422 12.1747H14.8267C15.2199 11.5331 15.5248 10.8318 15.7253 10.0876H0.275574C0.476118 10.8318 0.781043 11.5331 1.17422 12.1747V12.1747Z" fill="var(--fill-0, #D80027)"/>
</g>
<path id="Vector_6" d="M3.70598 1.24939H4.43505L3.75689 1.74208L4.01593 2.53928L3.3378 2.04659L2.65966 2.53928L2.88343 1.85058C2.28633 2.34796 1.76298 2.93068 1.33171 3.57997H1.56531L1.13363 3.89358C1.06638 4.00578 1.00187 4.11975 0.940057 4.23541L1.14619 4.86986L0.761609 4.59044C0.666009 4.79298 0.578567 5.00009 0.499968 5.21151L0.727076 5.91055H1.56531L0.887148 6.40323L1.14619 7.20044L0.46806 6.70775L0.0618475 7.0029C0.0211888 7.32973 0 7.66262 0 8.00049H8.00049C8.00049 3.58197 8.00049 3.06106 8.00049 0C6.42002 0 4.94671 0.458465 3.70598 1.24939V1.24939ZM4.01593 7.20044L3.3378 6.70775L2.65966 7.20044L2.91871 6.40323L2.24054 5.91055H3.07878L3.3378 5.11334L3.59681 5.91055H4.43505L3.75689 6.40323L4.01593 7.20044ZM3.75689 4.07265L4.01593 4.86986L3.3378 4.37717L2.65966 4.86986L2.91871 4.07265L2.24054 3.57997H3.07878L3.3378 2.78276L3.59681 3.57997H4.43505L3.75689 4.07265ZM6.88567 7.20044L6.20754 6.70775L5.5294 7.20044L5.78845 6.40323L5.11028 5.91055H5.94852L6.20754 5.11334L6.46655 5.91055H7.30479L6.62662 6.40323L6.88567 7.20044ZM6.62662 4.07265L6.88567 4.86986L6.20754 4.37717L5.5294 4.86986L5.78845 4.07265L5.11028 3.57997H5.94852L6.20754 2.78276L6.46655 3.57997H7.30479L6.62662 4.07265ZM6.62662 1.74208L6.88567 2.53928L6.20754 2.04659L5.5294 2.53928L5.78845 1.74208L5.11028 1.24939H5.94852L6.20754 0.452184L6.46655 1.24939H7.30479L6.62662 1.74208Z" fill="var(--fill-0, #0052B4)"/>
</g>
<defs>
<clipPath id="clip0_0_78">
<rect width="16.001" height="16.001" fill="white"/>
</clipPath>
</defs>
</svg>
