<svg preserveAspectRatio="none" width="100%" height="100%" overflow="visible" style="display: block;" viewBox="0 0 32 32" fill="none" xmlns="http://www.w3.org/2000/svg">
<g id="Youtube icon">
<path id="vector" fill-rule="evenodd" clip-rule="evenodd" d="M26.939 5.34368C28.1445 5.71684 29.0919 6.81233 29.4145 8.20634C29.9976 10.7305 30 16 30 16C30 16 30 21.2695 29.4145 23.7937C29.0919 25.1877 28.1445 26.2832 26.939 26.6563C24.7564 27.3333 16 27.3333 16 27.3333C16 27.3333 7.24366 27.3333 5.06091 26.6563C3.85545 26.2832 2.90813 25.1877 2.58545 23.7937C2 21.2695 2 16 2 16C2 16 2 10.7305 2.58545 8.20634C2.90813 6.81233 3.85545 5.71684 5.06091 5.34368C7.24366 4.66667 16 4.66667 16 4.66667C16 4.66667 24.7564 4.66667 26.939 5.34368ZM20.6845 16.0004L13.0638 20.3999V11.6009L20.6845 16.0004Z" fill="var(--fill-0, white)"/>
</g>
</svg>
