<svg xmlns="http://www.w3.org/2000/svg" viewBox="0 0 24 24" width="24" height="24" fill="none"><path fill="currentColor" d="M20.5 5.497a.25.25 0 0 0-.305-.243l-7.445 1.659v12.9l7.555-1.683a.25.25 0 0 0 .195-.244zm-17 12.389a.25.25 0 0 0 .195.244l7.555 1.683v-12.9l-7.445-1.66a.25.25 0 0 0-.305.244zm18.5 0c0 .82-.57 1.53-1.37 1.708l-8.467 1.887a.75.75 0 0 1-.326 0l-8.468-1.887a1.75 1.75 0 0 1-1.369-1.708v-12.389a1.75 1.75 0 0 1 2.13-1.708l7.87 1.754 7.87-1.754a1.75 1.75 0 0 1 2.13 1.708z"></path></svg>