<svg xmlns="http://www.w3.org/2000/svg" viewBox="0 0 24 24" width="24" height="24" fill="none"><path fill="currentColor" d="M19.25 2a.75.75 0 0 1 .75.75v16a.75.75 0 0 1-.75.75h-13.5a.25.25 0 0 0-.25.25v.5c0 .138.112.25.25.25h13.5a.75.75 0 0 1 0 1.5h-13.5a1.75 1.75 0 0 1-1.75-1.75v-16.5c0-.966.784-1.75 1.75-1.75zm-7.25 9.5c1.308 0 2.116.447 2.568 1.05a2.2 2.2 0 0 1 .423 1.055q.006.054.007.09l.002.032v.022l-.75.001.75-.001a.75.75 0 0 1-.75.751h-4.5a.75.75 0 0 1-.75-.75h.75-.75v-.023l.002-.032q.001-.036.007-.09a2.2 2.2 0 0 1 .423-1.056c.452-.602 1.26-1.049 2.568-1.049m0-4a1.75 1.75 0 1 1 0 3.5 1.75 1.75 0 0 1 0-3.5m-6.5 10.52q.123-.019.25-.02h12.75v-14.5h-12.75a.25.25 0 0 0-.25.25z"></path></svg>