<svg xmlns="http://www.w3.org/2000/svg" viewBox="0 0 24 24" width="24" height="24" fill="none"><path fill="currentColor" fill-rule="evenodd" d="M4 3.75c0-.966.784-1.75 1.75-1.75h13.5a.75.75 0 0 1 .75.75v16a.75.75 0 0 1-.75.75h-13.5a.25.25 0 0 0-.25.25v.5c0 .138.112.25.25.25h13.5a.75.75 0 0 1 0 1.5h-13.5a1.75 1.75 0 0 1-1.75-1.75zm6.25 5.5a1.75 1.75 0 1 1 3.5 0 1.75 1.75 0 0 1-3.5 0m4 5.25h-4.5c-.238 0-1.355-.569-.319-1.95.452-.603 1.261-1.05 2.569-1.05s2.117.447 2.569 1.05c1.035 1.381-.081 1.95-.319 1.95" clip-rule="evenodd"></path></svg>