<svg xmlns="http://www.w3.org/2000/svg" viewBox="0 0 24 24" width="24" height="24" fill="none"><path fill="currentColor" d="M3.5 7a4 4 0 1 1 8 0 4 4 0 0 1-8 0m12.458 11.827c-.388-2.442-1.392-4.43-2.774-5.851a6.4 6.4 0 0 1 3.384-.976c3.243 0 6.32 2.476 7.048 7.063.17 1.07-.694 1.937-1.692 1.937h-6.406c.385-.602.57-1.35.44-2.173m.542-15.827a4 4 0 1 0 0 8 4 4 0 0 0 0-8m-9.071 9c3.243 0 6.319 2.476 7.048 7.063.17 1.07-.695 1.937-1.693 1.937h-10.71c-.999 0-1.863-.867-1.693-1.937.729-4.587 3.805-7.063 7.048-7.063"></path></svg>