<svg xmlns="http://www.w3.org/2000/svg" viewBox="0 0 24 24" width="24" height="24" fill="none"><path fill="currentColor" d="M12.317 3.07a.75.75 0 0 0-.634 0l-11.25 5.257a.751.751 0 0 0 0 1.361l11.25 5.256a.75.75 0 0 0 .634 0l10.183-4.757v5.078a.75.75 0 1 0 1.5 0v-6.258a.75.75 0 0 0-.433-.68z"></path><path fill="currentColor" fill-rule="evenodd" d="M4.5 12.742v3.512c0 .654.363 1.253.943 1.555l5.75 2.993a1.75 1.75 0 0 0 1.614 0l5.75-2.993c.58-.302.943-.901.943-1.555v-3.512l-7.042 3.63a1 1 0 0 1-.916 0z" clip-rule="evenodd"></path></svg>