<svg xmlns="http://www.w3.org/2000/svg" viewBox="0 0 24 24" width="24" height="24" fill="none"><path fill="currentColor" d="M7.428 12c3.243 0 6.319 2.475 7.048 7.063.17 1.07-.695 1.937-1.693 1.937h-10.71c-.999 0-1.863-.868-1.693-1.937.729-4.587 3.805-7.063 7.048-7.063m6.709.487c1.907-.792 4.063-.617 5.854.513 1.796 1.133 3.172 3.187 3.628 6.065.17 1.073-.698 1.935-1.692 1.935h-5.178a.75.75 0 0 1 0-1.5h5.178a.23.23 0 0 0 .172-.072.15.15 0 0 0 .04-.093l-.001-.034c-.4-2.52-1.57-4.164-2.947-5.032a4.85 4.85 0 0 0-4.48-.396.75.75 0 0 1-.574-1.386m-6.71 1.013c-2.382 0-4.932 1.812-5.566 5.798a.15.15 0 0 0 .04.13.23.23 0 0 0 .171.072h10.711c.073 0 .133-.03.171-.072a.15.15 0 0 0 .04-.13c-.633-3.987-3.183-5.798-5.566-5.798m2.572-6.5a2.5 2.5 0 1 0-5 0 2.5 2.5 0 0 0 5 0m9 0a2.5 2.5 0 1 0-5 0 2.5 2.5 0 0 0 5 0m-7.5 0a4 4 0 1 1-8 0 4 4 0 0 1 8 0m9 0a4 4 0 1 1-8 0 4 4 0 0 1 8 0"></path></svg>