<svg xmlns="http://www.w3.org/2000/svg" viewBox="0 0 24 24" width="24" height="24" fill="none"><path fill="currentColor" d="m18.5 12.044-6.183 2.886a.75.75 0 0 1-.634 0l-6.183-2.886v3.986c0 .094.052.18.136.223l6.25 3.215.055.02a.25.25 0 0 0 .173-.02l6.25-3.215a.25.25 0 0 0 .136-.223zm-15.977-3.044 9.477 4.422 9.476-4.422-9.476-4.423zm21.477 6.25a.75.75 0 0 1-1.5 0v-5.072l-2.5 1.166v4.686a1.75 1.75 0 0 1-.95 1.557l-6.25 3.215a1.75 1.75 0 0 1-1.6 0l-6.25-3.215a1.75 1.75 0 0 1-.95-1.557v-4.686l-3.567-1.664a.75.75 0 0 1 0-1.36l11.25-5.25.077-.03a.75.75 0 0 1 .557.03l11.25 5.25a.75.75 0 0 1 .433.68z"></path></svg>