<svg xmlns="http://www.w3.org/2000/svg" viewBox="0 0 24 24" width="24" height="24" fill="none"><path fill="currentColor" d="M13.8 12a1.8 1.8 0 1 1-3.6 0 1.8 1.8 0 0 1 3.6 0m-11.8.001a9.97 9.97 0 0 1 2.929-7.071.75.75 0 0 1 1.06 1.06 8.47 8.47 0 0 0-2.489 6.011c0 2.347.95 4.471 2.49 6.01a.75.75 0 1 1-1.061 1.06 9.97 9.97 0 0 1-2.929-7.07m18.5 0c0-2.347-.95-4.472-2.49-6.01a.75.75 0 1 1 1.061-1.061 9.97 9.97 0 0 1 2.929 7.071 9.97 9.97 0 0 1-2.929 7.07.75.75 0 1 1-1.06-1.06 8.47 8.47 0 0 0 2.489-6.01m-14.389 0c0-1.626.66-3.1 1.725-4.164a.75.75 0 1 1 1.06 1.06 4.37 4.37 0 0 0-1.285 3.104c0 1.212.49 2.309 1.285 3.104a.75.75 0 0 1-1.06 1.06 5.87 5.87 0 0 1-1.725-4.164m10.278 0c0-1.212-.49-2.308-1.285-3.103a.75.75 0 0 1 1.06-1.061 5.87 5.87 0 0 1 1.725 4.164c0 1.626-.66 3.1-1.725 4.164a.75.75 0 0 1-1.06-1.06 4.37 4.37 0 0 0 1.285-3.104"></path></svg>