<svg xmlns="http://www.w3.org/2000/svg" viewBox="0 0 24 24" width="24" height="24" fill="none"><path fill="currentColor" d="M20.496 11a2.25 2.25 0 0 0-1.5-2.12v4.238a2.25 2.25 0 0 0 1.5-2.118m-13 6.25a2.25 2.25 0 0 0 4.349.808l-4.349-1.343zm10-13.144a.25.25 0 0 0-.323-.24l-9.675 2.987v8.293l9.674 2.988a.25.25 0 0 0 .324-.24zm-14 9.62.013.08a.25.25 0 0 0 .163.159l2.326.718v-7.367l-2.326.718a.25.25 0 0 0-.176.24zm15.5-6.402a3.752 3.752 0 0 1 0 7.351v3.22a1.75 1.75 0 0 1-2.266 1.672l-3.449-1.066a3.75 3.75 0 0 1-7.285-1.25v-.999l-2.767-.853a1.75 1.75 0 0 1-1.227-1.53l-.006-.142v-5.453c0-.768.5-1.446 1.233-1.672l3.068-.948a.74.74 0 0 1 .451-.154l.041.002 9.94-3.07a1.75 1.75 0 0 1 2.267 1.674z"></path></svg>