<svg xmlns="http://www.w3.org/2000/svg" viewBox="0 0 24 24" width="24" height="24" fill="none"><path fill="currentColor" d="M12 1.75a3.5 3.5 0 0 0-3.452 2.922 9.03 9.03 0 0 0-5.11 5.508.75.75 0 0 0 1.425.469 7.53 7.53 0 0 1 3.789-4.377 3.502 3.502 0 0 0 6.848-1.022 3.5 3.5 0 0 0-3.5-3.5m6.786 5.33a.75.75 0 0 0-1.13.986 7.47 7.47 0 0 1 1.802 5.725 3.5 3.5 0 1 0 1.439.57 9 9 0 0 0 .103-1.367 8.97 8.97 0 0 0-2.214-5.913m-10.685 8.419a3.5 3.5 0 1 0-1.348 4.818 8.97 8.97 0 0 0 5.242 1.682 9 9 0 0 0 1.687-.158.75.75 0 1 0-.28-1.474 7.6 7.6 0 0 1-1.407.132 7.47 7.47 0 0 1-4.083-1.206 3.5 3.5 0 0 0 .19-3.794"></path></svg>