<svg xmlns="http://www.w3.org/2000/svg" viewBox="0 0 24 24" width="24" height="24" fill="none"><path fill="currentColor" d="M3.32 14.22a3.5 3.5 0 0 1 4.591 5.072 7.47 7.47 0 0 0 4.082 1.208 7.5 7.5 0 0 0 1.407-.132.75.75 0 0 1 .28 1.474 9 9 0 0 1-1.687.158 8.97 8.97 0 0 1-5.241-1.683 3.498 3.498 0 0 1-3.432-6.097m16.178-1.226a7.47 7.47 0 0 0-1.844-4.928.75.75 0 1 1 1.131-.985 8.97 8.97 0 0 1 2.108 7.28 3.499 3.499 0 1 1-1.438-.57 8 8 0 0 0 .043-.797m-12.696 3.256a2 2 0 1 0-3.463 2 2 2 0 0 0 3.463-2m13.12-.731a2 2 0 1 0-2 3.463 2 2 0 0 0 2-3.463m-5.922-10.269a2 2 0 1 0-4 0 2 2 0 0 0 4 0m1.5 0a3.5 3.5 0 0 1-6.849 1.023 7.53 7.53 0 0 0-3.79 4.375.75.75 0 0 1-1.425-.467 9.03 9.03 0 0 1 5.11-5.506 3.501 3.501 0 0 1 6.954.575"></path></svg>