<svg xmlns="http://www.w3.org/2000/svg" viewBox="0 0 24 24" width="24" height="24" fill="none"><path fill="currentColor" d="M11.25 5c.26 0 .494.16.588.403l1.554 4.04c.294.766.899 1.37 1.664 1.665l4.04 1.554a.63.63 0 0 1 0 1.176l-4.04 1.554a2.9 2.9 0 0 0-1.664 1.664l-1.554 4.04a.63.63 0 0 1-1.176 0l-1.554-4.04a2.9 2.9 0 0 0-1.664-1.664l-4.04-1.554a.63.63 0 0 1 0-1.176l4.04-1.554a2.9 2.9 0 0 0 1.664-1.664l1.554-4.04a.63.63 0 0 1 .588-.404m11.371-.977c-1.742-.428-2.216-.902-2.644-2.644a.494.494 0 0 0-.477-.379.494.494 0 0 0-.477.379c-.428 1.742-.902 2.216-2.644 2.644a.494.494 0 0 0-.379.477c0 .227.158.423.379.477 1.742.428 2.216.902 2.644 2.644.054.22.25.379.477.379a.494.494 0 0 0 .477-.379c.428-1.742.902-2.216 2.644-2.644a.494.494 0 0 0 .379-.477.494.494 0 0 0-.379-.477"></path></svg>