<svg xmlns="http://www.w3.org/2000/svg" viewBox="0 0 24 24" width="24" height="24" fill="none"><path fill="currentColor" d="M9.809 9.713a3.65 3.65 0 0 1-2.096 2.096l-3.748 1.441 3.748 1.441a3.65 3.65 0 0 1 2.096 2.096l1.441 3.747 1.441-3.747a3.65 3.65 0 0 1 2.096-2.096l3.747-1.441-3.747-1.441a3.65 3.65 0 0 1-2.096-2.096l-1.441-3.748zm10.441 3.537a1.38 1.38 0 0 1-.786 1.246l-.098.042-4.04 1.554a2.14 2.14 0 0 0-1.141 1.026l-.093.207-1.554 4.041a1.38 1.38 0 0 1-2.534.098l-.042-.098-1.554-4.04a2.14 2.14 0 0 0-1.026-1.141l-.207-.093-4.041-1.554a1.38 1.38 0 0 1 0-2.576l4.04-1.554a2.15 2.15 0 0 0 1.234-1.233l1.554-4.041.042-.098a1.38 1.38 0 0 1 2.492 0l.042.098 1.554 4.04.093.208c.24.468.644.835 1.14 1.026l4.041 1.554.098.042c.478.227.786.711.786 1.246m2.371-9.227c-1.742-.428-2.216-.902-2.644-2.644a.494.494 0 0 0-.477-.379.494.494 0 0 0-.477.379c-.428 1.742-.902 2.216-2.644 2.644a.494.494 0 0 0-.379.477c0 .227.158.423.379.477 1.742.428 2.216.902 2.644 2.644.054.22.25.379.477.379a.494.494 0 0 0 .477-.379c.428-1.742.902-2.216 2.644-2.644a.494.494 0 0 0 .379-.477.494.494 0 0 0-.379-.477"></path></svg>