<svg xmlns="http://www.w3.org/2000/svg" viewBox="0 0 24 24" width="24" height="24" fill="none"><path fill="currentColor" d="M18.5 15.953c-.337.19-.716.356-1.123.5-1.412.5-3.313.796-5.377.796s-3.965-.296-5.377-.796a7 7 0 0 1-1.123-.5v2.728c0 .046.025.192.302.424.273.23.713.47 1.322.685 1.212.43 2.936.71 4.876.71s3.664-.28 4.876-.71c.61-.216 1.05-.456 1.322-.684.277-.233.302-.38.302-.425zm0-4.25c-.337.19-.716.356-1.123.5-1.412.5-3.313.796-5.377.796s-3.965-.296-5.377-.796a7 7 0 0 1-1.123-.5v2.227c0 .046.025.192.302.425.273.228.713.469 1.322.685 1.212.43 2.936.709 4.876.709s3.664-.28 4.876-.709c.61-.216 1.05-.456 1.322-.684.277-.233.302-.38.302-.426zm0-4.36a7 7 0 0 1-1.123.5c-1.412.5-3.313.796-5.377.796s-3.965-.296-5.377-.796a7 7 0 0 1-1.123-.5v2.337c0 .046.025.192.302.425.273.228.713.469 1.322.685 1.212.43 2.936.709 4.876.709s3.664-.28 4.876-.709c.61-.216 1.05-.457 1.322-.685.277-.233.302-.38.302-.425zm0-2.024c0-.046-.025-.192-.302-.424-.273-.23-.713-.469-1.322-.685-1.212-.43-2.936-.71-4.876-.71s-3.664.28-4.876.71c-.61.216-1.05.456-1.322.685-.277.232-.302.378-.302.424s.025.194.302.426c.273.229.713.469 1.322.685 1.212.43 2.936.709 4.876.709s3.664-.28 4.876-.71c.61-.215 1.05-.455 1.322-.684.277-.232.302-.38.302-.426m1.5 13.362c0 .663-.381 1.192-.838 1.575-.46.386-1.083.7-1.785.948-1.412.5-3.313.796-5.377.796s-3.965-.296-5.377-.796c-.702-.249-1.325-.562-1.785-.948-.457-.383-.838-.912-.838-1.575v-13.362c0-.663.381-1.192.838-1.575.46-.386 1.083-.7 1.785-.948 1.412-.5 3.313-.796 5.377-.796s3.965.296 5.377.796c.702.249 1.325.562 1.785.948.457.383.838.912.838 1.575z"></path></svg>