<svg xmlns="http://www.w3.org/2000/svg" viewBox="0 0 24 24" width="24" height="24" fill="none"><path fill="currentColor" fill-rule="evenodd" d="M18.44 12.05c.58-.21 1.11-.45 1.56-.73v2.08c0 .12-.07.34-.42.63s-.9.59-1.64.85c-1.48.53-3.58.87-5.94.87s-4.45-.34-5.94-.87c-.75-.26-1.29-.56-1.64-.85-.35-.3-.42-.51-.42-.63v-2.08c.45.28.98.52 1.56.73 1.68.6 3.96.95 6.44.95s4.75-.35 6.44-.95m-6.44 5.2c-2.48 0-4.75-.35-6.44-.95-.58-.21-1.11-.45-1.56-.73v3.11c0 .66.38 1.19.84 1.58s1.08.7 1.78.95c1.41.5 3.31.8 5.38.8s3.97-.3 5.38-.8c.7-.25 1.32-.56 1.78-.95.46-.38.84-.91.84-1.58v-3.11c-.45.28-.98.52-1.56.73-1.68.6-3.96.95-6.44.95m8-11.93v3.83c0 .12-.07.34-.42.63s-.9.59-1.64.85c-1.48.53-3.58.87-5.94.87s-4.45-.34-5.94-.87c-.75-.26-1.29-.56-1.64-.85-.35-.3-.42-.51-.42-.63v-3.83c0-.66.38-1.19.84-1.58s1.08-.7 1.78-.95c1.41-.5 3.31-.8 5.38-.8s3.97.3 5.38.8c.7.25 1.32.56 1.78.95.46.38.84.91.84 1.58m-14.5 0s.02.19.3.43c.27.23.71.47 1.32.68 1.21.43 2.94.71 4.88.71s3.66-.28 4.88-.71c.61-.22 1.05-.46 1.32-.68.28-.23.3-.38.3-.43s-.02-.19-.3-.43c-.27-.23-.71-.47-1.32-.68-1.21-.43-2.94-.71-4.88-.71s-3.66.28-4.88.71c-.61.22-1.05.46-1.32.68-.28.23-.3.38-.3.43" clip-rule="evenodd"></path></svg>