<svg xmlns="http://www.w3.org/2000/svg" viewBox="0 0 24 24" width="24" height="24" fill="none"><path fill="currentColor" d="M20.5 5.75a.25.25 0 0 0-.25-.25h-16.5a.25.25 0 0 0-.25.25v2.976c2.749 1.229 2.748 5.318 0 6.547v2.977c0 .138.112.25.25.25h16.5a.25.25 0 0 0 .25-.25v-2.977c-2.748-1.229-2.749-5.318 0-6.547zm-6 10.5v-.5a.75.75 0 0 1 1.5 0v.5a.75.75 0 0 1-1.5 0m0-4v-.5a.75.75 0 0 1 1.5 0v.5a.75.75 0 0 1-1.5 0m0-4v-.5a.75.75 0 0 1 1.5 0v.5a.75.75 0 0 1-1.5 0m7.5 1a.75.75 0 0 1-.553.724c-2.013.549-2.013 3.503 0 4.052a.75.75 0 0 1 .553.724v3.5a1.75 1.75 0 0 1-1.75 1.75h-16.5a1.75 1.75 0 0 1-1.75-1.75v-3.5l.01-.125a.75.75 0 0 1 .543-.599c2.013-.549 2.013-3.503 0-4.052a.75.75 0 0 1-.553-.724v-3.5c0-.966.784-1.75 1.75-1.75h16.5c.966 0 1.75.784 1.75 1.75z"></path></svg>