<svg xmlns="http://www.w3.org/2000/svg" viewBox="0 0 24 24" width="24" height="24" fill="none"><path fill="currentColor" fill-rule="evenodd" d="M2 5.75c0-.966.784-1.75 1.75-1.75h16.5c.966 0 1.75.784 1.75 1.75v3.5a.75.75 0 0 1-.553.724c-2.013.549-2.013 3.503 0 4.052a.75.75 0 0 1 .553.724v3.5a1.75 1.75 0 0 1-1.75 1.75h-16.5a1.75 1.75 0 0 1-1.75-1.75v-3.5a.75.75 0 0 1 .553-.724c2.013-.549 2.013-3.503 0-4.052a.75.75 0 0 1-.553-.724zm13.25 1.25a.75.75 0 0 1 .75.75v.5a.75.75 0 0 1-1.5 0v-.5a.75.75 0 0 1 .75-.75m0 4a.75.75 0 0 1 .75.75v.5a.75.75 0 0 1-1.5 0v-.5a.75.75 0 0 1 .75-.75m0 4a.75.75 0 0 1 .75.75v.5a.75.75 0 0 1-1.5 0v-.5a.75.75 0 0 1 .75-.75" clip-rule="evenodd"></path></svg>