<svg xmlns="http://www.w3.org/2000/svg" viewBox="0 0 24 24" width="24" height="24" fill="none"><path fill="currentColor" d="M16 10.463v3.073l4.5 2.25v-7.573zm-1.5-4.713a.25.25 0 0 0-.25-.25h-10.5a.25.25 0 0 0-.25.25v12.5c0 .138.112.25.25.25h10.5a.25.25 0 0 0 .25-.25zm1.5 3.036 4.191-2.095a1.25 1.25 0 0 1 1.809 1.118v8.382a1.25 1.25 0 0 1-1.809 1.118l-4.191-2.096v3.037a1.75 1.75 0 0 1-1.75 1.75h-10.5a1.75 1.75 0 0 1-1.75-1.75v-12.5c0-.967.784-1.75 1.75-1.75h10.5c.966 0 1.75.784 1.75 1.75z"></path></svg>