<svg xmlns="http://www.w3.org/2000/svg" viewBox="0 0 24 24" width="24" height="24" fill="none"><path fill="currentColor" d="M5.75 7a.75.75 0 1 0 0 1.5.75.75 0 0 0 0-1.5m1.75.75a.75.75 0 1 1 1.5 0 .75.75 0 0 1-1.5 0m3.25-.75a.75.75 0 1 0 0 1.5.75.75 0 0 0 0-1.5"></path><path fill="currentColor" fill-rule="evenodd" d="M2 5.75c0-.966.784-1.75 1.75-1.75h16.5c.966 0 1.75.784 1.75 1.75v12.5a1.75 1.75 0 0 1-1.75 1.75h-16.5a1.75 1.75 0 0 1-1.75-1.75zm18.5 0v4.25h-17v-4.25a.25.25 0 0 1 .25-.25h16.5a.25.25 0 0 1 .25.25" clip-rule="evenodd"></path></svg>