<svg xmlns="http://www.w3.org/2000/svg" viewBox="0 0 24 24" width="24" height="24" fill="none"><path fill="currentColor" d="M20.5 11.5h-17v6.75c0 .138.112.25.25.25h16.5a.25.25 0 0 0 .25-.25zm0-5.75a.25.25 0 0 0-.25-.25h-16.5a.25.25 0 0 0-.25.25v4.25h17zm1.5 12.5a1.75 1.75 0 0 1-1.75 1.75h-16.5a1.75 1.75 0 0 1-1.75-1.75v-12.5c0-.967.784-1.75 1.75-1.75h16.5c.966 0 1.75.784 1.75 1.75z"></path><path fill="currentColor" d="M5.75 8.375a.625.625 0 1 0 0-1.25.625.625 0 0 0 0 1.25m2.5 0a.625.625 0 1 0 0-1.25.625.625 0 0 0 0 1.25m2.5 0a.625.625 0 1 0 0-1.25.625.625 0 0 0 0 1.25"></path><path fill="currentColor" d="M6.25 7.75a.5.5 0 1 0-1 0 .5.5 0 0 0 1 0m2.5 0a.5.5 0 1 0-1 0 .5.5 0 0 0 1 0m2.5 0a.5.5 0 1 0-1 0 .5.5 0 0 0 1 0m-4.75 0a.75.75 0 1 1-1.5 0 .75.75 0 0 1 1.5 0m2.5 0a.75.75 0 1 1-1.5 0 .75.75 0 0 1 1.5 0m2.5 0a.75.75 0 1 1-1.5 0 .75.75 0 0 1 1.5 0"></path></svg>