<svg preserveAspectRatio="none" width="100%" height="100%" overflow="visible" style="display: block;" viewBox="0 0 128 30" fill="none" xmlns="http://www.w3.org/2000/svg">
<g id="Logo Ali Abdaal">
<path id="Shape" fill-rule="evenodd" clip-rule="evenodd" d="M7.94809 26.9999C7.80052 26.9964 7.58802 26.9542 7.47587 26.906C7.36373 26.8578 7.24484 26.7029 7.21167 26.5618C7.16611 26.368 7.27521 26.0251 7.65781 25.1599C7.93636 24.53 8.37399 23.485 8.63032 22.8376C8.88666 22.1903 9.36879 20.9103 9.70173 19.9933C10.0347 19.0762 10.3298 18.2091 10.3577 18.0665C10.4051 17.8236 10.3799 17.8006 9.96248 17.7054C9.71728 17.6495 8.75206 17.4475 7.81754 17.2565C6.88303 17.0655 5.41581 16.7733 4.55707 16.6072C3.69832 16.4411 2.83597 16.2603 2.64074 16.2053C2.4455 16.1504 2.18719 16.0002 2.06671 15.8715C1.90869 15.7027 1.84766 15.528 1.84766 15.2442C1.84766 14.9444 1.91519 14.7687 2.13171 14.5053C2.29318 14.3089 2.56071 14.1179 2.75166 14.0626C2.9364 14.0092 3.7695 13.9418 4.60299 13.9129C5.43648 13.8839 7.38681 13.8324 8.93706 13.7983C11.7557 13.7364 11.7557 13.7364 11.8432 13.481C11.8914 13.3406 12.2437 12.2007 12.6261 10.9479C13.0085 9.69515 13.5346 8.06209 13.7952 7.3189C14.0558 6.57571 14.4895 5.46854 14.7591 4.85853C15.0324 4.2402 15.3859 3.60346 15.5581 3.41957C15.7417 3.22351 16.0031 3.06245 16.2026 3.02249C16.4503 2.97285 16.6144 3.00292 16.8294 3.13735C16.9895 3.23751 17.2012 3.43498 17.2997 3.57618C17.3983 3.71737 17.5353 4.11461 17.6041 4.45891C17.673 4.80321 17.8303 6.29867 17.9537 7.78215C18.0771 9.26563 18.2237 11.1351 18.2795 11.9366C18.3353 12.7381 18.4038 13.4332 18.4317 13.4814C18.4595 13.5295 19.1611 13.5689 19.9906 13.5689C21.4791 13.5689 21.4995 13.5661 21.5474 13.3483C21.5741 13.2269 21.7006 12.4435 21.8285 11.6073C21.9564 10.7712 22.1855 9.38087 22.3376 8.51776C22.4898 7.65464 22.738 6.44282 22.8892 5.82482C23.0404 5.20682 23.2759 4.48203 23.4124 4.21417C23.549 3.94632 23.8184 3.5923 24.0111 3.42746C24.2669 3.20865 24.4579 3.12775 24.7189 3.12775C24.9377 3.12775 25.1759 3.20696 25.3329 3.33193C25.474 3.44424 25.6609 3.66644 25.7483 3.82572C25.8356 3.985 25.9896 4.68658 26.0904 5.38477C26.1912 6.08296 26.3793 7.58108 26.5083 8.71392C26.6373 9.84676 26.8231 11.366 26.9212 12.09C27.0193 12.814 27.1318 13.4373 27.1711 13.4751C27.2105 13.5129 29.0783 13.5714 31.3219 13.6051C34.9499 13.6595 35.4375 13.6853 35.7304 13.8383C35.9115 13.9329 36.116 14.1369 36.1847 14.2916C36.2713 14.4863 36.2852 14.6673 36.2299 14.8801C36.17 15.1107 36.0474 15.2401 35.7376 15.3993C35.4475 15.5483 34.7929 15.6873 33.534 15.8673C32.549 16.0082 31.1934 16.214 30.5216 16.3248C29.8498 16.4356 29.0232 16.6001 28.6847 16.6904C28.1225 16.8404 28.0705 16.8759 28.0837 17.0999C28.0917 17.2347 28.2922 17.8306 28.5292 18.424C28.7662 19.0174 29.1138 19.8339 29.3015 20.2385C29.4893 20.643 29.8005 21.2895 29.9932 21.6751C30.2911 22.2713 30.3337 22.4311 30.2787 22.7442C30.2429 22.9482 30.0974 23.237 29.9524 23.3918C29.7538 23.6038 29.6039 23.6713 29.3313 23.6713C29.1113 23.6713 28.3515 23.4203 27.3725 23.0243C26.4929 22.6685 25.1118 22.1345 24.3036 21.8378C23.4954 21.541 22.6353 21.2396 22.3924 21.168C21.9507 21.0378 21.9507 21.0378 21.6435 21.7576C21.4659 22.1737 21.2372 22.5468 21.1014 22.6418C20.9722 22.7323 20.7067 22.8291 20.5114 22.8571C20.2599 22.8931 20.0477 22.8487 19.7831 22.7045C19.5777 22.5926 19.257 22.312 19.0704 22.0809C18.8837 21.8497 18.5308 21.2157 18.286 20.6719C17.841 19.6832 17.841 19.6832 17.0771 19.4703C16.6569 19.3532 15.8999 19.1481 15.3947 19.0144C14.8896 18.8807 14.0097 18.6643 13.4394 18.5334C12.4025 18.2955 12.4025 18.2955 12.2808 18.5069C12.2139 18.6231 11.8587 19.5347 11.4915 20.5327C11.1243 21.5307 10.5626 22.921 10.2433 23.6223C9.92397 24.3235 9.50587 25.1819 9.31416 25.5297C9.12245 25.8775 8.79703 26.3519 8.591 26.584C8.31033 26.9003 8.14913 27.0045 7.94809 26.9999ZM85.5179 22.2541C85.1391 22.2733 84.6431 22.2486 84.4158 22.199C84.1885 22.1495 83.8632 22.0393 83.6928 21.9543C83.5225 21.8692 83.2436 21.6858 83.0729 21.5468C82.7626 21.2941 82.7626 21.2941 82.7612 21.5754C82.7604 21.7302 82.7263 21.9131 82.6854 21.982C82.629 22.0769 82.257 22.1006 81.1484 22.0801C79.6858 22.053 79.6858 22.053 79.6585 21.8024C79.6421 21.6526 79.716 21.4389 79.8422 21.2711C79.9582 21.1167 80.1034 20.8985 80.1647 20.7861C80.2483 20.6329 80.2771 19.2725 80.2795 15.3567C80.2828 10.1317 80.2828 10.1317 79.908 9.69755C79.7019 9.45876 79.5121 9.17694 79.4863 9.07128C79.4584 8.95764 79.5083 8.81151 79.6084 8.71352C79.7015 8.6224 80.3356 8.26128 81.0176 7.91102C81.6995 7.56077 82.3959 7.24958 82.5651 7.2195C82.7742 7.18234 82.8989 7.20873 82.9541 7.30184C82.9988 7.3772 83.0359 8.73354 83.0367 10.3159C83.0375 11.8983 83.0713 13.1783 83.1119 13.1603C83.1525 13.1423 83.3074 13.035 83.4563 12.9219C83.6052 12.8088 83.8653 12.6661 84.0345 12.6049C84.2036 12.5436 84.5962 12.4676 84.907 12.436C85.322 12.3937 85.6628 12.4318 86.1906 12.5792C86.5859 12.6897 87.1152 12.8997 87.3669 13.046C87.6187 13.1923 88.0279 13.5257 88.2764 13.787C88.5249 14.0482 88.8325 14.4519 88.9599 14.684C89.0873 14.9162 89.2742 15.4514 89.3753 15.8735C89.4764 16.2955 89.5591 16.9136 89.5591 17.247C89.5591 17.5804 89.4773 18.1945 89.3774 18.6117C89.2775 19.029 89.0846 19.5884 88.9487 19.855C88.8129 20.1215 88.5594 20.5172 88.3854 20.7343C88.2114 20.9513 87.8836 21.2801 87.6571 21.4649C87.4305 21.6497 87.0114 21.8949 86.7259 22.0099C86.4212 22.1327 85.9222 22.2335 85.5179 22.2541ZM94.7979 22.29C94.518 22.2855 94.0545 22.2211 93.7678 22.1468C93.4811 22.0725 93.0471 21.9129 92.8034 21.792C92.5597 21.6711 92.101 21.2972 91.7841 20.9611C91.4429 20.5993 91.1168 20.1372 90.9845 19.8284C90.8617 19.5414 90.698 19.0198 90.6207 18.6692C90.5434 18.3185 90.4796 17.7209 90.4789 17.3412C90.4781 16.9614 90.5408 16.3876 90.6181 16.0661C90.6954 15.7446 90.8664 15.2439 90.9982 14.9536C91.1299 14.6632 91.4903 14.1549 91.799 13.8239C92.1077 13.493 92.5724 13.1017 92.8316 12.9545C93.0907 12.8072 93.6232 12.6159 94.0149 12.5294C94.5795 12.4047 94.8559 12.3926 95.3493 12.4708C95.7372 12.5323 96.1368 12.6745 96.4106 12.8485C96.6521 13.002 96.8832 13.1423 96.9241 13.1603C96.965 13.1783 96.9985 12.4121 96.9985 11.4576C96.9985 9.72224 96.9985 9.72224 96.5393 9.18565C96.2677 8.86831 96.08 8.55714 96.08 8.42407C96.08 8.23193 96.1706 8.16913 96.7 7.99406C97.041 7.8813 97.6712 7.67488 98.1006 7.53536C98.53 7.39583 99.0198 7.25538 99.189 7.22324C99.4009 7.18301 99.522 7.20748 99.5779 7.30184C99.6229 7.3777 99.6598 10.3791 99.6606 14.026C99.662 20.6132 99.662 20.6132 100.029 21.1095C100.231 21.3825 100.397 21.6907 100.397 21.7944C100.397 21.8981 100.331 22.0097 100.251 22.0425C100.172 22.0752 99.4949 22.102 98.7478 22.102C97.3893 22.102 97.3893 22.102 97.3296 21.703C97.2698 21.3039 97.2698 21.3039 96.8268 21.6513C96.5831 21.8423 96.1414 22.066 95.8452 22.1484C95.549 22.2308 95.0777 22.2945 94.7979 22.29ZM104.809 22.2904C104.479 22.2861 103.952 22.2232 103.64 22.1506C103.327 22.078 102.931 21.9478 102.761 21.8614C102.59 21.7749 102.278 21.516 102.066 21.2862C101.825 21.0233 101.614 20.6613 101.499 20.3106C101.398 20.0039 101.315 19.5328 101.315 19.2638C101.315 18.9947 101.399 18.5349 101.502 18.242C101.627 17.8839 101.832 17.566 102.126 17.2719C102.377 17.0217 102.798 16.7358 103.111 16.6041C103.564 16.4132 103.831 16.373 104.671 16.3691C105.599 16.3647 105.726 16.3869 106.164 16.6293C106.642 16.8943 106.642 16.8943 106.642 16.4757C106.642 16.2454 106.597 15.7976 106.542 15.4805C106.487 15.1635 106.361 14.6703 106.261 14.3844C106.16 14.0986 105.954 13.732 105.802 13.5697C105.572 13.3236 105.453 13.2747 105.084 13.2747C104.685 13.2747 104.611 13.3127 104.308 13.6703C104.124 13.8878 103.869 14.3181 103.742 14.6265C103.614 14.935 103.401 15.3081 103.269 15.4558C103.136 15.6035 102.89 15.752 102.721 15.7858C102.547 15.8206 102.294 15.7941 102.137 15.7247C101.985 15.6573 101.779 15.4918 101.679 15.3569C101.57 15.2084 101.499 14.9611 101.499 14.7295C101.499 14.5193 101.555 14.2053 101.623 14.0317C101.691 13.8581 101.913 13.5559 102.116 13.3601C102.319 13.1643 102.728 12.9069 103.025 12.7881C103.322 12.6693 103.919 12.5256 104.35 12.4687C104.995 12.3838 105.265 12.3937 105.866 12.5244C106.267 12.6119 106.852 12.8181 107.165 12.9826C107.478 13.1471 107.919 13.474 108.146 13.7092C108.373 13.9443 108.668 14.3687 108.803 14.6522C108.937 14.9358 109.103 15.3667 109.172 15.6099C109.24 15.853 109.362 16.6184 109.443 17.3109C109.524 18.0033 109.646 19.0651 109.714 19.6705C109.838 20.763 109.841 20.7736 110.192 21.0991C110.386 21.2794 110.599 21.4725 110.665 21.5281C110.731 21.5837 110.77 21.6804 110.752 21.743C110.733 21.8056 110.576 21.934 110.402 22.0283C110.154 22.1629 109.852 22.1998 108.998 22.1999C107.91 22.2001 107.91 22.2001 107.612 21.8813C107.448 21.706 107.292 21.4964 107.265 21.4154C107.228 21.3025 107.134 21.3526 106.86 21.6314C106.609 21.8881 106.344 22.0389 105.957 22.1463C105.656 22.2298 105.139 22.2947 104.809 22.2904ZM114.908 22.2568C114.436 22.2799 113.903 22.2404 113.559 22.1568C113.246 22.0808 112.839 21.942 112.654 21.8483C112.469 21.7547 112.178 21.5369 112.007 21.3643C111.835 21.1918 111.583 20.7907 111.447 20.4729C111.251 20.0188 111.199 19.7529 111.203 19.2304C111.207 18.6965 111.26 18.4559 111.475 18.0086C111.635 17.6736 111.895 17.3261 112.128 17.1368C112.34 16.9637 112.753 16.7201 113.045 16.5955C113.481 16.4098 113.751 16.3686 114.545 16.3666C115.426 16.3645 115.557 16.3886 116.004 16.6365C116.274 16.7862 116.517 16.8856 116.543 16.8574C116.57 16.8292 116.52 16.3406 116.434 15.7717C116.347 15.2027 116.193 14.5295 116.091 14.2757C115.99 14.0218 115.798 13.6928 115.666 13.5444C115.469 13.3244 115.345 13.2747 114.99 13.2747C114.651 13.2747 114.49 13.3334 114.259 13.5403C114.083 13.6991 113.823 14.1321 113.614 14.6174C113.357 15.2142 113.185 15.4826 112.961 15.632C112.742 15.7786 112.559 15.8222 112.303 15.7888C112.084 15.7602 111.848 15.6391 111.684 15.4722C111.539 15.3236 111.394 15.0533 111.362 14.8716C111.325 14.6611 111.36 14.3844 111.459 14.1087C111.544 13.8708 111.764 13.5353 111.947 13.3632C112.131 13.1911 112.459 12.9663 112.676 12.8636C112.893 12.761 113.412 12.6106 113.829 12.5295C114.322 12.4335 114.811 12.4035 115.23 12.4438C115.583 12.4778 116.12 12.5939 116.424 12.7017C116.727 12.8094 117.172 13.0317 117.412 13.1954C117.653 13.3592 118.014 13.6924 118.215 13.9358C118.415 14.1792 118.683 14.6112 118.809 14.8959C118.935 15.1805 119.1 15.8039 119.176 16.2812C119.252 16.7584 119.378 17.7668 119.457 18.522C119.535 19.2773 119.642 20.1286 119.695 20.4138C119.777 20.859 119.841 20.9686 120.151 21.187C120.404 21.3665 120.511 21.5114 120.511 21.6787C120.511 21.8566 120.431 21.9514 120.192 22.058C119.978 22.1536 119.534 22.2001 118.835 22.2001C118.073 22.2001 117.745 22.1619 117.605 22.0569C117.499 21.9781 117.361 21.7778 117.296 21.6118C117.232 21.4458 117.146 21.3227 117.105 21.3382C117.064 21.3537 116.914 21.4861 116.772 21.6323C116.629 21.7786 116.327 21.9703 116.101 22.0584C115.874 22.1465 115.338 22.2358 114.908 22.2568ZM42.7813 18.7182C42.437 19.7824 42.3162 20.2458 42.2906 20.4346C42.2497 20.7373 42.2885 20.8237 42.6191 21.1656C42.8331 21.3869 42.994 21.6455 42.994 21.7681C42.994 21.8863 42.9286 22.0097 42.8487 22.0425C42.7688 22.0752 42.0649 22.102 41.2844 22.102C40.1016 22.102 39.8566 22.0773 39.8121 21.9534C39.7827 21.8717 39.7819 21.7102 39.8102 21.5945C39.8385 21.4789 40.0273 21.2037 40.2297 20.983C40.5108 20.6766 40.705 20.292 41.0514 19.3557C41.301 18.6814 42.1581 16.3422 42.9562 14.1574C43.7542 11.9727 44.4248 10.0622 44.4462 9.91202C44.4741 9.71716 44.3937 9.49158 44.1656 9.12481C43.9898 8.84206 43.8175 8.51498 43.7828 8.39796C43.7279 8.21343 43.7626 8.17657 44.0442 8.12016C44.2227 8.08439 44.8363 8.07097 45.4076 8.09034C46.2223 8.11796 46.5021 8.16451 46.7045 8.30617C46.8778 8.42741 47.1072 8.8143 47.4023 9.48308C47.6441 10.031 48.723 12.7443 49.7999 15.5125C51.3024 19.3749 51.8334 20.6388 52.0829 20.9463C52.2617 21.1667 52.4595 21.4476 52.5224 21.5705C52.5853 21.6935 52.6119 21.8634 52.5814 21.948C52.5332 22.0822 52.2355 22.1018 50.2628 22.1005C49.018 22.0997 47.9442 22.0616 47.8766 22.0159C47.8091 21.9701 47.7677 21.8396 47.7848 21.7257C47.8018 21.6119 48.001 21.318 48.2273 21.0726C48.6387 20.6264 48.6387 20.6264 48.365 19.7808C48.2145 19.3158 48.05 18.8747 47.9995 18.8006C47.9246 18.6908 47.4331 18.6707 45.3445 18.692L42.7813 18.7182ZM54.6878 22.102C53.4339 22.102 53.1741 22.0774 53.13 21.9547C53.1009 21.8736 53.1023 21.7081 53.1331 21.5869C53.164 21.4656 53.3131 21.193 53.4645 20.9811C53.7398 20.5958 53.7398 20.5958 53.7398 15.3257C53.7398 10.0556 53.7398 10.0556 53.3665 9.55142C53.1613 9.27411 53.0063 8.97222 53.0221 8.88057C53.0402 8.77596 53.559 8.44389 54.4157 7.98855C55.3031 7.51689 55.8974 7.25959 56.1148 7.25294C56.4492 7.2427 56.4492 7.2427 56.4951 13.9811C56.541 20.7195 56.541 20.7195 56.8967 21.1085C57.0924 21.3224 57.2716 21.6047 57.2951 21.7358C57.3357 21.9626 57.31 21.9773 56.7652 22.0381C56.4503 22.0732 55.5154 22.102 54.6878 22.102ZM60.4186 22.1005C58.7242 22.1018 58.41 22.0795 58.3652 21.9549C58.3361 21.874 58.3382 21.7359 58.3697 21.648C58.4013 21.5601 58.5607 21.3081 58.724 21.088C59.0208 20.6878 59.0208 20.6878 59.0208 17.9789C59.0208 15.2701 59.0208 15.2701 58.7826 14.9344C58.6515 14.7498 58.4924 14.4941 58.4289 14.3662C58.3302 14.1671 58.3381 14.1083 58.4835 13.9584C58.577 13.862 59.2005 13.4922 59.8691 13.1366C60.6478 12.7224 61.1966 12.49 61.396 12.49C61.6711 12.49 61.7139 12.5256 61.7647 12.7966C61.7962 12.9651 61.8221 14.7926 61.8221 16.8576C61.8221 20.6122 61.8221 20.6122 62.1557 21.0384C62.3393 21.2727 62.5332 21.5669 62.5868 21.6922C62.6622 21.8686 62.6543 21.9401 62.5516 22.0094C62.4787 22.0587 61.5188 22.0997 60.4186 22.1005ZM74.5711 18.6661L69.4023 18.7182L69.1411 19.4048C68.9974 19.7824 68.8566 20.2378 68.828 20.4167C68.7825 20.7025 68.8244 20.7946 69.1718 21.1726C69.3922 21.4124 69.5709 21.7028 69.5752 21.8281C69.5829 22.0529 69.5821 22.053 68.0675 22.0773C67.234 22.0907 66.4968 22.0636 66.4292 22.0172C66.3616 21.9707 66.3203 21.8434 66.3374 21.7342C66.3544 21.625 66.5344 21.3431 66.7374 21.1077C66.9723 20.8354 67.229 20.359 67.4437 19.7971C67.6291 19.3116 68.1381 17.9434 68.5746 16.7566C69.0111 15.5698 69.7201 13.6278 70.1501 12.441C70.5801 11.2542 70.9517 10.1287 70.9758 9.93994C71.0103 9.66968 70.9561 9.49232 70.7211 9.10624C70.5569 8.83652 70.4046 8.49446 70.3827 8.34612C70.3427 8.07639 70.3427 8.07639 71.6254 8.07639C72.8077 8.07639 72.9325 8.09387 73.2202 8.29983C73.3918 8.42273 73.6426 8.74272 73.7776 9.01092C73.9125 9.27913 74.3109 10.2489 74.6629 11.166C75.0149 12.083 75.6643 13.7602 76.106 14.893C76.5476 16.0259 77.2378 17.7666 77.6397 18.7614C78.1944 20.1345 78.4686 20.6895 78.7785 21.0663C79.0683 21.4187 79.1791 21.6336 79.1607 21.8078C79.1347 22.053 79.1347 22.053 76.7697 22.0791C74.4048 22.1053 74.4048 22.1053 74.4048 21.8265C74.4048 21.6512 74.4943 21.4595 74.6462 21.3099C74.779 21.1792 74.9429 20.9337 75.0105 20.7644C75.1218 20.4856 75.1069 20.3723 74.8522 19.5614L74.5711 18.6661ZM123.102 22.1005C121.449 22.1018 121.14 22.0793 121.095 21.9549C121.066 21.874 121.068 21.7359 121.099 21.648C121.131 21.5601 121.29 21.3082 121.454 21.0881C121.751 20.6879 121.751 20.6879 121.78 15.5346C121.798 12.4404 121.775 10.2772 121.722 10.1207C121.674 9.97741 121.502 9.68365 121.34 9.46793C121.178 9.25222 121.059 8.99432 121.076 8.89482C121.098 8.77172 121.562 8.47185 122.531 7.95623C123.314 7.5395 124.062 7.19744 124.194 7.1961C124.427 7.19372 124.434 7.21196 124.492 8.00283C124.524 8.44788 124.551 11.4711 124.551 14.7211C124.552 20.6302 124.552 20.6302 124.887 21.0259C125.071 21.2435 125.242 21.5352 125.267 21.6741C125.294 21.828 125.262 21.9604 125.184 22.0129C125.114 22.0602 124.177 22.0997 123.102 22.1005ZM84.9989 21.5134C85.1428 21.5135 85.4009 21.4424 85.5724 21.3555C85.7439 21.2686 86.0066 21.0487 86.1561 20.8668C86.3057 20.6849 86.5126 20.2437 86.6159 19.8865C86.7543 19.408 86.8037 18.9675 86.8037 18.2133C86.8037 17.6503 86.7387 16.8536 86.6593 16.4427C86.5798 16.0319 86.4324 15.4606 86.3316 15.173C86.2309 14.8855 86.0169 14.4412 85.8562 14.1858C85.6954 13.9303 85.4234 13.6208 85.2518 13.498C85.0392 13.3459 84.8043 13.2747 84.515 13.2747C84.1813 13.2747 84.0206 13.336 83.7653 13.5608C83.5865 13.7181 83.3601 14.0368 83.2622 14.2689C83.1017 14.6491 83.084 14.9261 83.084 17.0636C83.084 19.0731 83.1084 19.5063 83.2433 19.8948C83.3309 20.147 83.5273 20.5216 83.6797 20.7271C83.8322 20.9327 84.1325 21.1937 84.3471 21.3071C84.5617 21.4206 84.855 21.5134 84.9989 21.5134ZM95.5628 21.4774C95.7643 21.4511 96.0624 21.3084 96.2516 21.1478C96.4351 20.9921 96.6782 20.6702 96.7918 20.4327C96.9893 20.02 96.9984 19.8957 96.9976 17.643C96.9967 15.323 96.993 15.2768 96.7624 14.7459C96.6335 14.4492 96.4001 14.0647 96.2436 13.8915C96.0871 13.7183 95.825 13.5086 95.6612 13.4256C95.4975 13.3426 95.192 13.2747 94.9824 13.2747C94.7729 13.2747 94.4898 13.337 94.3534 13.4131C94.217 13.4892 93.9939 13.6767 93.8577 13.8299C93.7215 13.9831 93.5183 14.3291 93.4061 14.5988C93.2536 14.9656 93.1914 15.3421 93.1596 16.0928C93.1301 16.7886 93.1646 17.3739 93.2721 18.0012C93.3574 18.4989 93.5502 19.2218 93.7006 19.6077C93.8511 19.9937 94.1252 20.4978 94.3097 20.728C94.4942 20.9582 94.7717 21.2315 94.9264 21.3352C95.1245 21.4681 95.3124 21.5101 95.5628 21.4774ZM105.641 21.5132C105.773 21.5134 106.021 21.4139 106.192 21.292C106.364 21.1702 106.597 20.874 106.711 20.6337C106.854 20.3319 106.918 20.0229 106.918 19.634C106.918 19.3244 106.873 18.847 106.818 18.573C106.763 18.2991 106.613 17.9422 106.485 17.78C106.357 17.6178 106.127 17.4156 105.973 17.3306C105.787 17.2279 105.556 17.1926 105.284 17.2254C104.993 17.2604 104.797 17.3577 104.605 17.5627C104.457 17.7211 104.277 18.0239 104.207 18.2354C104.136 18.447 104.077 18.8038 104.075 19.0282C104.072 19.2527 104.15 19.71 104.248 20.0444C104.345 20.3788 104.521 20.7638 104.638 20.8999C104.755 21.036 104.975 21.2295 105.127 21.33C105.278 21.4305 105.51 21.513 105.641 21.5132ZM115.551 21.5109C115.677 21.5119 115.913 21.4264 116.075 21.3208C116.238 21.2153 116.455 20.9508 116.559 20.733C116.663 20.5153 116.772 20.1495 116.802 19.92C116.831 19.6906 116.81 19.2406 116.754 18.9201C116.698 18.5995 116.578 18.1827 116.486 17.9939C116.394 17.805 116.211 17.5645 116.08 17.4595C115.948 17.3545 115.641 17.2488 115.397 17.2245C115.04 17.189 114.892 17.2252 114.633 17.4118C114.456 17.5391 114.239 17.7968 114.151 17.9845C114.045 18.208 113.99 18.5533 113.99 18.9845C113.99 19.3467 114.056 19.8527 114.138 20.1089C114.219 20.3651 114.386 20.715 114.509 20.8865C114.631 21.058 114.864 21.2682 115.026 21.3537C115.189 21.4391 115.425 21.5099 115.551 21.5109ZM27.6437 21.4044C27.7211 21.4112 27.7519 21.3497 27.7239 21.2438C27.699 21.1494 27.4949 20.6529 27.2703 20.1404C27.0458 19.6279 26.7026 18.7819 26.5078 18.2603C26.175 17.3693 26.1317 17.3028 25.7906 17.1597C25.4622 17.022 25.4326 16.981 25.4798 16.7291C25.5084 16.5761 25.6036 16.3174 25.6912 16.1543C25.7789 15.9913 25.8241 15.7842 25.7918 15.6942C25.7406 15.5518 25.5601 15.5306 24.4019 15.5306C23.0708 15.5306 23.0708 15.5306 22.9823 15.8984C22.9336 16.1007 22.763 16.9441 22.6031 17.7726C22.4431 18.6012 22.3471 19.3099 22.3895 19.3475C22.432 19.3852 23.004 19.6091 23.6607 19.8451C24.3174 20.0811 25.454 20.526 26.1864 20.8338C26.9189 21.1415 27.5747 21.3983 27.6437 21.4044ZM20.5366 18.7266C20.5864 18.7135 20.6576 18.5739 20.6948 18.4163C20.732 18.2587 20.8279 17.7766 20.9077 17.3451C20.9876 16.9135 21.0772 16.3508 21.1068 16.0945C21.1606 15.6286 21.1606 15.6286 19.9968 15.6286C19.016 15.6286 18.8243 15.6533 18.7769 15.7852C18.7459 15.8713 18.8132 16.3899 18.9264 16.9376C19.0395 17.4854 19.1798 18.0407 19.2381 18.1717C19.3157 18.3462 19.4912 18.4553 19.8951 18.5801C20.1982 18.6738 20.4869 18.7397 20.5366 18.7266ZM17.1755 17.7798C17.2755 17.785 17.2898 17.6857 17.2417 17.3205C17.2079 17.0643 17.1552 16.7002 17.1246 16.5114C17.0939 16.3226 17.0342 16.0688 16.9918 15.9474C16.9154 15.7287 16.8983 15.7267 15.0868 15.7267C13.6254 15.7267 13.2373 15.7545 13.1513 15.8651C13.0922 15.9412 13.0221 16.1508 12.9956 16.331C12.9475 16.6585 12.9475 16.6585 14.4007 17.0381C15.2 17.2468 16.1226 17.4977 16.4509 17.5954C16.7793 17.6932 17.1053 17.7762 17.1755 17.7798ZM45.3366 17.3941C47.4233 17.3941 47.4233 17.3941 47.3833 17.1244C47.3612 16.976 47.1025 16.1705 46.8084 15.3344C46.5143 14.4983 46.0769 13.2428 45.8365 12.5446C45.3993 11.275 45.3993 11.275 45.2597 11.6317C45.183 11.8279 44.9345 12.5095 44.7076 13.1465C44.4807 13.7834 44.085 14.9298 43.8283 15.694C43.5715 16.4582 43.3363 17.1534 43.3056 17.2388C43.2557 17.3777 43.4705 17.3941 45.3366 17.3941ZM71.8628 17.3763C73.0063 17.3522 73.965 17.3079 73.9932 17.2778C74.0214 17.2477 73.6285 16.0434 73.12 14.6017C72.6115 13.16 72.1319 11.8192 72.0543 11.6222C71.9132 11.264 71.9132 11.264 71.4548 12.5881C71.2026 13.3164 70.7543 14.6184 70.4584 15.4815C70.1626 16.3446 69.8897 17.1339 69.852 17.2354C69.7859 17.4136 69.8554 17.4185 71.8628 17.3763ZM16.661 13.5689C16.5675 12.3907 16.4814 11.3866 16.4094 10.5775C16.3374 9.76829 16.2504 8.62074 16.2161 8.02735C16.1817 7.43396 16.1216 6.91124 16.0824 6.86575C16.0433 6.82026 15.92 7.04095 15.8084 7.35616C15.6967 7.67137 15.2442 9.07682 14.8028 10.4794C14.3613 11.8819 13.9722 13.1509 13.938 13.2992C13.8758 13.5689 13.8758 13.5689 15.2684 13.5689H16.661ZM24.3044 13.4709C25.2011 13.4709 25.2011 13.4709 25.1381 13.005C25.1034 12.7487 24.993 11.855 24.8928 11.0188C24.7926 10.1827 24.6861 9.21168 24.6561 8.86104C24.626 8.5104 24.5688 8.18512 24.5288 8.13819C24.4888 8.09127 24.4101 8.22368 24.354 8.43244C24.2978 8.6412 24.0899 9.67266 23.892 10.7246C23.6942 11.7765 23.5042 12.8248 23.4699 13.054C23.4076 13.4709 23.4076 13.4709 24.3044 13.4709ZM60.5944 11.1874C60.2596 11.2049 59.8821 11.1584 59.6637 11.0728C59.4617 10.9937 59.1645 10.7762 59.0034 10.5895C58.8423 10.4028 58.6827 10.092 58.6488 9.8988C58.6148 9.70565 58.6133 9.39806 58.6455 9.21529C58.6776 9.03251 58.7958 8.73787 58.9082 8.56055C59.0207 8.38321 59.2986 8.13214 59.526 8.00259C59.8693 7.80693 60.042 7.77291 60.5464 7.80156C61.0226 7.82862 61.2371 7.89508 61.5409 8.10983C61.7836 8.2813 61.9935 8.53696 62.1028 8.79397C62.1987 9.01966 62.2773 9.33674 62.2773 9.49857C62.2773 9.6604 62.1987 9.97748 62.1028 10.2032C61.9938 10.4594 61.7837 10.7158 61.543 10.8858C61.2476 11.0946 61.0264 11.1649 60.5944 11.1874Z" fill="var(--fill-0, black)"/>
</g>
</svg>
