<svg preserveAspectRatio="none" width="100%" height="100%" overflow="visible" style="display: block;" viewBox="0 0 118.694 24.9618" fill="none" xmlns="http://www.w3.org/2000/svg">
<g id="g11">
<path id="path13" d="M4.81421 17.2042C4.60037 16.5556 4.49429 15.7369 4.49429 14.6361C4.49429 13.5349 4.60037 12.7145 4.81421 12.0676C5.41161 10.2113 6.99415 9.19709 9.06635 9.19709C10.6052 9.19709 11.8237 9.8232 12.6366 10.8162C12.6995 10.9019 12.7207 11.0313 12.615 11.1174L11.2692 12.3048C11.1618 12.3917 11.0553 12.3701 10.9692 12.2623C10.4559 11.6799 9.92169 11.3554 9.06676 11.3554C8.14819 11.3554 7.44345 11.8089 7.1435 12.7154C6.97377 13.2346 6.93009 13.8382 6.93009 14.6365C6.93009 15.4349 6.97335 16.0606 7.1435 16.5789C7.44304 17.463 8.14819 17.9165 9.06676 17.9165C9.92169 17.9165 10.4559 17.5924 10.9692 17.0112C11.0553 16.9018 11.1618 16.9018 11.2692 16.9883L12.615 18.1756C12.7207 18.2617 12.6995 18.3699 12.6366 18.4781C11.8241 19.4499 10.6056 20.0752 9.06635 20.0752C6.99415 20.0743 5.41161 19.0593 4.81421 17.2042Z" fill="var(--fill-0, black)"/>
<path id="path15" d="M51.5074 17.2042C51.2936 16.5556 51.1875 15.7369 51.1875 14.6361C51.1875 13.5349 51.2936 12.7145 51.5074 12.0676C52.1061 10.2113 53.687 9.19708 55.7591 9.19708C57.2984 9.19708 58.5174 9.82319 59.329 10.8162C59.3927 10.9019 59.4147 11.0313 59.307 11.1174L57.9607 12.3048C57.8538 12.3917 57.7477 12.3701 57.662 12.2623C57.1495 11.6799 56.6149 11.3554 55.7591 11.3554C54.841 11.3554 54.1354 11.8089 53.8367 12.7154C53.6653 13.2346 53.6237 13.8382 53.6237 14.6365C53.6237 15.4349 53.6653 16.0606 53.8367 16.5789C54.1354 17.463 54.841 17.9164 55.7591 17.9164C56.6149 17.9164 57.1495 17.5924 57.662 17.0112C57.7477 16.9018 57.8542 16.9018 57.9607 16.9883L59.307 18.1756C59.4147 18.2617 59.3927 18.3699 59.329 18.4781C58.5174 19.4499 57.2984 20.0752 55.7591 20.0752C53.687 20.0743 52.1061 19.0593 51.5074 17.2042Z" fill="var(--fill-0, black)"/>
<path id="path17" d="M105.477 19.8376C105.349 19.8376 105.264 19.7519 105.264 19.6213V13.6219C105.264 12.2835 104.601 11.355 103.318 11.355C102.079 11.355 101.352 12.2831 101.352 13.6219V19.6213C101.352 19.7515 101.266 19.8376 101.139 19.8376H99.1721C99.044 19.8376 98.9578 19.7519 98.9578 19.6213V13.6219C98.9578 12.2835 98.2955 11.355 97.015 11.355C95.7749 11.355 95.0477 12.2831 95.0477 13.6219V19.6213C95.0477 19.7515 94.9624 19.8376 94.8338 19.8376H92.8677C92.7387 19.8376 92.6543 19.7519 92.6543 19.6213V9.65013C92.6543 9.52033 92.7387 9.4338 92.8677 9.4338H94.8338C94.9624 9.4338 95.0477 9.52033 95.0477 9.65013V10.4056H95.0693C95.5186 9.75788 96.4155 9.19708 97.783 9.19708C99.0015 9.19708 99.9846 9.69256 100.603 10.5779H100.625C101.416 9.71544 102.442 9.19708 103.917 9.19708C106.309 9.19708 107.657 10.837 107.657 13.0602V19.6209C107.657 19.7515 107.571 19.8376 107.442 19.8376H105.477Z" fill="var(--fill-0, black)"/>
<path id="path19" d="M110.625 23.7221C110.498 23.7221 110.412 23.6355 110.412 23.5053V21.7792C110.412 21.6503 110.498 21.5625 110.625 21.5625H111.011C111.822 21.5625 112.23 21.1972 112.55 20.3332L112.849 19.4483L109.087 9.64976C109.044 9.51997 109.13 9.43343 109.259 9.43343H111.374C111.502 9.43343 111.588 9.51997 111.63 9.64976L113.96 16.4484H114.002L116.226 9.64976C116.268 9.51997 116.354 9.43343 116.481 9.43343H118.511C118.64 9.43343 118.726 9.51997 118.682 9.64976L114.751 20.4842C113.854 22.9449 112.998 23.7212 111.289 23.7212L110.625 23.7221Z" fill="var(--fill-0, black)"/>
<path id="path21" d="M14.6037 17.2051C14.3686 16.47 14.2617 15.7798 14.2617 14.6362C14.2617 13.4942 14.3686 12.8032 14.6037 12.071C15.1807 10.258 16.7608 9.20004 18.8546 9.20004C20.9264 9.20004 22.5072 10.2576 23.0843 12.071C23.3181 12.8032 23.4258 13.4942 23.4258 14.6362C23.4258 15.7798 23.3181 16.47 23.0843 17.2051C22.5068 19.0169 20.9264 20.074 18.8546 20.074C16.7608 20.0744 15.1807 19.0173 14.6037 17.2051ZM20.777 16.5578C20.9484 16.019 20.9908 15.5219 20.9908 14.6366C20.9908 13.7538 20.9484 13.2783 20.777 12.7179C20.4783 11.8555 19.8156 11.3579 18.8546 11.3579C17.894 11.3579 17.2092 11.8555 16.9109 12.7179C16.7408 13.2787 16.6975 13.7538 16.6975 14.6366C16.6975 15.5219 16.7408 16.019 16.9109 16.5578C17.2092 17.4218 17.8944 17.9165 18.8546 17.9165C19.8156 17.9161 20.4783 17.4214 20.777 16.5578Z" fill="var(--fill-0, black)"/>
<path id="path23" d="M65.0562 9.19708C63.3675 9.19708 62.2355 9.60686 61.4014 10.2113C61.317 10.2771 61.2949 10.3836 61.3598 10.4913L62.1486 11.9166C62.2147 12.0248 62.3412 12.0464 62.449 11.9599C62.9407 11.5721 63.645 11.2472 64.7999 11.2472C66.4835 11.2472 67.0551 11.7581 67.0843 12.8809H67.0847V12.8947C67.0855 12.9209 67.0855 12.9475 67.0855 12.9754V16.3426C67.0855 17.5296 66.2738 18.1111 64.7999 18.1111C63.645 18.1111 63.026 17.6806 63.026 16.8177C63.026 15.8459 63.7103 15.4133 65.2484 15.4133L65.716 15.4141C65.8441 15.4141 65.9302 15.3276 65.9302 15.199V13.8153C65.9302 13.6864 65.8441 13.6002 65.716 13.6002H65.6132L64.8639 13.5998C62.3212 13.5998 60.7383 14.6374 60.7383 16.9022C60.7383 19.0826 62.3212 20.0748 64.2008 20.0748C65.6527 20.0748 66.615 19.5789 67.1067 18.8666H67.1275V19.6221C67.1275 19.7519 67.2141 19.8385 67.3418 19.8385H69.1365C69.265 19.8385 69.3507 19.7523 69.3507 19.6221V12.8235C69.3511 10.2771 68.1975 9.19708 65.0562 9.19708Z" fill="var(--fill-0, black)"/>
<path id="path25" d="M39.5244 13.599C39.4686 13.599 39.432 13.636 39.432 13.6918V13.7533V13.9339V15.0771V15.2306V15.3192C39.432 15.375 39.4686 15.4124 39.5244 15.4124H39.5776H44.8161C44.9659 15.4124 45.0516 15.3267 45.0516 15.1982C45.0516 13.5133 44.9439 12.8006 44.7096 12.0676C44.1318 10.2979 42.5938 9.19749 40.4779 9.19749C38.4265 9.19749 36.8456 10.2546 36.2677 12.0676C36.0552 12.7366 35.9258 13.557 35.9258 14.6361C35.9258 15.7153 36.0755 16.5132 36.2906 17.183C36.8672 18.9952 38.4053 20.0743 40.5848 20.0743C42.486 20.0743 43.9404 19.3405 44.8157 18.3046C44.9006 18.1973 44.9006 18.0895 44.7941 18.0021L43.5344 16.8801C43.4266 16.794 43.3201 16.8165 43.2128 16.9234C42.7007 17.485 41.9527 17.9164 40.7986 17.9164C39.6458 17.9164 38.8329 17.3556 38.491 16.3418C38.4394 16.1999 38.3965 16.051 38.3695 15.8892H38.3691C38.2913 15.4499 38.2455 15.0222 38.2455 14.394C38.2621 13.802 38.2963 13.4238 38.3803 12.9433C38.3811 12.9367 38.3824 12.9309 38.3836 12.9246C38.3845 12.9196 38.3853 12.9159 38.3861 12.9109C38.4065 12.7977 38.4344 12.6916 38.4689 12.5856C38.7468 11.744 39.516 11.2476 40.4999 11.2476C41.4618 11.2476 42.2297 11.744 42.5076 12.5856C42.5938 12.846 42.6358 13.1035 42.6358 13.4713C42.6358 13.5574 42.5933 13.5998 42.5076 13.5998H39.6999L39.7003 13.5994L39.5244 13.599Z" fill="var(--fill-0, black)"/>
<path id="path27" d="M33.9402 5.16212H31.9774C31.8481 5.16212 31.7628 5.24823 31.7628 5.37637V10.4189V14.5891C31.7628 14.6004 31.7628 14.6116 31.7628 14.6224C31.7628 14.6336 31.7628 14.6449 31.7628 14.6557V15.2094H31.752C31.7291 15.8043 31.6646 16.1954 31.5502 16.5619C31.2727 17.4231 30.61 17.8969 29.6294 17.8969C28.6692 17.8969 28.0082 17.4231 27.7295 16.5619C27.5805 16.0872 27.5173 15.5705 27.5173 14.6224C27.5173 13.6747 27.5805 13.1568 27.7295 12.6838C28.0028 11.8388 28.6426 11.3616 29.5712 11.3429H30.409C30.4498 11.3329 30.4764 11.3009 30.4764 11.2543L30.4873 9.28404C30.4873 9.23371 30.4556 9.20001 30.409 9.19418L29.7401 9.19169H28.9538C27.2336 9.20999 25.9743 10.0491 25.4468 11.6903C25.1905 12.4886 25.084 13.2225 25.084 14.6224C25.084 16.0227 25.1905 16.7558 25.4468 17.5524C25.9801 19.2124 27.2606 20.0527 29.01 20.0527C30.3978 20.0527 31.2515 19.5364 31.7411 18.8242H31.7619V19.6001C31.7619 19.7299 31.8476 19.816 31.9766 19.816H33.9394C34.0675 19.816 34.1532 19.7303 34.1532 19.6001V5.37637C34.1541 5.24782 34.0684 5.16212 33.9402 5.16212Z" fill="var(--fill-0, black)"/>
<path id="path29" d="M85.3962 13.599C85.3412 13.599 85.3038 13.636 85.3038 13.6918V13.7533V13.9339V15.0771V15.2306V15.3192C85.3038 15.375 85.3412 15.4124 85.3962 15.4124H85.4502H90.6892C90.8385 15.4124 90.9242 15.3267 90.9242 15.1982C90.9242 13.5133 90.8169 12.8006 90.5827 12.0676C90.0048 10.2979 88.4664 9.19749 86.3513 9.19749C84.2995 9.19749 82.7187 10.2546 82.1408 12.0676C81.9278 12.7366 81.7988 13.557 81.7988 14.6361C81.7988 15.7153 81.9486 16.5132 82.1637 17.183C82.7399 18.9952 84.2783 20.0743 86.4578 20.0743C88.3591 20.0743 89.8135 19.3405 90.6892 18.3046C90.7741 18.1973 90.774 18.0895 90.6671 18.0021L89.4074 16.8801C89.3001 16.794 89.1936 16.8165 89.0863 16.9234C88.5741 17.485 87.8265 17.9164 86.6717 17.9164C85.5189 17.9164 84.7064 17.3556 84.364 16.3418C84.3128 16.1999 84.2696 16.051 84.2434 15.8892H84.2429C84.1647 15.4499 84.119 15.0222 84.119 14.394C84.1348 13.802 84.1689 13.4238 84.2534 12.9433C84.255 12.9367 84.2558 12.9309 84.2567 12.9246C84.2575 12.9196 84.2583 12.9159 84.2592 12.9109C84.2804 12.7977 84.3078 12.6916 84.3424 12.5856C84.6199 11.744 85.3895 11.2476 86.3734 11.2476C87.3352 11.2476 88.1032 11.744 88.3811 12.5856C88.4668 12.846 88.5097 13.1035 88.5097 13.4713C88.5097 13.5574 88.4668 13.5998 88.3811 13.5998H85.5734L85.3962 13.599Z" fill="var(--fill-0, black)"/>
<path id="path31" d="M79.9146 5.16212H77.9481C77.8195 5.16212 77.7338 5.24865 77.7338 5.37678V10.4264V14.6033V14.6361V14.6698V15.2244H77.7234C77.7001 15.8201 77.6352 16.2116 77.5208 16.5785C77.2429 17.4414 76.5789 17.9165 75.5975 17.9165C74.6365 17.9165 73.9742 17.4414 73.6951 16.5785C73.5466 16.103 73.4817 15.5859 73.4817 14.6361C73.4817 13.6872 73.5457 13.168 73.6951 12.6946C73.9684 11.8484 74.6095 11.375 75.5397 11.3562L76.3788 11.3567C76.5074 11.3567 76.5931 11.2705 76.5931 11.142V9.41259C76.5931 9.28363 76.5074 9.19751 76.3788 9.19751H76.2761L75.0076 9.1971C74.9976 9.1971 74.9877 9.1971 74.9781 9.1971C74.9685 9.1971 74.9598 9.1971 74.9506 9.1971H74.9215C73.1992 9.21499 71.9378 10.0558 71.4099 11.6995C71.1532 12.499 71.0467 13.2333 71.0467 14.6353C71.0467 16.0377 71.1532 16.7724 71.4099 17.5703C71.9436 19.2319 73.2267 20.0739 74.9785 20.0739C76.368 20.0739 77.2229 19.5572 77.7138 18.8438H77.7346V19.6205C77.7346 19.7511 77.8203 19.8368 77.9493 19.8368H79.9154C80.0436 19.8368 80.1297 19.7515 80.1297 19.6205V5.37678C80.128 5.24823 80.0423 5.16212 79.9146 5.16212Z" fill="var(--fill-0, black)"/>
<path id="path33" d="M51.3477 22.7801V24.7467C51.3477 24.876 51.4334 24.9617 51.562 24.9617H58.849C58.9792 24.9617 59.0653 24.8756 59.0653 24.7467V22.7801C59.0653 22.6524 58.9792 22.5663 58.849 22.5663H51.562C51.4334 22.5663 51.3477 22.6524 51.3477 22.7801Z" fill="var(--fill-0, black)"/>
<path id="path35" d="M49.4977 0.0694754C49.4943 0.0661472 49.4923 0.061987 49.4893 0.0590749C49.4889 0.0586588 49.4885 0.0586588 49.4885 0.0586588C49.4511 0.021633 49.3978 0 49.3346 0H49.3321H0.214666C0.198442 0 0.183049 0.00166408 0.168072 0.0041602C0.163912 0.00499224 0.160168 0.00665632 0.155592 0.00748836C0.146023 0.00998448 0.135623 0.0120646 0.126886 0.0158088C0.125222 0.0162248 0.123974 0.0170568 0.122726 0.0178889C0.0465942 0.0490904 0 0.12023 0 0.21425V0.215082V24.7436V24.7453C0 24.8202 0.0291214 24.8788 0.0782118 24.9163C0.081956 24.92 0.0852841 24.9234 0.0902764 24.9258C0.12439 24.9475 0.165992 24.9595 0.214666 24.9595H49.3317H49.3342C49.4066 24.9595 49.4652 24.9317 49.5022 24.8838C49.5314 24.8481 49.5484 24.801 49.5484 24.7449V24.7432V0.215082V0.21425C49.5484 0.155592 49.5297 0.106085 49.4977 0.0694754ZM2.60678 22.5653C2.59139 22.5653 2.57641 22.5641 2.5631 22.562C2.55894 22.5612 2.55436 22.5591 2.5502 22.5579C2.54022 22.5558 2.53023 22.5537 2.52108 22.55C2.51942 22.5495 2.51859 22.5483 2.51692 22.5479C2.44121 22.5171 2.39503 22.4464 2.39461 22.3532V4.57414V2.60845C2.39461 2.51401 2.44121 2.4437 2.51692 2.41208C2.519 2.41167 2.52025 2.41042 2.5215 2.41C2.53023 2.40668 2.55852 2.3996 2.5631 2.39836C2.57724 2.39628 2.59222 2.39503 2.60761 2.39503H46.9404C46.9562 2.39503 46.9708 2.39628 46.9849 2.39836C46.9895 2.3996 46.9936 2.40127 46.9974 2.40252C47.0074 2.4046 47.0174 2.40668 47.0265 2.41042C47.0286 2.41084 47.0294 2.41208 47.0311 2.4125C47.1072 2.4437 47.1534 2.51443 47.1534 2.60886V22.3536C47.153 22.4472 47.1064 22.5179 47.0315 22.5487C47.0298 22.5491 47.029 22.5504 47.0269 22.5508C47.0182 22.5541 47.0078 22.5566 46.9982 22.5587C46.9936 22.5599 46.9899 22.562 46.9853 22.5629C46.9712 22.5653 46.9574 22.5662 46.942 22.5662H2.60678V22.5653Z" fill="var(--fill-0, black)"/>
</g>
</svg>
