<svg preserveAspectRatio="none" width="100%" height="100%" overflow="visible" style="display: block;" viewBox="0 0 70 30" fill="none" xmlns="http://www.w3.org/2000/svg">
<g id="Logo Good Inside">
<path id="Shape" fill-rule="evenodd" clip-rule="evenodd" d="M28.6406 29.9957C27.8826 30.0083 27.1074 29.9923 26.9179 29.9601C26.7284 29.928 26.4029 29.8549 26.1944 29.7977C25.986 29.7404 25.637 29.632 25.419 29.5566C25.2009 29.4813 24.8079 29.3077 24.5456 29.1709C24.2834 29.034 23.8138 28.7169 23.5021 28.4662C23.1905 28.2154 22.8421 27.8953 22.7279 27.7549C22.5677 27.5579 22.5346 27.4694 22.583 27.3674C22.6175 27.2947 23.0485 26.9171 23.5408 26.5283C24.033 26.1395 24.5381 25.7502 24.6632 25.6632C24.7883 25.5762 24.9592 25.5146 25.0429 25.5264C25.1267 25.5382 25.3637 25.7259 25.5695 25.9437C25.7754 26.1615 26.1204 26.4567 26.3363 26.5998C26.5521 26.7429 26.9925 26.9451 27.3148 27.0492C27.8495 27.2219 27.9727 27.2362 28.7186 27.2127C29.4706 27.189 29.5662 27.1706 29.9079 26.9839C30.1219 26.867 30.3519 26.6722 30.4502 26.5247C30.5442 26.3838 30.6366 26.1313 30.6556 25.9637C30.6747 25.7961 30.6697 25.5505 30.6447 25.4179C30.619 25.282 30.5026 25.081 30.3778 24.9571C30.2561 24.8362 29.9704 24.6553 29.743 24.5551C29.5157 24.4549 29.1591 24.3222 28.9506 24.2602C28.7422 24.1982 28.1531 24.0537 27.6414 23.9392C27.1298 23.8247 26.4641 23.6534 26.1621 23.5586C25.8601 23.4638 25.3795 23.2593 25.0941 23.1041C24.7763 22.9314 24.4015 22.6471 24.1272 22.3708C23.8809 22.1226 23.6061 21.7713 23.5165 21.5902C23.427 21.4091 23.311 21.102 23.2589 20.9077C23.2068 20.7134 23.1642 20.2929 23.1642 19.9731C23.1642 19.6533 23.2068 19.2328 23.2589 19.0386C23.311 18.8445 23.4301 18.5213 23.5237 18.3204C23.6173 18.1196 23.8349 17.7706 24.0074 17.5449C24.1799 17.3191 24.5218 16.9884 24.7673 16.81C25.0127 16.6315 25.442 16.3792 25.7212 16.2493C26.0004 16.1194 26.4679 15.9653 26.76 15.9069C27.1067 15.8375 27.6568 15.8015 28.3448 15.803C28.9244 15.8043 29.6311 15.8472 29.9153 15.8983C30.1995 15.9494 30.6337 16.0611 30.88 16.1464C31.1263 16.2318 31.4674 16.3783 31.638 16.472C31.8085 16.5657 32.1341 16.7668 32.3615 16.9189C32.5888 17.0709 32.9377 17.3477 33.1366 17.5339C33.3654 17.748 33.4984 17.9293 33.4984 18.0268C33.4984 18.1301 33.3674 18.2922 33.1022 18.5172C32.8843 18.702 32.434 19.062 32.1017 19.3173C31.7693 19.5726 31.4437 19.7953 31.3781 19.8124C31.3004 19.8326 31.0915 19.6868 30.7766 19.3926C30.5113 19.1447 30.1626 18.8683 30.0016 18.7784C29.8406 18.6884 29.5413 18.5665 29.3364 18.5074C29.0978 18.4385 28.691 18.3999 28.205 18.3999C27.6131 18.3999 27.3805 18.4282 27.1476 18.5288C26.9834 18.5997 26.7654 18.7459 26.6632 18.8537C26.561 18.9615 26.4292 19.1641 26.3703 19.304C26.3115 19.4439 26.2633 19.7022 26.2633 19.8781C26.2633 20.1686 26.2932 20.2274 26.5906 20.5209C26.8496 20.7765 27.0186 20.8745 27.4003 20.9904C27.6655 21.0709 28.3632 21.2442 28.9506 21.3755C29.5381 21.5068 30.3132 21.7092 30.6733 21.8252C31.0333 21.9413 31.5751 22.1639 31.8773 22.3199C32.2203 22.4969 32.5898 22.7622 32.8605 23.0257C33.1801 23.3368 33.3607 23.5892 33.5467 23.9848C33.7856 24.4928 33.8008 24.5674 33.8297 25.3692C33.8534 26.0281 33.8343 26.3092 33.7436 26.633C33.6794 26.862 33.5024 27.287 33.3502 27.5775C33.1449 27.9691 32.9332 28.2386 32.5314 28.6196C32.1768 28.9559 31.8156 29.2207 31.4864 29.3856C31.2097 29.5242 30.7663 29.713 30.501 29.8052C30.0631 29.9574 29.8917 29.9749 28.6406 29.9957ZM2.86989 16.1084C5.35754 16.0756 5.69801 16.0916 5.74067 16.1583C5.77125 16.2061 5.79674 19.2518 5.79732 22.9266C5.79827 28.9102 5.78707 29.6191 5.6901 29.7154C5.59908 29.8057 5.36804 29.8228 4.24092 29.8228C3.23164 29.8228 2.8919 29.8017 2.86719 29.7373C2.84914 29.6903 2.84236 26.6046 2.85213 22.8801L2.86989 16.1084ZM17.9602 16.1084C20.2617 16.0755 20.5816 16.0916 20.6242 16.1582C20.6548 16.2061 20.6803 19.2518 20.6809 22.9266C20.6819 28.9102 20.6707 29.6191 20.5737 29.7154C20.4825 29.8059 20.2484 29.8228 19.0893 29.8228H17.7132L17.0443 28.7992C16.6764 28.2362 16.0983 27.3359 15.7596 26.7985C15.4209 26.2611 14.9675 25.5444 14.752 25.2058C14.5365 24.8672 14.1658 24.2824 13.9282 23.9061C13.6907 23.5299 13.1581 22.6681 12.7446 21.9909C12.3311 21.3138 11.9493 20.6981 11.896 20.6229C11.8124 20.5047 11.7896 20.5001 11.7283 20.5887C11.6815 20.6564 11.6571 22.2289 11.6564 25.2156C11.6555 29.2774 11.6442 29.744 11.5464 29.7813C11.4864 29.8042 10.915 29.8228 10.2765 29.8228C9.31309 29.8228 9.09727 29.8046 9.0074 29.7154C8.91045 29.6191 8.89912 28.9113 8.89912 22.9492C8.89912 19.287 8.91795 16.2419 8.94095 16.1824C8.9774 16.0881 9.18496 16.0742 10.5557 16.0742C12.1286 16.0742 12.1286 16.0742 12.4957 16.6043C12.6976 16.8959 13.2616 17.7654 13.7491 18.5367C14.2366 19.3079 14.8564 20.2871 15.1264 20.7126C15.3965 21.1381 15.7896 21.7537 16.0001 22.0806C16.2105 22.4075 16.6418 23.1059 16.9584 23.6325C17.275 24.1592 17.5903 24.65 17.6591 24.7232C17.7279 24.7963 17.8082 24.8322 17.8377 24.803C17.8672 24.7738 17.9068 22.8055 17.9257 20.4291L17.9602 16.1084ZM39.3898 16.1084C39.4242 29.1858 39.4174 29.6577 39.3083 29.7373C39.2249 29.7983 38.8437 29.8222 37.9813 29.8208C37.2884 29.8196 36.7199 29.7889 36.6508 29.749C36.5373 29.6833 36.5303 29.2879 36.5313 22.9622C36.5319 19.2679 36.5574 16.2061 36.588 16.1583C36.6306 16.0916 36.9642 16.0756 38.0167 16.0898L39.3898 16.1084ZM45.8799 29.8228C43.6518 29.8228 42.8762 29.8021 42.8144 29.7408C42.7512 29.678 42.7317 28.0676 42.7317 22.909C42.7317 17.1004 42.7457 16.1479 42.8315 16.0772C42.9071 16.0149 43.6967 16.0017 46.0873 16.0225C49.2433 16.05 49.2433 16.05 49.8635 16.2385C50.2046 16.3422 50.7677 16.5645 51.1148 16.7325C51.462 16.9005 51.9426 17.1872 52.1828 17.3695C52.4231 17.5518 52.7661 17.8441 52.945 18.0189C53.124 18.1937 53.4066 18.5126 53.573 18.7274C53.7395 18.9423 53.9928 19.3489 54.136 19.6311C54.2792 19.9132 54.4638 20.3442 54.5462 20.5887C54.6286 20.8332 54.7405 21.218 54.7948 21.4437C54.8586 21.7088 54.8936 22.2309 54.8936 22.9179C54.8936 23.7937 54.8665 24.087 54.7402 24.5774C54.6558 24.9051 54.4913 25.401 54.3745 25.6794C54.2577 25.9579 54.0477 26.372 53.9077 26.5996C53.7678 26.8272 53.4905 27.2075 53.2916 27.4448C53.0927 27.682 52.7126 28.0448 52.447 28.251C52.1814 28.4571 51.7751 28.7397 51.5443 28.8789C51.3134 29.0182 50.9183 29.2098 50.6662 29.3049C50.4142 29.3999 49.9053 29.5554 49.5353 29.6503C48.8666 29.8218 48.845 29.8228 45.8799 29.8228ZM57.4431 16.1084C65.7616 16.077 66.7481 16.0913 66.7916 16.1593C66.8218 16.2065 66.847 16.7586 66.8476 17.3861C66.8485 18.333 66.8303 18.5452 66.7404 18.6344C66.6452 18.7289 66.2564 18.7419 63.5092 18.7419C60.7251 18.7419 60.3818 18.7536 60.3445 18.8501C60.3215 18.9096 60.3027 19.4885 60.3027 20.1366C60.3027 20.9721 60.3277 21.3486 60.3888 21.4304C60.4671 21.5355 60.7623 21.5475 63.6446 21.5632L66.8142 21.5805V22.8801V24.1798L63.6248 24.214C60.8918 24.2433 60.4257 24.2628 60.3677 24.3508C60.3279 24.4113 60.3077 24.9771 60.3186 25.7303C60.3288 26.4327 60.3629 27.0329 60.3945 27.0642C60.426 27.0954 61.8834 27.1364 63.633 27.1552L66.8142 27.1894L66.833 28.3971C66.8491 29.4278 66.8357 29.6207 66.742 29.7138C66.6437 29.8114 66.1587 29.8228 62.1369 29.8228C58.6491 29.8228 57.6154 29.8037 57.5246 29.7373C57.4155 29.6577 57.4087 29.1858 57.4253 22.8801L57.4431 16.1084ZM45.7854 18.7419C45.7154 20.7298 45.695 22.5587 45.6949 24.0887C45.6948 25.6186 45.7152 26.9235 45.7403 26.9883C45.782 27.0962 45.8976 27.1028 47.1011 27.066C48.1773 27.0331 48.5041 26.9988 48.8988 26.8773C49.1641 26.7956 49.5582 26.6402 49.7746 26.5319C50.0058 26.4163 50.3676 26.1352 50.6516 25.8504C50.9526 25.5487 51.2147 25.2052 51.3459 24.9406C51.4618 24.7068 51.6017 24.3477 51.6567 24.1425C51.7189 23.9107 51.7566 23.4455 51.7565 22.9143C51.7563 22.4399 51.7151 21.8859 51.6639 21.6697C51.613 21.4555 51.4886 21.1119 51.3873 20.9064C51.2859 20.7008 51.0037 20.3188 50.76 20.0576C50.4547 19.7302 50.1715 19.5077 49.8491 19.3417C49.5917 19.2091 49.2261 19.0551 49.0366 18.9993C48.8471 18.9436 48.5443 18.8628 48.3638 18.8199C48.1832 18.777 47.5292 18.7419 46.9104 18.7419H45.7854ZM15.0414 14.1516C14.5244 14.1475 13.8541 14.0997 13.5518 14.0454C13.2495 13.9911 12.7689 13.8692 12.4838 13.7744C12.1987 13.6795 11.6737 13.4426 11.3172 13.2478C10.9606 13.053 10.5115 12.7551 10.3192 12.5858C10.1268 12.4165 9.8139 12.1125 9.62378 11.9103C9.43366 11.708 9.15774 11.3694 9.01063 11.1579C8.86352 10.9463 8.65751 10.5885 8.55283 10.3628C8.44815 10.137 8.28451 9.72145 8.18917 9.43926C8.09384 9.15706 7.97427 8.72613 7.92346 8.48164C7.87024 8.22553 7.83109 7.60224 7.83109 7.0111C7.83109 6.25706 7.86433 5.84574 7.9565 5.45941C8.02547 5.17029 8.18752 4.66669 8.31659 4.34032C8.44567 4.01393 8.65903 3.55563 8.79072 3.32187C8.92241 3.0881 9.24098 2.65482 9.49866 2.35902C9.75634 2.06321 10.1997 1.64291 10.484 1.42501C10.7682 1.20711 11.2129 0.917318 11.4721 0.781026C11.7314 0.644733 12.1655 0.462471 12.4368 0.376001C12.7081 0.289527 13.1533 0.169554 13.426 0.10939C13.771 0.0333113 14.2702 0 15.0655 0C15.8356 0 16.3823 0.0351857 16.74 0.107774C17.0321 0.167053 17.4424 0.270836 17.6518 0.338406C17.8612 0.405972 18.2333 0.559891 18.4787 0.680445C18.7241 0.800998 19.0024 0.953923 19.0971 1.02028C19.1919 1.08664 19.3454 1.18433 19.4383 1.23737C19.5312 1.29042 19.7327 1.44143 19.8862 1.57296C20.0396 1.70448 20.297 1.94358 20.458 2.10427C20.6191 2.26496 20.7509 2.45753 20.7509 2.53221C20.7509 2.62005 20.6077 2.76833 20.3453 2.95227C20.1223 3.10863 19.6339 3.45274 19.2601 3.71694C18.8862 3.98115 18.5158 4.20971 18.4369 4.22487C18.3344 4.24454 18.167 4.13315 17.8512 3.83533C17.608 3.60594 17.2202 3.32712 16.9894 3.21573C16.7587 3.10435 16.3711 2.9667 16.1281 2.90984C15.8851 2.85298 15.4066 2.80601 15.0648 2.80545C14.6496 2.80478 14.2761 2.85043 13.9397 2.94297C13.6627 3.01917 13.2536 3.17293 13.0306 3.28468C12.7925 3.40399 12.4133 3.6954 12.112 3.99071C11.7581 4.33747 11.5233 4.64228 11.3558 4.9726C11.2221 5.23607 11.0565 5.66169 10.9878 5.91844C10.9012 6.24206 10.8642 6.61761 10.8669 7.14278C10.8702 7.76369 10.904 8.0058 11.0544 8.48519C11.1554 8.80686 11.3572 9.25319 11.5029 9.47702C11.6487 9.70086 11.9609 10.0574 12.1968 10.2693C12.4327 10.4812 12.8297 10.7543 13.0791 10.8761C13.3285 10.998 13.6916 11.1398 13.8859 11.1911C14.0945 11.2463 14.5949 11.2849 15.1071 11.2854C15.7976 11.286 16.0568 11.2582 16.3763 11.149C16.5971 11.0736 16.9159 10.9316 17.0847 10.8334C17.2536 10.7352 17.5109 10.5478 17.6567 10.4171C17.8025 10.2864 18.035 10.0229 18.1735 9.83159C18.3119 9.64029 18.4679 9.38241 18.52 9.25854C18.5721 9.13467 18.6148 8.95539 18.6148 8.86013C18.6148 8.68693 18.6148 8.68693 16.7255 8.68693C15.6864 8.68693 14.7872 8.66824 14.7273 8.64541C14.6334 8.60964 14.6183 8.43056 14.6183 7.35311C14.6183 6.27566 14.6334 6.09657 14.7273 6.06081C14.7872 6.03797 16.3958 6.01929 18.3019 6.01929C21.3151 6.01929 21.7789 6.03283 21.8543 6.12301C21.9198 6.20135 21.9322 6.51514 21.9051 7.40553C21.877 8.3318 21.8365 8.70155 21.7165 9.13153C21.6324 9.4325 21.5181 9.78647 21.4625 9.91815C21.4069 10.0498 21.2589 10.373 21.1336 10.6364C21.0083 10.8997 20.7617 11.305 20.5856 11.537C20.4095 11.7691 20.0227 12.1846 19.7261 12.4604C19.4295 12.7363 18.9419 13.0994 18.6424 13.2673C18.343 13.4353 17.9224 13.6432 17.7078 13.7294C17.4931 13.8156 17.0168 13.9475 16.6494 14.0225C16.1559 14.1233 15.7355 14.1571 15.0414 14.1516ZM29.338 14.1532C28.7875 14.1494 28.3031 14.1031 27.9171 14.0173C27.5949 13.9457 27.1143 13.7795 26.849 13.6479C26.5837 13.5163 26.1496 13.2463 25.8843 13.048C25.5714 12.8139 25.2384 12.4713 24.9362 12.0722C24.68 11.7339 24.3783 11.2377 24.2658 10.9694C24.1532 10.7011 24.0104 10.1932 23.9484 9.84074C23.8702 9.39624 23.8481 9.01135 23.8762 8.58433C23.8985 8.24574 23.9651 7.78403 24.0242 7.55831C24.0833 7.33259 24.2379 6.92419 24.3678 6.65076C24.4977 6.37732 24.7825 5.92338 25.0007 5.64199C25.235 5.33978 25.6054 4.97614 25.9057 4.75354C26.1852 4.54627 26.6359 4.27105 26.9071 4.14195C27.1917 4.00646 27.6962 3.84759 28.1001 3.76623C28.4851 3.68869 29.0383 3.62525 29.3296 3.62525C29.6209 3.62525 30.1723 3.68859 30.555 3.76601C30.9377 3.84342 31.4697 4.00796 31.7372 4.13165C32.0048 4.25533 32.4739 4.54175 32.7798 4.76813C33.0856 4.9945 33.4464 5.31476 33.5815 5.4798C33.7166 5.64485 33.947 5.96522 34.0934 6.19174C34.2399 6.41826 34.441 6.84918 34.5404 7.14935C34.6397 7.44952 34.756 7.84176 34.7988 8.021C34.8415 8.20024 34.8765 8.61032 34.8765 8.93229C34.8765 9.29565 34.8212 9.74283 34.7308 10.1112C34.6506 10.4377 34.4655 10.951 34.3194 11.252C34.1733 11.5529 33.8891 11.9992 33.6878 12.2438C33.4865 12.4883 33.1156 12.8423 32.8636 13.0304C32.6116 13.2185 32.204 13.4737 31.9577 13.5974C31.7114 13.7212 31.2091 13.8982 30.8416 13.9907C30.3023 14.1265 30.012 14.1579 29.338 14.1532ZM42.1116 14.1517C41.4717 14.1474 41.0908 14.1071 40.6301 13.9948C40.289 13.9117 39.8404 13.7586 39.6331 13.6546C39.4258 13.5506 39.0692 13.3329 38.8406 13.1707C38.6121 13.0086 38.2648 12.7074 38.0689 12.5013C37.873 12.2953 37.604 11.9581 37.4712 11.752C37.3384 11.5459 37.1501 11.1829 37.0529 10.9453C36.9556 10.7076 36.8249 10.3108 36.7624 10.0634C36.6926 9.78737 36.6488 9.33507 36.6488 8.89213C36.6488 8.44458 36.6934 7.98937 36.7662 7.69343C36.8308 7.43101 37.0335 6.9085 37.2167 6.5323C37.4472 6.05917 37.678 5.7096 37.9654 5.39846C38.194 5.15105 38.6205 4.78423 38.9133 4.5833C39.2061 4.38236 39.6676 4.13244 39.9388 4.02791C40.21 3.92338 40.719 3.78571 41.0699 3.72198C41.5317 3.63811 41.9017 3.61681 42.4093 3.64487C42.7951 3.66619 43.3433 3.74428 43.6275 3.8184C43.9118 3.89253 44.3148 4.03116 44.5233 4.12647C44.7317 4.22178 45.1 4.43693 45.3416 4.60459C45.5833 4.77224 45.9183 5.04151 46.0861 5.20297C46.2539 5.36442 46.5596 5.75033 46.7654 6.06055C46.9712 6.37076 47.2049 6.78849 47.2847 6.98884C47.3645 7.18919 47.4735 7.57897 47.5269 7.85503C47.5803 8.13109 47.624 8.61317 47.624 8.92633C47.624 9.23949 47.578 9.73461 47.5217 10.0266C47.4654 10.3186 47.3033 10.8031 47.1614 11.1031C47.0196 11.4032 46.746 11.8593 46.5534 12.1166C46.3609 12.3739 45.9985 12.7463 45.7481 12.9442C45.4977 13.1421 45.0741 13.4211 44.8068 13.5642C44.532 13.7113 44.028 13.8967 43.6469 13.9909C43.1024 14.1254 42.8074 14.1563 42.1116 14.1517ZM54.239 13.9197C53.0831 13.925 51.6744 13.9186 51.1085 13.9055C50.5008 13.8914 50.0425 13.851 49.9888 13.8067C49.9147 13.7457 49.8979 12.496 49.8979 7.03546C49.8979 0.33907 49.8979 0.33907 50.057 0.267141C50.1584 0.221247 51.2371 0.190829 53.0371 0.183105C55.8583 0.171002 55.8583 0.171002 56.6785 0.358613C57.1297 0.461794 57.7186 0.646478 57.9872 0.769019C58.2558 0.891555 58.708 1.14213 58.9919 1.32586C59.2759 1.50959 59.7215 1.86356 59.9821 2.11247C60.2426 2.36138 60.5924 2.75429 60.7593 2.9856C60.9262 3.21691 61.2007 3.69534 61.3694 4.04879C61.5381 4.40224 61.7409 4.95172 61.8202 5.26985C61.9061 5.61454 61.9805 6.19627 62.0043 6.70943C62.0345 7.36117 62.015 7.74372 61.9243 8.28265C61.8583 8.67429 61.7285 9.1948 61.6359 9.43934C61.5432 9.68387 61.3469 10.1056 61.1998 10.3765C61.0526 10.6474 60.801 11.0453 60.6407 11.2607C60.4803 11.4762 60.1914 11.804 59.9986 11.989C59.8058 12.1741 59.4879 12.4447 59.2922 12.5903C59.0965 12.7359 58.6284 13.0087 58.252 13.1965C57.8756 13.3843 57.2915 13.6216 56.9541 13.724C56.3476 13.9079 56.3165 13.9102 54.239 13.9197ZM29.4674 11.4019C30.1007 11.3855 30.1914 11.3654 30.5884 11.1539C30.826 11.0273 31.1318 10.8012 31.2681 10.6515C31.4044 10.5017 31.5973 10.2062 31.6968 9.99475C31.8401 9.69015 31.8825 9.48254 31.9014 8.99473C31.9211 8.48491 31.8985 8.30864 31.7703 7.96898C31.6644 7.68874 31.4935 7.43105 31.2304 7.15534C30.9922 6.90556 30.7012 6.68552 30.4666 6.57775C30.19 6.45071 29.9361 6.39573 29.527 6.37431C29.0721 6.3505 28.8771 6.37442 28.4937 6.50109C28.1273 6.62212 27.9332 6.74036 27.6304 7.02708C27.4156 7.23051 27.1519 7.56366 27.0444 7.76742C26.8635 8.11047 26.849 8.1949 26.849 8.90831C26.849 9.58596 26.8691 9.71895 27.0159 10.0126C27.1077 10.1963 27.3403 10.5067 27.5329 10.7025C27.7255 10.8983 27.9915 11.107 28.124 11.1662C28.2565 11.2254 28.458 11.3067 28.5717 11.3468C28.6853 11.3869 29.0884 11.4116 29.4674 11.4019ZM42.215 11.4046C42.7286 11.3876 42.9851 11.3455 43.2225 11.2391C43.3977 11.1606 43.6716 10.9792 43.8313 10.8361C43.9909 10.6929 44.2093 10.4491 44.3166 10.2942C44.424 10.1394 44.5646 9.83228 44.6292 9.61175C44.7106 9.33366 44.737 9.06126 44.7151 8.72282C44.6941 8.39866 44.6252 8.1098 44.5097 7.86237C44.4141 7.65752 44.2059 7.34483 44.047 7.16752C43.8673 6.96698 43.5842 6.76015 43.2981 6.62031C42.9207 6.43586 42.7393 6.39101 42.2879 6.37049C41.8972 6.35273 41.6272 6.38003 41.3562 6.4647C41.1464 6.53027 40.8457 6.67192 40.688 6.77949C40.5303 6.88704 40.2925 7.10118 40.1596 7.25534C40.0267 7.40951 39.8463 7.71003 39.7587 7.92318C39.6378 8.21757 39.5992 8.44557 39.598 8.87172C39.597 9.24601 39.6391 9.55334 39.7245 9.79514C39.7949 9.99446 39.9479 10.2807 40.0645 10.4312C40.1811 10.5816 40.3802 10.7932 40.5069 10.9013C40.6337 11.0094 40.9148 11.172 41.1316 11.2626C41.4774 11.4071 41.6107 11.4246 42.215 11.4046ZM54.2244 11.1992C55.1008 11.1745 55.6441 11.1273 55.9208 11.0516C56.1447 10.9904 56.5455 10.8267 56.8116 10.688C57.0776 10.5492 57.4681 10.2767 57.6793 10.0825C57.8904 9.88826 58.1801 9.53327 58.3229 9.29364C58.4657 9.054 58.6518 8.64508 58.7363 8.38493C58.8622 7.99768 58.8901 7.75495 58.8901 7.04597C58.8901 6.31661 58.8645 6.10529 58.728 5.70634C58.6389 5.44583 58.4703 5.05295 58.3534 4.83329C58.2223 4.58698 57.9675 4.27772 57.6886 4.02643C57.4399 3.80232 57.0193 3.51225 56.754 3.38182C56.4887 3.25139 56.0546 3.09769 55.7893 3.04026C55.5241 2.98284 54.8011 2.91706 54.1829 2.89408C53.268 2.86009 53.0417 2.87014 52.9672 2.94808C52.8946 3.02414 52.8657 3.85152 52.827 6.96906C52.7913 9.847 52.7992 10.9398 52.8567 11.0649C52.935 11.2356 52.935 11.2356 54.2244 11.1992Z" fill="var(--fill-0, black)"/>
</g>
</svg>
