<svg preserveAspectRatio="none" width="100%" height="100%" overflow="visible" style="display: block;" viewBox="0 0 90 24" fill="none" xmlns="http://www.w3.org/2000/svg">
<g id="Graphic" clip-path="url(#clip0_0_24)">
<path id="Vector" d="M15.7044 17.9288C15.7044 17.6619 15.5265 17.4839 15.1705 17.3949V17.217C15.3485 17.217 16.0158 17.2615 16.1938 17.2615C16.3273 17.2615 16.9945 17.217 17.1725 17.217V17.3949C16.8611 17.4839 16.6831 17.6619 16.6831 17.9288V21.2655C16.6831 22.3331 17.2615 22.9115 18.4627 22.9115C19.5304 22.9115 20.3312 22.4221 20.3312 21.3099V17.8843C20.3312 17.6174 20.1533 17.4395 19.7973 17.3505V17.217C19.9308 17.217 20.4647 17.2615 20.6426 17.2615C20.8205 17.2615 21.3544 17.217 21.4879 17.217V17.3949C21.0875 17.4839 20.954 17.6619 20.954 17.9288V21.1765C20.954 22.6446 20.1087 23.4899 18.2847 23.4899C16.5941 23.4899 15.7044 22.7335 15.7044 21.3544V17.9288ZM23.0005 23.2229C23.4009 23.1339 23.5343 22.956 23.5343 22.6891V18.0623C23.5343 17.6619 23.3119 17.4839 22.956 17.3949V17.217H24.2461L28.2501 21.9328V17.9288C28.2501 17.6619 28.0721 17.4839 27.7163 17.3949V17.217C27.8497 17.217 28.3836 17.2615 28.5615 17.2615C28.7395 17.2615 29.2733 17.217 29.4068 17.217V17.3949C29.0064 17.4839 28.8285 17.6619 28.8285 17.9288V23.4899H28.606C28.4725 23.4454 28.1611 23.3119 27.7163 22.8225L24.1127 18.6406V22.7335C24.1127 23.0005 24.2462 23.1785 24.6465 23.2674V23.4454C24.5131 23.4454 23.9792 23.4009 23.8013 23.4009C23.6233 23.4009 23.0895 23.4454 22.956 23.4454L23.0005 23.2229ZM54.6762 21.9773H54.8542C54.9431 22.3331 55.1211 22.6446 55.4325 22.8225C55.6995 23.045 56.1888 23.1339 56.5447 23.1339C57.3455 23.1339 57.8794 22.7335 57.8794 22.1107C57.8794 21.4434 57.2121 21.132 56.4557 20.7316C55.8774 20.4202 54.7207 19.9753 54.7207 18.8631C54.7207 17.8399 55.5215 17.1725 56.7672 17.1725C57.6125 17.1725 57.9683 17.3949 58.5467 17.3505V18.5961H58.3687C58.1463 17.8399 57.479 17.6174 56.7227 17.6174C55.8774 17.6174 55.6105 18.1068 55.6105 18.5517C55.6105 19.219 56.2778 19.5749 57.0341 19.9308C57.8794 20.2867 58.8137 20.7761 58.8137 21.8438C58.8137 22.867 58.0129 23.5789 56.5892 23.5789C55.7439 23.5789 55.2101 23.3119 54.7652 23.2674L54.6762 21.9773ZM71.8933 20.8205L70.2473 18.1957C69.98 17.7509 69.758 17.4839 69.4467 17.3949V17.217C69.6687 17.217 70.2913 17.2615 70.4253 17.2615C70.6033 17.2615 71.226 17.217 71.4927 17.217V17.3949C71.2707 17.4395 71.1813 17.5284 71.1813 17.7064C71.1813 17.8399 71.2707 18.0178 71.3593 18.1957C71.448 18.3292 72.5607 20.1977 72.5607 20.1977L73.7173 18.1957C73.8507 17.9733 73.8953 17.7953 73.8953 17.6619C73.8953 17.5284 73.806 17.4395 73.628 17.4395V17.217C73.806 17.217 74.2513 17.2615 74.3847 17.2615C74.518 17.2615 75.0073 17.217 75.1853 17.217V17.3949C74.7407 17.5729 74.4733 17.9733 74.2067 18.4182L72.7387 20.9095M72.8273 20.5981V22.6891C72.8273 22.9115 73.0053 23.1785 73.3613 23.2229V23.4009C73.1833 23.4009 72.516 23.3564 72.338 23.3564C72.16 23.3564 71.5373 23.4009 71.3147 23.4009V23.2229C71.6707 23.1339 71.8487 22.9115 71.8487 22.6891V20.6871M41.5521 17.217H45.3781C45.5116 17.217 45.6895 17.217 45.823 17.128H46.001L45.9565 18.3737H45.7785C45.6451 17.9733 45.4671 17.6619 44.7553 17.6619H43.1093V19.8863H44.3994C44.5773 19.8863 44.7998 19.8863 44.8888 19.8418C45.1557 19.7973 45.2891 19.6194 45.3781 19.3525H45.5561V20.9095H45.3781C45.2891 20.6426 45.2002 20.4647 44.8888 20.4201C44.7998 20.3757 44.5773 20.3757 44.3994 20.3757H43.1093V22.9115H44.9333C45.7341 22.9115 45.9565 22.6001 46.1345 22.1107H46.3124L46.1345 23.4009C45.5561 23.3564 45.2002 23.3564 44.5329 23.3564H42.6199C42.4419 23.3564 41.7746 23.4009 41.5521 23.4009V23.2229C41.9081 23.1339 42.086 23.0005 42.086 22.6446V17.9288C42.086 17.6174 41.9081 17.4395 41.5521 17.3949V17.217ZM31.7647 17.9733C31.7647 17.6619 31.5867 17.4839 31.2309 17.3949V17.217C31.4533 17.217 32.0761 17.2615 32.2985 17.2615C32.4765 17.2615 33.1439 17.217 33.3663 17.217V17.3949C33.0104 17.4839 32.7879 17.6174 32.7879 17.9733V22.6446C32.7879 22.956 32.9659 23.1339 33.3663 23.2229V23.4009C33.1439 23.4009 32.521 23.3564 32.2985 23.3564C32.1206 23.3564 31.4533 23.4009 31.2309 23.4009V23.2229C31.6313 23.1339 31.8092 23.0005 31.8092 22.6446L31.7647 17.9733ZM60.8156 17.9733C60.8156 17.6619 60.6377 17.4839 60.2817 17.3949V17.217C60.5042 17.217 61.1715 17.2615 61.3495 17.2615C61.5274 17.2615 62.1947 17.217 62.4172 17.217V17.3949C62.0613 17.4839 61.8833 17.6174 61.8833 17.9733V22.6446C61.8833 22.956 62.0613 23.1339 62.4172 23.2229V23.4009C62.1947 23.4009 61.5719 23.3564 61.3495 23.3564C61.1715 23.3564 60.5042 23.4009 60.2817 23.4009V23.2229C60.6821 23.1339 60.8156 23.0005 60.8156 22.6446V17.9733ZM66.1542 17.2615C64.0633 17.2615 63.7073 17.217 63.3069 17.1725V18.4182H63.4849C63.6629 17.8399 63.9743 17.7064 64.3747 17.7064H65.7093V22.6001C65.7093 22.9115 65.5314 23.0895 65.131 23.1785V23.3564C65.3534 23.3564 66.0207 23.3119 66.1987 23.3119C66.3767 23.3119 67.044 23.3564 67.2667 23.3564V23.1785C66.9107 23.0895 66.688 22.9115 66.688 22.6001V17.7064H67.978C68.3787 17.7064 68.69 17.8399 68.868 18.4182H69.046V17.1725C68.5567 17.217 68.2453 17.2615 66.1542 17.2615ZM49.3821 22.6446C49.3821 22.956 49.5601 23.1339 49.9605 23.2229V23.4009C49.738 23.4009 49.0707 23.3564 48.8927 23.3564C48.7148 23.3564 48.0919 23.4009 47.8695 23.4009V23.2229C48.2254 23.1339 48.4033 23.0005 48.4033 22.6446V17.9288C48.4033 17.6174 48.2254 17.4395 47.8695 17.3949V17.217C48.0919 17.217 48.7148 17.2615 48.8927 17.2615C49.2041 17.2615 50.0494 17.217 50.4053 17.217C51.8735 17.217 52.6743 17.8399 52.6743 18.8631C52.6743 19.6639 52.0514 20.2422 51.1171 20.4647C51.1171 20.4647 51.3396 20.5981 51.562 20.8205C51.8289 21.132 52.5408 22.1107 52.8077 22.4666C53.0747 22.8225 53.475 23.2229 53.8754 23.2229V23.3564C53.6975 23.4009 53.3861 23.4454 53.1636 23.4454C52.6743 23.4454 52.2739 23.2674 51.8735 22.8225C51.5175 22.4221 50.9837 21.5769 50.6278 21.132C50.4053 20.8651 50.1384 20.6426 49.6935 20.5536C49.6045 20.5536 49.5155 20.5091 49.4266 20.5091L49.3821 22.6446ZM49.3821 20.1533C49.5601 20.1977 49.8715 20.1977 50.1384 20.1977C51.2951 20.1977 51.651 19.5304 51.651 18.9521C51.651 18.1068 51.1171 17.6174 50.0939 17.6174C49.8715 17.6174 49.6045 17.6619 49.3821 17.7064V20.1533ZM34.7899 17.9733C34.6565 17.6619 34.434 17.4395 34.0781 17.3949V17.217C34.3005 17.217 35.0569 17.2615 35.2348 17.2615C35.3683 17.2615 36.0356 17.217 36.258 17.217V17.3949C36.0801 17.4395 35.8131 17.5284 35.8131 17.7509C35.8131 17.8843 35.9021 18.1068 36.0801 18.4627L37.6817 22.0663L39.1943 18.4627C39.3277 18.1513 39.4167 17.9288 39.4167 17.7953C39.4167 17.6174 39.2387 17.4839 38.9718 17.4395V17.217C39.1498 17.217 39.6391 17.2615 39.8171 17.2615C39.9505 17.2615 40.5289 17.217 40.7513 17.217V17.3949C40.3955 17.4839 40.1285 17.7064 39.9505 18.1957L37.7261 23.4009H37.2368L34.7899 17.9733ZM40.4844 1.55709C40.2175 0.978747 39.8171 0.578349 39.1943 0.444884V0.133465C39.5947 0.133465 40.9738 0.177953 41.2852 0.177953C41.5521 0.177953 42.8868 0.133465 43.3317 0.133465V0.444884C42.9758 0.533861 42.5309 0.711813 42.5309 1.11221C42.5309 1.37914 42.7089 1.77953 43.0203 2.44686L46.0455 9.29807L48.8927 2.44686C49.1152 1.913 49.2931 1.46811 49.2931 1.1567C49.2931 0.800793 48.9372 0.533861 48.4923 0.444884V0.133465C48.8927 0.133465 49.7825 0.177953 50.0939 0.177953C50.3609 0.177953 51.4285 0.133465 51.8735 0.133465V0.444884C51.1617 0.622837 50.7167 1.06772 50.3163 1.95749L46.1345 11.8339H45.2002L40.4844 1.55709ZM0 11.4335C0.533861 11.3001 0.934253 11.0776 0.934253 10.4548V1.42363C0.934253 0.84528 0.578349 0.578349 0 0.444884V0.0889767C0.26693 0.0889767 1.51261 0.133465 1.82402 0.133465C2.17993 0.133465 3.47009 0.0889767 3.73703 0.0889767V0.400395C3.20317 0.533861 2.80277 0.7563 2.80277 1.37914V5.20514H9.565V1.42363C9.565 0.800793 9.20907 0.533861 8.63073 0.444884V0.0889767C8.89767 0.0889767 10.1879 0.133465 10.5437 0.133465C10.8551 0.133465 12.1009 0.0889767 12.4123 0.0889767V0.400395C11.8784 0.533861 11.478 0.7563 11.478 1.37914V10.4103C11.478 10.9886 11.8339 11.2555 12.4123 11.389V11.7005C12.1453 11.7005 10.8551 11.6559 10.5437 11.6559C10.1879 11.6559 8.94213 11.7005 8.63073 11.7005V11.4335C9.1646 11.3001 9.565 11.0776 9.565 10.4548V6.18389H2.80277V10.4548C2.80277 11.0776 3.15867 11.3001 3.73703 11.4335V11.7449C3.47009 11.7449 2.13544 11.7005 1.82402 11.7005C1.51261 11.7005 0.311419 11.7449 0 11.7449V11.4335ZM77.9433 11.4335C78.6553 11.3001 79.0113 11.0331 79.0113 10.4103V1.42363C79.0113 0.800793 78.6107 0.533861 77.9433 0.444884V0.0889767C78.344 0.0889767 79.59 0.133465 79.9453 0.133465C80.524 0.133465 82.0813 0 83.3267 0C87.464 0 90 2.31339 90 5.82798C90 9.2536 87.3753 11.7894 83.104 11.7894C81.8587 11.7894 80.4347 11.7005 79.8567 11.7005C79.5007 11.7005 78.344 11.7449 77.9433 11.7449V11.4335ZM80.88 10.8551C81.3247 10.9441 82.0813 10.9886 82.704 10.9886C86.174 10.9886 87.998 8.89767 87.998 5.96144C87.998 2.93623 86.0853 0.800793 82.8373 0.800793C82.17 0.800793 81.3247 0.84528 80.88 0.934253V10.8551ZM31.0084 10.3658C31.0084 10.9441 31.4088 11.3001 32.0761 11.4335V11.7449C31.6757 11.7449 30.4301 11.7005 30.0297 11.7005C29.7183 11.7005 28.4725 11.7449 28.0721 11.7449V11.4335C28.7395 11.3001 29.0954 10.9886 29.0954 10.3658V1.46811C29.0954 0.934253 28.784 0.578349 28.0721 0.444884V0.0889767C28.4725 0.0889767 29.6737 0.133465 30.0297 0.133465C30.608 0.133465 32.2096 0.0444881 32.8769 0.0444881C35.6797 0.0444881 37.2368 1.20119 37.2368 3.15867C37.2368 4.71577 36.0801 5.739 34.3005 6.18389C34.3005 6.18389 34.7009 6.40633 35.1013 6.89567C35.5907 7.47407 36.9699 9.43153 37.5037 10.0989C38.0375 10.7662 38.7494 11.5225 39.5057 11.5225V11.7894C39.1498 11.8784 38.5714 11.9229 38.1265 11.9229C37.1923 11.9229 36.436 11.567 35.6797 10.6772C35.0569 9.92093 33.9447 8.27487 33.3218 7.47407C32.9214 6.9402 32.432 6.53979 31.5423 6.40633C31.3643 6.36184 31.1863 6.36184 31.0084 6.31735V10.3658ZM31.0084 5.65003C31.3643 5.69451 31.9427 5.739 32.4765 5.739C34.6565 5.739 35.3238 4.49333 35.3238 3.38111C35.3238 1.82402 34.2561 0.84528 32.3875 0.84528C31.9871 0.84528 31.4088 0.889767 31.0084 0.978747V5.65003ZM67.756 10.3658C67.756 10.9441 68.156 11.3001 68.8233 11.4335V11.7449C68.4233 11.7449 67.1773 11.7005 66.8213 11.7005C66.5101 11.7005 65.2645 11.7449 64.8641 11.7449V11.4335C65.5314 11.3001 65.8873 10.9886 65.8873 10.3658V1.46811C65.8873 0.934253 65.5759 0.578349 64.8641 0.444884V0.0889767C65.2645 0.0889767 66.4657 0.133465 66.8213 0.133465C67.4 0.133465 69.0013 0.0444881 69.624 0.0444881C72.4273 0.0444881 73.984 1.20119 73.984 3.15867C73.984 4.71577 72.8273 5.739 71.048 6.18389C71.048 6.18389 71.4487 6.40633 71.8487 6.89567C72.338 7.47407 73.7173 9.43153 74.2513 10.0989C74.7847 10.7662 75.4967 11.5225 76.2533 11.5225V11.7894C75.8973 11.8784 75.3187 11.9229 74.874 11.9229C73.94 11.9229 73.1833 11.567 72.4273 10.6772C71.804 9.92093 70.692 8.27487 70.0693 7.47407C69.6687 6.9402 69.1793 6.53979 68.2893 6.40633C68.112 6.36184 67.934 6.36184 67.756 6.31735V10.3658ZM67.756 5.65003C68.112 5.69451 68.69 5.739 69.224 5.739C71.404 5.739 72.0713 4.49333 72.0713 3.38111C72.0713 1.82402 71.0033 0.84528 69.1347 0.84528C68.7347 0.84528 68.156 0.889767 67.756 0.978747V5.65003ZM14.1028 11.4335C14.8591 11.2555 15.2595 10.7662 15.5265 10.1433L19.2635 1.1567C19.4414 0.800793 19.6194 0.0444881 19.6194 0.0444881H20.6871C20.6871 0.0444881 20.8651 0.800793 21.043 1.20119L25.0025 10.1879C25.2694 10.8107 25.5808 11.2555 26.3816 11.4335V11.7449C25.9367 11.7449 24.6465 11.7005 24.3351 11.7005C24.0237 11.7005 22.7781 11.7449 22.3332 11.7449V11.4335C22.9115 11.3001 23.0895 10.9886 23.0895 10.7217C23.0895 10.4993 23.0005 10.1879 22.867 9.92093L22.0217 8.00793H17.6619L16.9056 9.9654C16.8166 10.1879 16.7276 10.4993 16.7276 10.7217C16.7276 11.0331 16.9056 11.3001 17.5284 11.478V11.7894C17.128 11.7894 16.1048 11.7449 15.8823 11.7449L14.1918 11.7894L14.1028 11.4335ZM21.5324 7.07367L19.6639 2.75828L17.9288 7.07367H21.5324ZM51.1171 11.4335C51.8735 11.2555 52.2739 10.7662 52.5408 10.1433L56.2778 1.1567C56.4557 0.800793 56.6337 0.0444881 56.6337 0.0444881H57.7014C57.7014 0.0444881 57.8794 0.800793 58.0573 1.20119L62.0168 10.1879C62.2837 10.8107 62.5951 11.2555 63.3959 11.4335V11.7449C62.9511 11.7449 61.6609 11.7005 61.3495 11.7005C61.0381 11.7005 59.7924 11.7449 59.3475 11.7449V11.4335C59.9259 11.3001 60.1038 10.9886 60.1038 10.7217C60.1038 10.4993 60.0148 10.1879 59.8813 9.92093L59.0361 8.00793H54.6762L53.9199 9.9654C53.8309 10.1879 53.7419 10.4993 53.7419 10.7217C53.7419 11.0331 53.9199 11.3001 54.5427 11.478V11.7894C54.1423 11.7894 53.1191 11.7449 52.8967 11.7449L51.2061 11.7894V11.4335H51.1171ZM58.5022 7.07367L56.6337 2.75828L54.8987 7.07367H58.5022Z" fill="var(--fill-0, black)"/>
</g>
<defs>
<clipPath id="clip0_0_24">
<rect width="90" height="24" fill="white"/>
</clipPath>
</defs>
</svg>
