<svg preserveAspectRatio="none" width="100%" height="100%" overflow="visible" style="display: block;" viewBox="0 0 90 28" fill="none" xmlns="http://www.w3.org/2000/svg">
<g id="Logo Mel Robbins" clip-path="url(#clip0_0_17)">
<path id="Graphic" fill-rule="evenodd" clip-rule="evenodd" d="M1.04255 27.9979C0.829123 27.9928 0.59132 27.9761 0.514099 27.9606C0.436878 27.9452 0.291953 27.846 0.192043 27.7401C0.0921332 27.6342 0.00575608 27.5067 9.34785e-05 27.4568C-0.00556913 27.4068 0.246755 27.1078 0.560813 26.7923C0.93028 26.4211 1.42099 25.8018 1.95106 25.0376C2.40164 24.3881 2.97461 23.5911 3.22432 23.2665C3.47403 22.9419 3.92946 22.3042 4.2364 21.8493C4.54333 21.3944 4.92228 20.8359 5.07851 20.6083C5.23475 20.3807 5.63674 19.8037 5.97182 19.3261C6.30691 18.8485 6.78464 18.154 7.03345 17.7828C7.28226 17.4116 7.68162 16.8194 7.92092 16.4668C8.16022 16.1142 8.67637 15.3701 9.06791 14.8134C9.45945 14.2566 10.1065 13.3 10.5059 12.6875C10.9052 12.0751 11.4992 11.1571 11.8258 10.6476C12.1525 10.1381 12.545 9.5193 12.6981 9.27254C12.8512 9.02577 13.0715 8.57713 13.1877 8.27556C13.3038 7.97399 13.5051 7.45393 13.635 7.11987C13.765 6.7858 13.9211 6.39101 13.9819 6.24254C14.0428 6.09406 14.2073 5.68408 14.3474 5.33146C14.4876 4.97884 14.7155 4.44738 14.8539 4.15044C14.9924 3.8535 15.2214 3.39796 15.3628 3.13814C15.5042 2.87831 15.7423 2.43796 15.892 2.15958C16.0416 1.8812 16.32 1.34974 16.5105 0.97856C16.701 0.607382 16.9182 0.23536 16.993 0.151845C17.0851 0.049087 17.205 0 17.3639 0C17.5455 0 17.657 0.0574651 17.8551 0.253076C17.996 0.392267 18.1585 0.606542 18.2162 0.729243C18.2946 0.896018 18.3111 1.06638 18.2819 1.40411C18.2604 1.65259 18.1541 2.11933 18.0458 2.4413C17.9375 2.76328 17.684 3.35548 17.4825 3.7573C17.281 4.15912 16.9227 4.83712 16.6861 5.26398C16.4496 5.69083 16.054 6.39429 15.8069 6.82721C15.5599 7.26014 15.2087 7.86752 15.0265 8.17695C14.8443 8.48638 14.5813 8.99791 14.442 9.31369C14.3027 9.62946 14.1125 10.1609 14.0192 10.4947C13.926 10.8285 13.7294 11.6232 13.5823 12.2608C13.4352 12.8983 13.2548 13.7031 13.1814 14.0492C13.1079 14.3952 13.0295 14.9394 13.0071 15.2584C12.9833 15.598 13.0003 16.0734 13.0481 16.4056C13.093 16.7177 13.1512 17.0119 13.1775 17.0596C13.2106 17.1197 13.3469 17.0163 13.6224 16.7222C13.8408 16.4889 14.3937 15.8274 14.8509 15.252C15.3082 14.6767 16.0699 13.6607 16.5437 12.9942C17.0174 12.3278 17.6604 11.4015 17.9726 10.9359C18.2848 10.4703 18.6609 9.89189 18.8084 9.65062C18.9558 9.40936 19.2474 8.80197 19.4562 8.30089C19.6651 7.7998 20.039 6.99501 20.2872 6.51248C20.5354 6.02995 21.0006 5.13406 21.3209 4.52162C21.6412 3.90918 21.9657 3.33976 22.042 3.25624C22.1472 3.14122 22.2549 3.1044 22.4864 3.1044C22.731 3.1044 22.8427 3.14675 23.0454 3.31644C23.1848 3.43306 23.3435 3.62375 23.3982 3.74019C23.4529 3.85663 23.4869 4.04213 23.4737 4.1524C23.4605 4.26268 23.3381 4.59586 23.2018 4.8928C23.0655 5.18974 22.858 5.63009 22.7407 5.87136C22.6234 6.11262 22.3247 6.66691 22.0769 7.1031C21.829 7.53929 21.4651 8.17704 21.2681 8.52032C21.0712 8.86361 20.7595 9.46335 20.5756 9.85308C20.3917 10.2428 20.116 10.8806 19.963 11.2703C19.8099 11.66 19.5572 12.3433 19.4015 12.7888C19.2457 13.2342 18.9802 14.0563 18.8114 14.6157C18.6427 15.175 18.4308 15.9798 18.3406 16.4041C18.2504 16.8283 18.1249 17.6309 18.0616 18.1877C17.9984 18.7445 17.9455 19.6707 17.9442 20.2461C17.9426 20.9192 17.9829 21.5588 18.0572 22.0402C18.1207 22.4517 18.2084 22.892 18.252 23.0188C18.2956 23.1455 18.3504 23.2737 18.3737 23.3035C18.3969 23.3334 18.9587 22.7813 19.6221 22.0766C20.8282 20.7954 20.8282 20.7954 20.8282 20.0733C20.8282 19.6761 20.8763 19.0439 20.9351 18.6684C20.9939 18.2929 21.1303 17.7579 21.2383 17.4793C21.3462 17.2008 21.5327 16.8211 21.6528 16.6355C21.7729 16.4499 22.0614 16.1193 22.294 15.9007C22.5569 15.6536 22.9065 15.4128 23.2183 15.264C23.6407 15.0625 23.7946 15.0241 24.1953 15.0203C24.6203 15.0163 24.7012 15.0374 24.9542 15.2183C25.1391 15.3504 25.32 15.5731 25.475 15.8594C25.6734 16.2259 25.7124 16.3647 25.7117 16.703C25.7112 17.0152 25.6671 17.1951 25.5195 17.4884C25.4142 17.6976 25.1735 18.0842 24.9847 18.3474C24.7959 18.6106 24.3144 19.1918 23.9147 19.639C23.515 20.0863 23.0442 20.6218 22.8686 20.8292C22.6675 21.0666 22.5567 21.2571 22.5694 21.3436C22.5806 21.4192 22.6721 21.5432 22.7727 21.6192C22.9557 21.7575 22.9557 21.7575 23.2501 21.6123C23.412 21.5324 23.7633 21.3087 24.0309 21.1152C24.2984 20.9216 24.7716 20.5482 25.0823 20.2854C25.3931 20.0226 25.9315 19.536 26.2788 19.2043C26.6261 18.8725 27.1234 18.3616 27.3838 18.069C27.8487 17.5467 27.8589 17.5273 27.937 17.0187C27.9807 16.7337 28.0785 16.2272 28.1541 15.8932C28.2298 15.5591 28.4239 14.9517 28.5854 14.5434C28.747 14.1351 29.0812 13.4063 29.3282 12.9237C29.5751 12.4412 30.0795 11.5605 30.4491 10.9666C30.8187 10.3727 31.3207 9.60425 31.5647 9.25888C31.8086 8.91351 32.2697 8.30613 32.5894 7.90915C32.95 7.46133 33.5297 6.86786 34.1166 6.34565C34.6369 5.88272 35.2324 5.38666 35.4399 5.2433C35.6475 5.09995 35.9668 4.90959 36.1496 4.82028C36.3324 4.73098 36.6016 4.65773 36.7479 4.65751C36.8941 4.65728 37.1078 4.71533 37.2228 4.78649C37.3377 4.85766 37.5169 5.02424 37.621 5.15667C37.7251 5.2891 37.8456 5.49649 37.8888 5.61753C37.9321 5.73858 37.9691 6.00465 37.9711 6.20879C37.9733 6.43481 37.9136 6.75602 37.8183 7.03012C37.7322 7.2777 37.5188 7.74653 37.3441 8.07196C37.1694 8.3974 36.8498 8.95111 36.634 9.30244C36.4182 9.65377 36.0426 10.2327 35.7993 10.5889C35.5559 10.9451 35.1491 11.5251 34.8951 11.8777C34.6411 12.2303 34.1929 12.8225 33.8991 13.1937C33.6053 13.5649 33.0648 14.2178 32.6979 14.6447C32.3311 15.0715 31.5668 15.8982 30.9995 16.4817C30.4321 17.0652 29.808 17.7295 29.6126 17.9578C29.3071 18.3149 29.261 18.4048 29.2834 18.5998C29.2977 18.7245 29.4514 19.1111 29.6249 19.4589C29.8553 19.9209 30.0694 20.2279 30.4194 20.5983C30.6829 20.8772 31.1228 21.2513 31.397 21.4296C31.6712 21.6079 32.1647 21.8817 32.4938 22.0381C32.8228 22.1945 33.3313 22.3987 33.6238 22.4919C33.9162 22.585 34.3948 22.7099 34.6873 22.7694C34.9798 22.8288 35.5481 22.9084 35.9502 22.9461C36.3524 22.9839 37.4292 23.034 38.3432 23.0575C39.6316 23.0906 40.3036 23.0745 41.3343 22.9858C42.0655 22.9228 43.3937 22.7961 44.2859 22.7041C45.178 22.6121 46.5689 22.4618 47.3767 22.3701C48.1845 22.2783 49.354 22.1592 49.9755 22.1053C50.597 22.0514 51.5746 21.9746 52.1481 21.9347C52.8564 21.8854 53.413 21.8836 53.8839 21.9289C54.2652 21.9656 54.8429 22.0547 55.1677 22.1271C55.4926 22.1994 55.9369 22.3267 56.1551 22.41C56.4294 22.5146 56.6557 22.6676 56.8882 22.9053C57.0884 23.1101 57.2608 23.3628 57.3144 23.53C57.3638 23.6845 57.3858 23.8858 57.3631 23.9773C57.3405 24.0688 57.2467 24.1938 57.1547 24.255C57.0628 24.3162 56.9008 24.3839 56.7949 24.4054C56.6189 24.4411 56.5819 24.4121 56.3656 24.0689C56.2092 23.8206 56.0384 23.6463 55.8619 23.5549C55.7149 23.4788 55.3474 23.3559 55.0451 23.2817C54.7428 23.2076 54.2323 23.1274 53.9106 23.1034C53.3572 23.0622 53.4258 23.107 53.2656 23.107C53.1484 23.1034 53.0833 23.1288 53.0273 23.107C52.9739 23.0861 52.9492 23.1732 52.8158 23.1732C52.5 23 52.6107 23.0693 52.0723 23.107C51.7233 23.1314 50.9144 23.197 50.2746 23.2528C49.6348 23.3086 48.5281 23.4126 47.8152 23.4839C47.1023 23.5552 45.846 23.6904 45.0234 23.7844C44.2009 23.8784 42.78 24.0189 41.8661 24.0966C40.8882 24.1797 39.602 24.2401 38.7407 24.2433C37.9357 24.2463 36.8589 24.213 36.3478 24.1693C35.8366 24.1255 35.1343 24.0415 34.787 23.9826C34.4397 23.9237 33.9013 23.8029 33.5905 23.7141C33.2798 23.6253 32.6068 23.3421 32.095 23.0846C31.5831 22.8272 30.9334 22.4599 30.6512 22.2685C30.3689 22.077 29.9046 21.6873 29.6195 21.4024C29.3343 21.1175 28.8905 20.5661 28.6333 20.1772C28.3381 19.7307 28.1168 19.4627 28.0333 19.4502C27.9432 19.4367 27.6611 19.652 27.1494 20.1251C26.7361 20.5071 26.1542 21.0401 25.8564 21.3094C25.5586 21.5787 25.0607 21.9772 24.75 22.1949C24.4392 22.4127 23.9637 22.7036 23.6932 22.8416C23.4011 22.9905 23.0636 23.1067 22.8623 23.1276C22.6758 23.147 22.4004 23.1292 22.2503 23.088C22.1002 23.0468 21.8369 22.9041 21.6652 22.771C21.4934 22.6379 21.3171 22.5441 21.2734 22.5627C21.2296 22.5813 20.79 23.0119 20.2965 23.5197C19.8029 24.0275 19.2875 24.5197 19.1511 24.6135C19.0147 24.7072 18.7754 24.7982 18.6193 24.8155C18.4252 24.8371 18.2412 24.8048 18.0365 24.7133C17.872 24.6397 17.6122 24.4472 17.4593 24.2855C17.3063 24.1239 17.1052 23.8371 17.0125 23.6482C16.9197 23.4594 16.7837 23.0429 16.7101 22.7227C16.6366 22.4025 16.5429 21.7826 16.5019 21.3452C16.4579 20.8751 16.4456 20.1633 16.4718 19.6049C16.4962 19.0853 16.5744 18.2501 16.6456 17.749C16.7168 17.248 16.8359 16.4903 16.9102 16.0654C16.9845 15.6405 17.0365 15.2306 17.0257 15.1544C17.0101 15.0438 16.9318 15.1111 16.6376 15.4882C16.4348 15.7481 15.8993 16.4466 15.4475 17.0404C14.9958 17.6343 14.4887 18.2679 14.3206 18.4484C14.1525 18.6289 13.9188 18.8187 13.8011 18.8702C13.6835 18.9217 13.4806 18.9638 13.3503 18.9638C13.22 18.9638 13.0158 18.9224 12.8966 18.8718C12.7773 18.8212 12.5508 18.6314 12.3932 18.45C12.2357 18.2686 12.0405 17.9836 11.9595 17.8165C11.8785 17.6495 11.7695 17.3762 11.7172 17.2092C11.6441 16.9756 11.6252 16.5393 11.6357 15.3195C11.6493 13.7336 11.6493 13.7336 11.4846 13.9247C11.394 14.0299 11.0473 14.5298 10.7141 15.0357C10.3808 15.5416 9.80407 16.3819 9.43237 16.9029C9.06066 17.424 8.54537 18.154 8.28726 18.5251C8.02915 18.8963 7.43506 19.7618 6.96705 20.4485C6.49905 21.1352 5.82948 22.1133 5.47913 22.6221C5.12878 23.1309 4.54301 23.9945 4.17743 24.5411C3.81184 25.0878 3.20302 25.9318 2.82449 26.4167C2.44597 26.9017 1.97749 27.4579 1.78343 27.6527C1.4349 28.0027 1.42587 28.0069 1.04255 27.9979ZM22.6731 18.7231C22.8466 18.5351 23.2805 18.0293 23.6373 17.5991C24.2267 16.8887 24.2803 16.8013 24.222 16.6457C24.1639 16.4905 24.1379 16.4803 23.9442 16.5366C23.8267 16.5709 23.6159 16.6759 23.4758 16.77C23.3357 16.8642 23.1176 17.085 22.9911 17.2608C22.8647 17.4365 22.6895 17.7777 22.6018 18.019C22.5142 18.2603 22.4234 18.5943 22.4001 18.7614C22.3578 19.065 22.3578 19.065 22.6731 18.7231ZM50.9013 18.4525C50.5345 18.4742 50.1292 18.4531 49.8403 18.3972C49.5832 18.3475 49.2005 18.224 48.9899 18.1228C48.7793 18.0217 48.4349 17.7771 48.2245 17.5794C48.0142 17.3817 47.7622 17.0709 47.6646 16.8889C47.567 16.7069 47.4413 16.3792 47.3853 16.1607C47.3293 15.9423 47.2834 15.5789 47.2834 15.3533C47.2834 15.1276 47.3293 14.7642 47.3853 14.5458C47.4413 14.3273 47.5675 13.9987 47.6657 13.8156C47.7639 13.6324 48.005 13.3194 48.2013 13.12C48.4008 12.9175 48.7391 12.6688 48.9678 12.5567C49.193 12.4462 49.5717 12.3166 49.8093 12.2686C50.0469 12.2206 50.5105 12.1835 50.8396 12.1861C51.2501 12.1894 51.5846 12.2363 51.9059 12.3356C52.1633 12.4153 52.5534 12.5982 52.7728 12.7422C52.9922 12.8861 53.2678 13.1272 53.3854 13.2778C53.5029 13.4285 53.696 13.7597 53.8146 14.0138C54.0221 14.4586 54.0301 14.5077 54.0301 15.323C54.0301 16.1662 54.029 16.1725 53.7803 16.6834C53.6043 17.0449 53.4199 17.2993 53.1566 17.5436C52.9511 17.7343 52.6725 17.9475 52.5377 18.0174C52.4028 18.0873 52.1129 18.2058 51.8936 18.2808C51.6732 18.3562 51.2291 18.433 50.9013 18.4525ZM87.9965 18.4376C87.8502 18.4487 87.4913 18.4394 87.1988 18.417C86.792 18.386 86.5734 18.3283 86.2682 18.1713C86.0489 18.0586 85.8096 17.899 85.7365 17.8168C85.6036 17.6674 85.6036 17.6674 85.9935 17.2989C86.3834 16.9304 86.3834 16.9304 86.5252 17.0622C86.6032 17.1346 86.7874 17.2552 86.9345 17.3301C87.0816 17.405 87.3384 17.487 87.5053 17.5124C87.689 17.5404 87.9168 17.5257 88.083 17.4751C88.2339 17.4292 88.4478 17.3126 88.5583 17.2161C88.6978 17.0941 88.7718 16.9559 88.8002 16.7639C88.8363 16.5197 88.8165 16.459 88.6307 16.2442C88.45 16.0351 88.2985 15.9612 87.5534 15.7183C86.9924 15.5355 86.5893 15.3606 86.4116 15.2229C86.2605 15.1059 86.0707 14.9105 85.9898 14.7887C85.909 14.6669 85.8225 14.4291 85.7975 14.2603C85.7719 14.087 85.7862 13.7991 85.8303 13.5992C85.8795 13.3759 85.9906 13.1475 86.1309 12.981C86.2533 12.8358 86.5017 12.6351 86.6828 12.535C86.864 12.4349 87.2187 12.3037 87.4711 12.2435C87.7853 12.1686 88.0704 12.1469 88.3753 12.1747C88.6202 12.1971 89.024 12.2927 89.2726 12.3872C89.5213 12.4817 89.7836 12.6037 89.8556 12.6584C89.9815 12.754 89.9712 12.7734 89.5838 13.1667C89.1811 13.5755 89.1811 13.5755 88.9286 13.4016C88.7898 13.3059 88.5535 13.1941 88.4035 13.1531C88.2535 13.1121 88.0028 13.0963 87.8465 13.1181C87.6901 13.1399 87.4747 13.2036 87.3679 13.2597C87.2611 13.3157 87.127 13.4293 87.0699 13.512C87.0129 13.5947 86.9662 13.774 86.9662 13.9103C86.9662 14.1081 87.0122 14.1993 87.1935 14.3609C87.3322 14.4845 87.6367 14.6327 87.9745 14.741C88.2791 14.8386 88.7159 14.9972 88.9452 15.0935C89.2315 15.2137 89.4438 15.3628 89.6229 15.5693C89.8109 15.7861 89.9045 15.9721 89.9584 16.2359C90.0139 16.5071 90.0139 16.6965 89.9584 16.968C89.9172 17.1694 89.7942 17.4594 89.685 17.6124C89.5759 17.7654 89.3514 17.9776 89.1861 18.084C89.0208 18.1904 88.7454 18.309 88.574 18.3476C88.4026 18.3861 88.1427 18.4266 87.9965 18.4376ZM41.1681 18.2889H40.0382V15.3195V12.3501H41.464C42.2654 12.3501 43.0441 12.3833 43.2421 12.4259C43.4358 12.4676 43.699 12.5559 43.827 12.6222C43.9549 12.6884 44.1394 12.829 44.2369 12.9344C44.3344 13.0399 44.4665 13.2389 44.5304 13.3766C44.5998 13.526 44.6465 13.7848 44.6461 14.0178C44.6456 14.3058 44.5992 14.5005 44.4698 14.7586C44.3732 14.9511 44.1932 15.1869 44.0697 15.2825C43.9462 15.3781 43.7046 15.505 43.5328 15.5644C43.3307 15.6344 43.2321 15.7034 43.2535 15.7601C43.2717 15.8083 43.4321 16.0857 43.6098 16.3766C43.7876 16.6675 44.0838 17.1332 44.268 17.4116C44.4522 17.69 44.6544 17.9986 44.7173 18.0974C44.8316 18.2771 44.8316 18.2771 44.4124 18.2999C44.1818 18.3124 43.8744 18.3075 43.7293 18.2889C43.47 18.2558 43.4568 18.2402 42.9574 17.3779C42.678 16.8953 42.3537 16.3411 42.2367 16.1462C42.0241 15.7919 42.0241 15.7919 41.5961 15.7919C41.1681 15.7919 41.1681 15.7919 41.1681 17.0404V18.2889ZM57.0545 12.3501C59.7723 12.3501 60.1631 12.3727 60.4486 12.4588C60.6962 12.5335 60.8953 12.6551 61.0845 12.8472C61.2431 13.0082 61.395 13.2456 61.4426 13.4066C61.4912 13.5715 61.5072 13.8078 61.4815 13.9821C61.4574 14.1448 61.3798 14.3747 61.3089 14.493C61.238 14.6114 61.0336 14.8066 60.8546 14.9268C60.5292 15.1454 60.5292 15.1454 60.9331 15.3506C61.2438 15.5084 61.3815 15.629 61.5301 15.8735C61.6377 16.0505 61.7385 16.329 61.7577 16.5023C61.7767 16.6735 61.7565 16.9348 61.7127 17.083C61.669 17.2312 61.525 17.4741 61.3928 17.6226C61.2606 17.7712 61.0605 17.9411 60.9481 18.0001C60.8356 18.0592 60.5941 18.1501 60.4113 18.2022C60.1939 18.2641 59.619 18.3053 58.7495 18.3212C58.0184 18.3346 57.3379 18.3307 57.2373 18.3127C57.0545 18.28 57.0545 18.28 57.0545 15.315V12.3501ZM77.9927 18.2889H76.9292V15.3195V12.3501H77.681C78.4329 12.3501 78.4329 12.3501 78.7644 12.8394C78.9468 13.1085 79.6479 14.1171 80.3224 15.0808L81.5489 16.833L81.5664 14.5916L81.5839 12.3501H82.148H82.7121V15.2818C82.7121 17.5331 82.6931 18.2254 82.6301 18.2649C82.585 18.2932 82.2872 18.329 81.9683 18.3445C81.4015 18.372 81.3842 18.3683 81.2011 18.179C81.0981 18.0724 80.39 17.0742 79.6276 15.9606C78.8652 14.8471 78.1854 13.8761 78.117 13.8029C77.9954 13.6728 77.9927 13.7206 77.9927 15.9794V18.2889ZM64.7651 18.2992V12.3501H66.2833C67.4066 12.3501 67.8836 12.3751 68.1167 12.4464C68.2899 12.4993 68.5314 12.612 68.6531 12.6967C68.7749 12.7814 68.952 12.9719 69.0466 13.1201C69.1817 13.3316 69.2186 13.474 69.2186 13.7835C69.2186 14.0426 69.1737 14.267 69.0875 14.4385C69.0019 14.6089 68.8295 14.78 68.5905 14.9318C68.2246 15.1641 68.2246 15.1641 68.4838 15.2429C68.6263 15.2863 68.8824 15.4503 69.053 15.6075C69.2997 15.8347 69.3825 15.9691 69.4579 16.2643C69.5315 16.5521 69.537 16.7132 69.4825 16.9812C69.4368 17.2054 69.3329 17.4207 69.1866 17.5943C69.0507 17.7555 68.7944 17.9399 68.5415 18.0585C68.1219 18.2552 68.1218 18.2552 66.4435 18.2772L64.7651 18.2992ZM72.5421 18.2889V12.3501H73.0739H73.6057V15.3195V18.2889H73.0739H72.5421ZM50.906 17.5042C51.1254 17.4854 51.4784 17.3912 51.6904 17.2951C51.9312 17.1858 52.1808 17.0017 52.3551 16.8046C52.5087 16.6311 52.6889 16.3343 52.7556 16.1452C52.8342 15.9224 52.876 15.6205 52.8743 15.2874C52.8722 14.8792 52.835 14.6906 52.6937 14.3708C52.5958 14.1494 52.4017 13.8636 52.2622 13.7357C52.1228 13.6078 51.8937 13.4436 51.753 13.3707C51.6122 13.2978 51.3136 13.1997 51.0892 13.1527C50.7731 13.0864 50.5894 13.0845 50.2722 13.1444C50.0472 13.1869 49.732 13.2861 49.5717 13.3648C49.4115 13.4435 49.146 13.6598 48.9816 13.8454C48.7957 14.0554 48.641 14.3175 48.5722 14.539C48.4927 14.795 48.4704 15.0446 48.4927 15.4278C48.512 15.7588 48.5756 16.0788 48.6605 16.2726C48.7357 16.4442 48.9056 16.7063 49.0379 16.855C49.1703 17.0038 49.4307 17.192 49.6167 17.2732C49.8026 17.3544 50.079 17.4473 50.231 17.4797C50.3829 17.5121 50.6867 17.5231 50.906 17.5042ZM65.8951 15.6416V17.4999L66.7205 17.4575C67.2386 17.4308 67.647 17.3739 67.8175 17.3046C67.9669 17.244 68.167 17.1003 68.2622 16.9855C68.4069 16.8109 68.4299 16.7288 68.4027 16.484C68.3848 16.3231 68.3144 16.1288 68.2462 16.0522C68.178 15.9757 68.0324 15.8646 67.9226 15.8053C67.7769 15.7266 67.4761 15.6899 66.8091 15.6695L65.8951 15.6416ZM58.1845 15.6378V17.4116H59.0141C59.6229 17.4116 59.9151 17.3826 60.1121 17.3026C60.2597 17.2426 60.4398 17.117 60.5122 17.0235C60.5964 16.9149 60.6439 16.7504 60.6439 16.568C60.6439 16.3807 60.5962 16.2209 60.5051 16.1034C60.4288 16.0048 60.2729 15.8752 60.1588 15.8152C60.0111 15.7377 59.6965 15.6964 59.0679 15.672L58.1845 15.6378ZM29.7941 15.7961C29.8654 15.7574 30.2526 15.3686 30.6547 14.9321C31.0568 14.4956 31.7435 13.7221 32.1808 13.2132C32.6182 12.7042 33.2446 11.9298 33.5729 11.4923C33.9012 11.0547 34.3659 10.4203 34.6056 10.0824C34.8453 9.74458 35.22 9.15238 35.4383 8.76642C35.6566 8.38047 36.0181 7.70316 36.2417 7.2613C36.4652 6.81945 36.6482 6.40363 36.6482 6.33727C36.6482 6.22611 36.628 6.22826 36.3921 6.36455C36.2512 6.44591 35.9296 6.66925 35.6775 6.86085C35.4254 7.05245 34.9474 7.47762 34.6154 7.80567C34.2835 8.13371 33.7683 8.69927 33.4707 9.06247C33.1731 9.42566 32.6944 10.0801 32.4069 10.5167C32.1194 10.9533 31.6572 11.7191 31.3797 12.2184C31.1022 12.7177 30.6212 13.6577 30.3109 14.3072C30.0006 14.9568 29.7282 15.5733 29.7056 15.6774C29.6684 15.8487 29.6767 15.8599 29.7941 15.7961ZM41.1681 13.2274V14.8471L41.9159 14.8467C42.3272 14.8465 42.774 14.8153 42.9087 14.7773C43.0435 14.7393 43.2304 14.6156 43.3242 14.5025C43.4415 14.361 43.4946 14.2172 43.4946 14.0412C43.4946 13.8885 43.4416 13.717 43.3629 13.6155C43.2905 13.522 43.1104 13.3965 42.9627 13.3365C42.7701 13.2582 42.4788 13.2274 41.9312 13.2274H41.1681ZM58.1845 13.2274V14.7963L58.9656 14.7665C59.5215 14.7453 59.8077 14.7042 59.9586 14.6236C60.0752 14.5614 60.2173 14.4428 60.2743 14.3601C60.3314 14.2774 60.3781 14.1125 60.3781 13.9937C60.3781 13.8603 60.3129 13.699 60.2076 13.572C60.1139 13.4589 59.9269 13.3353 59.7922 13.2973C59.6574 13.2593 59.2406 13.228 58.8659 13.2278L58.1845 13.2274ZM65.8951 13.2274V14.7796L66.5764 14.7767C66.9833 14.7749 67.3626 14.7358 67.5181 14.6795C67.6613 14.6277 67.852 14.5107 67.9419 14.4194C68.0577 14.3018 68.1074 14.174 68.1123 13.9808C68.1176 13.7791 68.0777 13.663 67.9594 13.5351C67.8714 13.44 67.6925 13.332 67.5618 13.2952C67.4311 13.2583 67.0027 13.228 66.6096 13.2278L65.8951 13.2274Z" fill="var(--fill-0, black)"/>
</g>
<defs>
<clipPath id="clip0_0_17">
<rect width="90" height="28" fill="white"/>
</clipPath>
</defs>
</svg>
