<svg preserveAspectRatio="none" width="100%" height="100%" overflow="visible" style="display: block;" viewBox="0 0 80 29.8457" fill="none" xmlns="http://www.w3.org/2000/svg">
<g id="Group">
<path id="Vector" d="M60.5826 15.2165V21.8168H63.2301V15.6212C63.2301 12.8618 66.908 12.8573 66.908 12.8573V10.1719L66.6396 10.1889C66.2801 10.2154 65.6231 10.2776 65.0672 10.4054L64.7391 10.4854C62.5605 11.0496 60.5826 12.2439 60.5826 15.2165ZM40.6252 10.0385C41.6565 10.0385 42.9452 10.6344 43.6468 11.6825C44.3732 10.7293 45.5678 10.086 47.0439 10.0615C48.919 10.037 51.2375 11.2288 51.2375 14.8036V21.8086H48.5894V14.8036C48.5894 13.6118 47.7456 12.755 46.4824 12.755C45.2192 12.755 44.3746 13.6118 44.3746 14.8036V21.8086H41.7272V14.8036C41.7272 13.6118 40.8841 12.755 39.6195 12.755C38.3549 12.755 37.4878 13.6118 37.4878 14.8036V21.8086H34.7032V10.3935H37.4878V11.5402C38.1965 10.663 39.2169 10.1032 40.4137 10.0437L40.6252 10.0385ZM57.3257 10.5389V21.8169H54.633V10.5389H57.3257ZM55.979 8.74444C56.8091 8.74444 57.4822 8.06051 57.4822 7.21684C57.4822 6.37317 56.8091 5.68924 55.979 5.68924C55.1488 5.68924 54.4759 6.37317 54.4759 7.21684C54.4759 8.06051 55.1488 8.74444 55.979 8.74444ZM74.0976 10.014C70.8376 10.014 68.1952 12.6994 68.1952 16.0125C68.1952 19.3257 70.8376 22.011 74.0976 22.011C77.3577 22.011 80 19.3257 80 16.0125C80 12.6994 77.3577 10.014 74.0976 10.014ZM74.0976 19.3138C72.2525 19.3138 70.7559 17.7937 70.7559 15.9177C70.7559 14.0417 72.2518 12.5215 74.0976 12.5215C75.9436 12.5215 77.4394 14.0417 77.4394 15.9177C77.4394 17.7937 75.9436 19.3138 74.0976 19.3138Z" fill="var(--fill-0, black)"/>
<path id="Subtract" d="M21.918 0C25.9527 8.86883e-05 29.2234 3.34039 29.2236 7.46094V22.3838C29.2236 26.5046 25.9529 29.8456 21.918 29.8457H7.30566C3.27083 29.8456 0 26.5045 0 22.3838V7.46094C0.000235297 3.34043 3.27098 0.000150207 7.30566 0H21.918ZM8.81738 11.8604L6.16406 24.2031H8.81738L13.9014 10.9795L11.4697 24.2031H14.123L18.9863 10.0977L16.7754 24.2031H19.4287L24.292 8.77441L19.4287 5.68945H16.7754L18.9863 9.65625L14.123 5.68945H11.4697L13.9014 10.5381L8.81738 5.68945H6.16406L8.81738 11.8604Z" fill="var(--fill-0, black)"/>
</g>
</svg>
