<svg preserveAspectRatio="none" width="100%" height="100%" overflow="visible" style="display: block;" viewBox="0 0 111 25.907" fill="none" xmlns="http://www.w3.org/2000/svg">
<g id="Logo Obama" clip-path="url(#clip0_0_32)">
<path id="Vector" d="M25.7811 14.5815C25.8604 14.0429 25.9024 13.4994 25.9067 12.9549C25.9343 11.2502 25.6121 9.55799 24.9601 7.98265C24.3082 6.40732 23.3402 4.98234 22.116 3.7957C20.93 2.57211 19.5063 1.604 17.9324 0.950905C16.3585 0.297807 14.6676 -0.0264849 12.9637 -0.00203648C11.2562 -0.0301851 9.56114 0.292333 7.98329 0.945565C6.40545 1.5988 4.97843 2.56885 3.79052 3.7957C2.56632 4.98234 1.59835 6.40732 0.946367 7.98265C0.29438 9.55799 -0.0277843 11.2502 -0.000236863 12.9549C7.24172e-05 13.513 0.037387 14.0704 0.111461 14.6234C1.83131 14.0202 3.59602 13.5533 5.3892 13.2272H5.4241C5.49152 11.2032 6.31034 9.27688 7.72089 7.82381C8.38491 7.13662 9.18293 6.59307 10.0655 6.22681C10.9482 5.86056 11.8966 5.6794 12.852 5.69457C13.8063 5.68036 14.7534 5.86198 15.6347 6.22821C16.5161 6.59443 17.313 7.13749 17.9762 7.82381C18.6655 8.48803 19.2109 9.28692 19.5783 10.1708C19.9458 11.0547 20.1276 12.0048 20.1124 12.9619V13.1365L20.6011 13.2272C22.36 13.545 24.0917 13.9978 25.7811 14.5815ZM24.4337 18.9238C24.6734 18.5031 24.8744 18.0615 25.0341 17.6044L24.2662 17.4648C22.514 17.1785 20.7428 17.0245 18.9675 17.004H18.2694C16.1064 17.0267 13.9481 17.2087 11.8118 17.5485L10.0735 17.8487C7.38525 18.3712 4.75134 19.1425 2.2058 20.1525C2.86916 21.1516 3.67063 22.0518 4.58637 22.8263C6.15733 22.107 7.76791 21.4777 9.41033 20.9414L9.85014 20.8017C10.4854 20.5853 11.0439 20.4248 11.5466 20.2921C14.8387 19.3945 18.2295 18.9091 21.6413 18.847H22.0462C22.493 18.847 23.1283 18.847 23.966 18.9099L24.4337 18.9238Z" fill="var(--fill-0, black)"/>
<path id="Vector_2" d="M25.0138 16.4332L25.3908 16.5239L25.6351 15.4767C23.8102 14.8871 21.9432 14.4367 20.0502 14.1294C17.6899 13.7379 15.3011 13.5441 12.9085 13.5499C10.5113 13.5436 8.11781 13.7374 5.75287 14.1294C3.85997 14.4373 1.99303 14.8877 0.167969 15.4767C0.347159 16.3573 0.606542 17.2195 0.942874 18.0528C4.32233 16.7928 7.8522 15.9808 11.4425 15.6373C12.3012 15.5535 12.9365 15.4977 13.3693 15.4767H13.837C14.5351 15.4767 15.2333 15.4349 15.9314 15.4349H16.1129C17.2159 15.4349 18.4097 15.4767 19.7082 15.5815C21.5003 15.7455 23.2782 16.0394 25.0278 16.4611M8.60118 24.5662L7.90306 24.9292C9.49938 25.5865 11.2101 25.9211 12.9365 25.9135C15.0471 25.9223 17.1272 25.4094 18.9919 24.4204C20.8565 23.4315 22.4479 21.9971 23.6246 20.2449C21.1425 20.4163 18.6855 20.8492 16.2944 21.5364C13.6436 22.2952 11.072 23.3075 8.61514 24.5592M35.5134 12.433C34.9268 12.4537 34.342 12.3556 33.7943 12.1447C33.2465 11.9337 32.747 11.6142 32.3258 11.2054C31.9046 10.7966 31.5703 10.3068 31.3431 9.7656C31.1159 9.22436 31.0004 8.64278 31.0036 8.0558C31.0495 6.88768 31.5459 5.7827 32.3886 4.97247C33.2313 4.16225 34.3549 3.7097 35.5239 3.7097C36.6929 3.7097 37.8166 4.16225 38.6593 4.97247C39.5019 5.7827 39.9983 6.88768 40.0442 8.0558C40.0417 8.64294 39.9216 9.22362 39.6911 9.76362C39.4606 10.3036 39.1242 10.792 38.702 11.1999C38.2797 11.6079 37.78 11.9272 37.2324 12.1389C36.6848 12.3507 36.1003 12.4507 35.5134 12.433ZM38.0895 8.03486C38.1016 7.68868 38.0441 7.34358 37.9202 7.02011C37.7962 6.69664 37.6085 6.40139 37.3682 6.15194C37.1279 5.90248 36.8398 5.70392 36.5212 5.56806C36.2025 5.43219 35.8598 5.3618 35.5134 5.36108C35.1701 5.35985 34.8302 5.42818 34.514 5.56196C34.1979 5.69575 33.9121 5.8922 33.674 6.13947C33.4358 6.38674 33.2503 6.67969 33.1285 7.00066C33.0067 7.32162 32.9512 7.66393 32.9653 8.00693C32.9532 8.35311 33.0107 8.6982 33.1346 9.02167C33.2586 9.34515 33.4463 9.64039 33.6866 9.88985C33.9269 10.1393 34.215 10.3379 34.5336 10.4737C34.8523 10.6096 35.195 10.68 35.5414 10.6807C35.8847 10.6819 36.2246 10.6136 36.5408 10.4798C36.8569 10.346 37.1427 10.1496 37.3808 9.90232C37.619 9.65505 37.8045 9.36209 37.9263 9.04113C38.0481 8.72017 38.1036 8.37786 38.0895 8.03486ZM45.7966 12.2864H41.7476V3.78335H45.6989C47.4372 3.78335 48.4914 4.64901 48.4914 5.9824C48.5022 6.3636 48.4026 6.73979 48.2044 7.06559C48.0062 7.39138 47.7179 7.65285 47.3744 7.81844C47.8391 7.93311 48.2505 8.20348 48.5401 8.58454C48.8297 8.9656 48.98 9.43436 48.9661 9.91278C48.98 11.5115 47.7165 12.2864 45.7966 12.2864ZM46.6483 6.28259C46.6483 5.7241 46.2085 5.40995 45.4197 5.40995H43.5697V7.21108H45.294C46.1178 7.21108 46.6414 6.9458 46.6414 6.31052V6.28259H46.6483ZM47.1231 9.6824C47.1231 9.10995 46.6972 8.76089 45.7268 8.76089H43.5627V10.6318H45.7966C46.6204 10.6318 47.1231 10.3386 47.1231 9.71033V9.6824ZM57.0223 12.2864L56.2474 10.3805H52.6451L51.8702 12.2864H49.9644L53.6085 3.72052H55.3329L58.977 12.2864H57.0223ZM54.4532 5.96844L53.3223 8.76089H55.5842L54.4532 5.96844ZM67.2427 12.2864V6.70146L64.8482 10.3316H64.7993L62.4257 6.77127V12.2864H60.5966V3.78335H62.6142L64.8482 7.37863L67.0821 3.78335H69.1136V12.2864H67.2427ZM77.5957 12.2864L76.7929 10.3805H73.1976L72.4227 12.2864H70.5099L74.154 3.72052H75.8783L79.5225 12.2864H77.5678H77.5957ZM75.0197 5.96844L73.8887 8.76089H76.1506L75.0197 5.96844ZM31.9251 15.1626H37.4263V15.9584H32.8117V18.6881H36.9585V19.4769H32.8117V22.8139H31.9251V15.1347V15.1626ZM38.9272 19.0092C38.9272 17.9742 39.3384 16.9816 40.0702 16.2497C40.8021 15.5179 41.7947 15.1067 42.8297 15.1067C43.8647 15.1067 44.8573 15.5179 45.5891 16.2497C46.321 16.9816 46.7321 17.9742 46.7321 19.0092C46.7321 20.0442 46.321 21.0368 45.5891 21.7686C44.8573 22.5005 43.8647 22.9116 42.8297 22.9116C41.7947 22.9116 40.8021 22.5005 40.0702 21.7686C39.3384 21.0368 38.9272 20.0442 38.9272 19.0092ZM45.8385 19.0092C45.8544 18.6019 45.7884 18.1957 45.6443 17.8144C45.5002 17.4332 45.2811 17.0847 44.9998 16.7898C44.7185 16.4949 44.3809 16.2594 44.0069 16.0974C43.6329 15.9354 43.2302 15.8502 42.8227 15.8467C42.4162 15.8436 42.0133 15.9229 41.6383 16.0798C41.2634 16.2367 40.9241 16.4679 40.6409 16.7596C40.3578 17.0512 40.1366 17.3972 39.9909 17.7766C39.8451 18.1561 39.7778 18.5611 39.7929 18.9673C39.777 19.3746 39.843 19.7809 39.9871 20.1621C40.1312 20.5433 40.3503 20.8918 40.6316 21.1867C40.9129 21.4816 41.2505 21.7171 41.6245 21.8791C41.9985 22.0411 42.4012 22.1263 42.8087 22.1298C43.2152 22.1329 43.6181 22.0536 43.9931 21.8967C44.368 21.7398 44.7073 21.5086 44.9905 21.2169C45.2736 20.9253 45.4948 20.5793 45.6405 20.1999C45.7863 19.8204 45.8536 19.4154 45.8385 19.0092ZM48.8683 19.6096V15.1626H49.734V19.5467C49.734 21.1943 50.6066 22.1298 52.0727 22.1298C53.5387 22.1298 54.3765 21.2781 54.3765 19.6026V15.1626H55.2421V19.5467C55.2421 21.7737 53.9646 22.9326 52.0517 22.9326C50.1389 22.9326 48.8683 21.7807 48.8683 19.6096ZM57.9438 15.1626H58.7536L63.5776 21.299V15.1626H64.4223V22.8418H63.7242L58.7815 16.5588V22.8418H57.9438V15.1626ZM67.3683 15.1626H70.0282C72.4366 15.1626 74.0982 16.8101 74.0982 18.9673C74.0982 19.4906 73.9911 20.0084 73.7834 20.4888C73.5757 20.9691 73.2718 21.4019 72.8905 21.7603C72.5092 22.1187 72.0585 22.3953 71.5662 22.5729C71.0739 22.7505 70.5505 22.8254 70.0282 22.793H67.3683V15.1137V15.1626ZM70.0282 22.0181C70.4383 22.0472 70.85 21.9906 71.237 21.8519C71.624 21.7132 71.9779 21.4953 72.2761 21.2122C72.5743 20.9292 72.8102 20.5871 72.9689 20.2078C73.1275 19.8285 73.2054 19.4203 73.1976 19.0092C73.2052 18.5973 73.1273 18.1882 72.9688 17.8079C72.8104 17.4276 72.5748 17.0843 72.277 16.7996C71.9792 16.5149 71.6256 16.295 71.2385 16.1538C70.8515 16.0127 70.4393 15.9533 70.0282 15.9794H68.234V22.039H70.0282V22.0181ZM78.4893 15.1067H79.2991L82.7897 22.786H81.8612L80.9815 20.7964H76.7929L75.8853 22.8209H74.9987L78.4893 15.1067ZM80.6185 19.9935L78.8872 16.112L77.1349 20.0145H80.6255L80.6185 19.9935ZM85.6449 15.9584H83.0759V15.1626H89.0866V15.9584H86.5176V22.8139H85.6449V15.9584ZM91.2717 15.1626H92.1514V22.8418H91.2857V15.1626H91.2717ZM94.4691 19.0092C94.4691 17.9742 94.8802 16.9816 95.6121 16.2497C96.3439 15.5179 97.3365 15.1067 98.3715 15.1067C99.4065 15.1067 100.399 15.5179 101.131 16.2497C101.863 16.9816 102.274 17.9742 102.274 19.0092C102.274 20.0442 101.863 21.0368 101.131 21.7686C100.399 22.5005 99.4065 22.9116 98.3715 22.9116C97.3365 22.9116 96.3439 22.5005 95.6121 21.7686C94.8802 21.0368 94.4691 20.0442 94.4691 19.0092ZM101.38 19.0092C101.396 18.6019 101.33 18.1957 101.186 17.8144C101.042 17.4332 100.823 17.0847 100.542 16.7898C100.26 16.4949 99.9228 16.2594 99.5488 16.0974C99.1748 15.9354 98.7721 15.8502 98.3646 15.8467C97.9598 15.8483 97.5595 15.9314 97.1877 16.0913C96.8158 16.2511 96.48 16.4844 96.2004 16.777C95.9208 17.0697 95.7031 17.4157 95.5604 17.7945C95.4176 18.1732 95.3527 18.5769 95.3697 18.9813C95.3537 19.3885 95.4198 19.7948 95.5639 20.1761C95.7079 20.5573 95.9271 20.9057 96.2084 21.2007C96.4897 21.4956 96.8273 21.7311 97.2013 21.8931C97.5753 22.0551 97.978 22.1403 98.3855 22.1437C98.7897 22.1413 99.1892 22.0574 99.5602 21.8971C99.9313 21.7369 100.266 21.5035 100.545 21.211C100.824 20.9184 101.041 20.5727 101.183 20.1944C101.326 19.8161 101.39 19.413 101.373 19.0092H101.38ZM104.529 15.1626H105.339L110.163 21.299V15.1626H111V22.8418H110.302L105.36 16.5588V22.8418H104.515V15.1626H104.529Z" fill="var(--fill-0, black)"/>
</g>
<defs>
<clipPath id="clip0_0_32">
<rect width="111" height="25.907" fill="white"/>
</clipPath>
</defs>
</svg>
