<svg preserveAspectRatio="none" width="100%" height="100%" overflow="visible" style="display: block;" viewBox="0 0 120 30" fill="none" xmlns="http://www.w3.org/2000/svg">
<g id="Logo Tim Ferriss">
<path id="Shape" fill-rule="evenodd" clip-rule="evenodd" d="M101.753 22.991C101.188 23.016 100.404 22.9871 100.011 22.9269C99.6179 22.8666 99.0226 22.7155 98.6884 22.5912C98.3542 22.4668 97.8478 22.2116 97.5632 22.0242C97.2786 21.8367 96.864 21.4168 96.6418 21.091C96.4196 20.7653 96.1538 20.2366 96.051 19.9163C95.9482 19.596 95.8554 19.0881 95.8446 18.7877C95.8251 18.2416 95.8251 18.2416 96.6229 18.1059C97.0618 18.0313 97.7062 17.9359 98.0551 17.8939C98.6894 17.8175 98.6894 17.8175 98.8785 18.4942C98.9826 18.8664 99.2079 19.3366 99.3793 19.5392C99.5508 19.7418 99.8983 20.0012 100.152 20.1156C100.461 20.2554 100.885 20.3245 101.443 20.3262C102.049 20.328 102.393 20.2682 102.715 20.1052C102.957 19.9822 103.263 19.7458 103.394 19.5798C103.566 19.3623 103.633 19.1151 103.633 18.695C103.633 18.3664 103.56 18.0086 103.466 17.8749C103.374 17.7445 103.028 17.5312 102.696 17.4009C102.365 17.2707 101.761 17.061 101.353 16.935C100.946 16.8089 100.253 16.5969 99.8144 16.4639C99.3756 16.3308 98.7201 16.0733 98.3578 15.8916C97.9955 15.7099 97.4903 15.3536 97.235 15.0997C96.9798 14.8459 96.6668 14.4042 96.5396 14.1181C96.4124 13.8321 96.2824 13.2774 96.2508 12.8854C96.2191 12.4935 96.2563 11.854 96.3334 11.4644C96.4105 11.0747 96.5734 10.5613 96.6955 10.3234C96.8175 10.0855 97.1263 9.68302 97.3816 9.42908C97.637 9.17514 98.1632 8.82429 98.551 8.64942C98.9388 8.47455 99.5869 8.26361 99.9912 8.18067C100.395 8.09773 101.14 8.03055 101.646 8.03138C102.152 8.03221 102.892 8.09974 103.29 8.18145C103.688 8.26317 104.248 8.43876 104.535 8.57167C104.823 8.70458 105.343 9.09613 105.693 9.44178C106.13 9.87407 106.389 10.2465 106.521 10.635C106.628 10.9457 106.745 11.4618 106.783 11.782C106.852 12.3641 106.852 12.3641 106.354 12.4332C106.08 12.4712 105.586 12.5306 105.257 12.5651C104.929 12.5997 104.504 12.639 104.313 12.6526C103.989 12.6757 103.948 12.6322 103.688 11.9972C103.535 11.6232 103.275 11.2088 103.11 11.0763C102.945 10.9439 102.617 10.7781 102.382 10.7079C102.146 10.6377 101.754 10.5806 101.511 10.581C101.267 10.5813 100.879 10.6338 100.648 10.6976C100.417 10.7614 100.096 10.9691 99.9357 11.1591C99.7073 11.4291 99.6434 11.6283 99.6434 12.0713C99.6434 12.5391 99.6984 12.6928 99.9583 12.9512C100.131 13.1234 100.555 13.3683 100.899 13.4954C101.243 13.6225 101.986 13.8649 102.55 14.0342C103.114 14.2034 103.947 14.4948 104.401 14.6817C104.894 14.8847 105.464 15.2337 105.816 15.5488C106.179 15.8733 106.515 16.3114 106.688 16.6878C106.923 17.1981 106.969 17.4704 106.966 18.3323C106.964 19.1134 106.903 19.524 106.715 20.0166C106.564 20.4122 106.24 20.9145 105.889 21.2959C105.572 21.6412 105.101 22.045 104.843 22.1931C104.585 22.3413 104.015 22.5712 103.576 22.704C103.115 22.8439 102.347 22.9647 101.753 22.991ZM113.663 22.981C113.13 23.0106 112.388 22.9875 112.014 22.9297C111.641 22.8719 111.076 22.7413 110.761 22.6395C110.445 22.5378 110.007 22.3508 109.788 22.2239C109.568 22.0971 109.218 21.8356 109.009 21.6428C108.8 21.45 108.509 21.0882 108.363 20.8388C108.217 20.5894 107.991 20.0357 107.86 19.6083C107.729 19.1809 107.622 18.6894 107.622 18.516C107.622 18.2256 107.665 18.195 108.164 18.1281C108.461 18.0882 108.884 18.032 109.104 18.0032C109.323 17.9744 109.765 17.9191 110.086 17.8803C110.669 17.8097 110.669 17.8097 110.75 18.2389C110.795 18.475 110.91 18.8626 111.005 19.1002C111.101 19.3379 111.349 19.6809 111.557 19.8625C111.788 20.0643 112.171 20.2431 112.542 20.3221C112.881 20.3944 113.414 20.4185 113.751 20.3766C114.082 20.3355 114.517 20.1918 114.718 20.0575C114.918 19.9231 115.199 19.6411 115.342 19.4308C115.484 19.2204 115.601 18.9003 115.601 18.7194C115.601 18.5385 115.525 18.2452 115.433 18.0676C115.34 17.8883 115.048 17.6407 114.778 17.5107C114.509 17.3819 113.598 17.0666 112.751 16.81C111.905 16.5534 110.863 16.1855 110.436 15.9924C109.889 15.7448 109.494 15.461 109.098 15.0295C108.698 14.5948 108.482 14.2347 108.351 13.7854C108.22 13.3391 108.18 12.8621 108.213 12.164C108.253 11.3311 108.32 11.0552 108.637 10.4157C108.937 9.80898 109.148 9.55698 109.688 9.16191C110.059 8.88997 110.653 8.55983 111.006 8.42826C111.36 8.2967 112.042 8.13376 112.523 8.06618C113.143 7.97896 113.692 7.97802 114.414 8.06294C114.974 8.12875 115.726 8.29221 116.086 8.42619C116.446 8.56016 116.985 8.86132 117.282 9.09541C117.58 9.32951 117.967 9.78358 118.142 10.1045C118.318 10.4253 118.538 11.0527 118.631 11.4986C118.725 11.9445 118.779 12.3319 118.751 12.3594C118.723 12.3869 118.349 12.4532 117.92 12.5066C117.491 12.5601 116.848 12.629 116.492 12.6599C115.844 12.7161 115.844 12.7161 115.666 12.1954C115.568 11.909 115.409 11.5566 115.314 11.4124C115.219 11.2681 114.934 11.0445 114.679 10.9156C114.425 10.7866 113.977 10.653 113.684 10.6185C113.39 10.5841 112.924 10.6165 112.648 10.6906C112.371 10.7648 112 10.9704 111.821 11.1476C111.549 11.4185 111.497 11.5629 111.497 12.0564C111.497 12.5634 111.544 12.6867 111.843 12.9638C112.033 13.1402 112.404 13.3635 112.669 13.46C112.934 13.5564 113.74 13.8192 114.461 14.0438C115.182 14.2685 116.102 14.6033 116.506 14.7877C116.91 14.9721 117.458 15.3002 117.724 15.5167C118.007 15.7479 118.339 16.179 118.528 16.561C118.816 17.1438 118.849 17.3294 118.848 18.345C118.846 19.3502 118.809 19.5584 118.52 20.1839C118.313 20.6311 117.977 21.0935 117.6 21.4476C117.274 21.7547 116.752 22.1342 116.441 22.2909C116.13 22.4476 115.596 22.6548 115.254 22.7514C114.912 22.8481 114.196 22.9513 113.663 22.981ZM6.10418 22.7091L6.12195 11.0904L3.9848 11.0596L1.84766 11.0287V9.79244C1.84766 8.81663 1.88561 8.51841 2.02782 8.37699C2.18806 8.21762 2.84011 8.20106 7.92634 8.2272L13.6447 8.25658V9.61682V10.9771L11.5076 11.0079L9.37041 11.0387V16.8739V22.7091H7.73729H6.10418ZM18.2039 22.6524C15.4174 22.7111 15.2006 22.6903 15.1399 22.533C15.1012 22.4326 15.0724 19.3834 15.076 15.757C15.0796 12.1305 15.1189 8.95937 15.1633 8.70999C15.244 8.25658 15.244 8.25658 16.7495 8.22497C18.2348 8.19379 18.2557 8.19682 18.3144 8.45168C18.3471 8.59375 18.3356 11.847 18.2889 15.6812L18.2039 22.6524ZM21.0535 8.25658H25.7267L26.1966 9.6735C26.455 10.4528 27.0902 12.5819 27.608 14.4049C28.1259 16.2279 28.6148 17.8082 28.6945 17.9167C28.822 18.09 28.8615 18.0353 29.0209 17.4642C29.1206 17.1068 29.4398 15.9856 29.7301 14.9726C30.0204 13.9596 30.4835 12.3911 30.7591 11.4871C31.0347 10.5832 31.3912 9.5008 31.5512 9.08191C31.8118 8.39937 31.8796 8.31352 32.2038 8.25505C32.4028 8.21917 33.4375 8.20484 34.5032 8.2232L36.4409 8.25658L36.5129 15.3412C36.5605 20.0216 36.5461 22.4738 36.4705 22.5674C36.3896 22.6675 35.9257 22.7091 34.8894 22.7091H33.4227L33.3931 17.5799C33.3634 12.4507 33.3634 12.4507 32.9937 13.6127C32.7903 14.2519 32.1074 16.4453 31.476 18.4869C30.8447 20.5286 30.2813 22.3138 30.224 22.4541C30.1238 22.6995 30.066 22.7091 28.6902 22.7091C27.3169 22.7091 27.2561 22.6991 27.1481 22.4541C27.0863 22.3138 26.6582 20.9456 26.1967 19.4136C25.7352 17.8816 25.11 15.7519 24.8072 14.6811C24.5045 13.6102 24.2157 12.734 24.1654 12.734C24.1151 12.734 24.074 14.9784 24.074 17.7216V22.7091H22.5485C21.1877 22.7091 21.0185 22.6877 20.9811 22.5107C20.958 22.4016 20.9648 19.1498 20.9963 15.2845L21.0535 8.25658ZM42.7669 22.7091C42.7669 9.07537 42.7854 8.33045 42.9472 8.26871C43.0463 8.23087 45.1236 8.1999 47.5634 8.1999H51.9993V9.55823V10.9166L49.0643 10.9468L46.1293 10.9771L46.0979 12.7057L46.0664 14.4343H48.7479H51.4294V15.7357C51.4294 16.9919 51.4205 17.0392 51.173 17.0973C51.0319 17.1304 49.8138 17.1696 48.4659 17.1845L46.0153 17.2115L45.9848 19.9603L45.9543 22.7091H44.3606H42.7669ZM53.823 22.7091C53.823 8.3397 53.823 8.3397 54.0795 8.27135C54.2205 8.23376 56.3235 8.2023 58.7527 8.20145L63.1695 8.1999L63.1615 9.24842C63.1571 9.82511 63.1166 10.39 63.0715 10.5037C63.0265 10.6174 62.9461 10.7023 62.8928 10.6924C62.8396 10.6824 62.7622 10.7287 62.7209 10.7952C62.6719 10.874 61.6947 10.9268 59.9156 10.9466L57.1855 10.9771L57.1539 12.5923L57.1222 14.2076H59.9179H62.7136V15.5112V16.8147H59.921H57.1285V18.4017V19.9886H60.32H63.5114V21.3489V22.7091H58.6672H53.823ZM65.4491 22.7091V8.1999H68.625C70.3718 8.1999 72.0772 8.25085 72.4149 8.31312C72.7526 8.37539 73.3988 8.60678 73.851 8.82731C74.4119 9.10092 74.8063 9.39003 75.0926 9.73749C75.3234 10.0175 75.6074 10.5337 75.7238 10.8845C75.8603 11.2959 75.9354 11.8508 75.9354 12.4477C75.9354 12.962 75.8552 13.6416 75.7548 13.9777C75.6555 14.3103 75.4576 14.7662 75.315 14.9908C75.1725 15.2154 74.8562 15.5783 74.6123 15.7974C74.3683 16.0165 74.0492 16.2789 73.9031 16.3806C73.6375 16.5654 73.6375 16.5654 74.3757 17.9653C74.7817 18.7352 75.4457 20.0028 75.8512 20.7821C76.2568 21.5614 76.6251 22.3151 76.6696 22.4571C76.7505 22.7151 76.7505 22.7151 75.0037 22.6838L73.2568 22.6524L72.4765 21.1222C72.0474 20.2805 71.4062 19.0563 71.0518 18.4017C70.4073 17.2115 70.4073 17.2115 69.5239 17.1784L68.6406 17.1453V19.9272V22.7091H67.0448H65.4491ZM78.0939 22.7154C78.2024 11.6855 78.2537 8.41953 78.2779 8.3416C78.3116 8.23285 79.0333 8.1999 81.382 8.1999C83.0827 8.1999 84.7374 8.25419 85.1068 8.3221C85.4724 8.38931 86.0396 8.56222 86.3673 8.70634C86.6949 8.85046 87.1775 9.16102 87.4395 9.39647C87.7016 9.63192 88.0357 10.0329 88.1821 10.2875C88.3285 10.542 88.5123 11.0083 88.5906 11.3236C88.6742 11.6599 88.7109 12.269 88.6795 12.7972C88.6447 13.3826 88.5376 13.8958 88.3733 14.2643C88.2344 14.576 87.99 15.0193 87.8303 15.2493C87.6707 15.4793 87.3089 15.8466 87.0264 16.0654C86.7439 16.2843 86.4626 16.48 86.4011 16.5004C86.3397 16.5207 86.7093 17.3012 87.2225 18.2347C87.7357 19.1682 88.4608 20.5441 88.8339 21.2922L89.5121 22.6524L87.7762 22.6838C86.8214 22.7011 86.0028 22.6756 85.9571 22.6272C85.9114 22.5787 85.2714 21.3531 84.5348 19.9036C83.1955 17.2682 83.1955 17.2682 82.303 17.2682H81.4106L81.38 19.9603L81.3495 22.6524L79.7217 22.6839L78.0939 22.7154ZM90.8652 22.7155L90.9239 8.25658L92.492 8.22504L94.0601 8.1935L94.0307 15.423L94.0014 22.6524L92.4333 22.684L90.8652 22.7155ZM68.6406 10.9204V14.661H69.6729C70.2407 14.661 70.9325 14.6041 71.2103 14.5346C71.5517 14.4491 71.8411 14.2697 72.1034 13.981C72.3486 13.711 72.5206 13.3821 72.5707 13.0873C72.6143 12.8306 72.6158 12.4198 72.5741 12.1744C72.5324 11.9289 72.3803 11.6015 72.2362 11.4467C72.092 11.292 71.7754 11.1106 71.5326 11.0435C71.2898 10.9765 70.5398 10.9214 69.8659 10.921L68.6406 10.9204ZM81.4065 10.9204V14.661H82.4723C83.0585 14.661 83.7124 14.6022 83.9255 14.5303C84.1386 14.4585 84.4552 14.3011 84.629 14.1807C84.8028 14.0603 85.0521 13.7532 85.1829 13.4982C85.3644 13.1444 85.4088 12.8913 85.3703 12.43C85.3341 11.9954 85.2424 11.7419 85.0444 11.5283C84.8929 11.3649 84.6039 11.1613 84.4021 11.0758C84.1624 10.9742 83.5801 10.9204 82.7209 10.9204H81.4065Z" fill="var(--fill-0, black)"/>
</g>
</svg>
