<svg preserveAspectRatio="none" width="100%" height="100%" overflow="visible" style="display: block;" viewBox="0 0 22.4423 22.6745" fill="none" xmlns="http://www.w3.org/2000/svg">
<path id="Star 11" d="M10.7972 0.312071C10.9267 -0.104024 11.5156 -0.104023 11.6451 0.312071L14.0841 8.14911C14.1272 8.28751 14.2351 8.39617 14.3732 8.4402L22.1331 10.9142C22.5453 11.0456 22.5453 11.6289 22.1331 11.7603L14.3732 14.2343C14.2351 14.2783 14.1272 14.387 14.0841 14.5254L11.6451 22.3624C11.5156 22.7785 10.9267 22.7785 10.7972 22.3624L8.35814 14.5254C8.31507 14.387 8.20716 14.2783 8.06906 14.2343L0.309144 11.7603C-0.103046 11.6289 -0.103048 11.0456 0.309142 10.9142L8.06906 8.4402C8.20715 8.39617 8.31507 8.28751 8.35814 8.14911L10.7972 0.312071Z" fill="var(--fill-0, #4661E5)"/>
</svg>
